ISO-10303-21;
HEADER;
/* Generated by software containing ST-Developer
 * from STEP Tools, Inc. (www.steptools.com) 
 */
/* OPTION: using custom renumber hook */

FILE_DESCRIPTION(
/* description */ ('STEP AP242 Edition 2',
'CAx-IF Rec.Pracs.---Representation and Presentation of Product Manufa
cturing Information (PMI)---4.0---2014-10-13',
'CAx-IF Rec.Pracs.---3D Tessellated Geometry---0.4---2014-09-14','2;1',
'CAx-IF Rec.Pracs.---User Defined Attributes---1.5---2016-08-15'),
/* implementation_level */ '2;1');

FILE_NAME(
/* name */ 'frame - Cross',
/* time_stamp */ '2026-07-05T17:26:49Z',
/* author */ (''),
/* organization */ (''),
/* preprocessor_version */ 'ST-DEVELOPER v20',
/* originating_system */ 'ONSHAPE BY PTC INC, 1.217',
/* authorisation */ '  ');

FILE_SCHEMA (('AP242_MANAGED_MODEL_BASED_3D_ENGINEERING_MIM_LF { 1 0 10303 442 3 1 4 }'));
ENDSEC;

DATA;
#10=SHAPE_REPRESENTATION_RELATIONSHIP('','',#815,#11);
#11=ADVANCED_BREP_SHAPE_REPRESENTATION('',(#813),#1373);
#12=CONICAL_SURFACE('',#867,0.002,0.785398163397448);
#13=CONICAL_SURFACE('',#870,0.0021,0.785398163397448);
#14=CONICAL_SURFACE('',#871,0.0065,0.785398163397449);
#15=CONICAL_SURFACE('',#874,0.002,0.785398163397448);
#16=CONICAL_SURFACE('',#875,0.002,0.785398163397448);
#17=CONICAL_SURFACE('',#878,0.0065,0.785398163397449);
#18=CONICAL_SURFACE('',#879,0.0021,0.785398163397448);
#19=CONICAL_SURFACE('',#882,0.0015,0.785398163397448);
#20=CONICAL_SURFACE('',#883,0.0015,0.785398163397448);
#21=CONICAL_SURFACE('',#886,0.0026,0.785398163397448);
#22=CONICAL_SURFACE('',#887,0.007,0.785398163397448);
#23=CONICAL_SURFACE('',#890,0.0015,0.785398163397448);
#24=CONICAL_SURFACE('',#891,0.0015,0.785398163397448);
#25=CONICAL_SURFACE('',#894,0.007,0.785398163397448);
#26=CONICAL_SURFACE('',#895,0.0026,0.785398163397448);
#27=CONICAL_SURFACE('',#898,0.002,0.785398163397448);
#28=PLANE('',#820);
#29=PLANE('',#824);
#30=PLANE('',#828);
#31=PLANE('',#832);
#32=PLANE('',#836);
#33=PLANE('',#840);
#34=PLANE('',#844);
#35=PLANE('',#848);
#36=PLANE('',#849);
#37=PLANE('',#858);
#38=PLANE('',#868);
#39=PLANE('',#869);
#40=PLANE('',#872);
#41=PLANE('',#873);
#42=PLANE('',#876);
#43=PLANE('',#877);
#44=PLANE('',#880);
#45=PLANE('',#881);
#46=PLANE('',#884);
#47=PLANE('',#885);
#48=PLANE('',#888);
#49=PLANE('',#889);
#50=PLANE('',#892);
#51=PLANE('',#893);
#52=PLANE('',#896);
#53=PLANE('',#897);
#54=CIRCLE('',#818,0.0021);
#55=CIRCLE('',#819,0.0021);
#56=CIRCLE('',#822,0.002);
#57=CIRCLE('',#823,0.002);
#58=CIRCLE('',#826,0.0065);
#59=CIRCLE('',#827,0.0065);
#60=CIRCLE('',#830,0.002);
#61=CIRCLE('',#831,0.002);
#62=CIRCLE('',#834,0.0021);
#63=CIRCLE('',#835,0.0021);
#64=CIRCLE('',#838,0.002);
#65=CIRCLE('',#839,0.002);
#66=CIRCLE('',#842,0.0065);
#67=CIRCLE('',#843,0.0065);
#68=CIRCLE('',#846,0.002);
#69=CIRCLE('',#847,0.002);
#70=CIRCLE('',#850,0.0015);
#71=CIRCLE('',#851,0.0026);
#72=CIRCLE('',#852,0.0015);
#73=CIRCLE('',#853,0.007);
#74=CIRCLE('',#854,0.0015);
#75=CIRCLE('',#855,0.0026);
#76=CIRCLE('',#856,0.0015);
#77=CIRCLE('',#857,0.007);
#78=CIRCLE('',#859,0.0015);
#79=CIRCLE('',#860,0.007);
#80=CIRCLE('',#861,0.0015);
#81=CIRCLE('',#862,0.0026);
#82=CIRCLE('',#863,0.0015);
#83=CIRCLE('',#864,0.007);
#84=CIRCLE('',#865,0.0015);
#85=CIRCLE('',#866,0.0026);
#86=ORIENTED_EDGE('',*,*,#310,.F.);
#87=ORIENTED_EDGE('',*,*,#311,.T.);
#88=ORIENTED_EDGE('',*,*,#312,.T.);
#89=ORIENTED_EDGE('',*,*,#313,.T.);
#90=ORIENTED_EDGE('',*,*,#314,.F.);
#91=ORIENTED_EDGE('',*,*,#315,.T.);
#92=ORIENTED_EDGE('',*,*,#310,.T.);
#93=ORIENTED_EDGE('',*,*,#316,.T.);
#94=ORIENTED_EDGE('',*,*,#317,.F.);
#95=ORIENTED_EDGE('',*,*,#318,.T.);
#96=ORIENTED_EDGE('',*,*,#314,.T.);
#97=ORIENTED_EDGE('',*,*,#319,.T.);
#98=ORIENTED_EDGE('',*,*,#320,.F.);
#99=ORIENTED_EDGE('',*,*,#321,.T.);
#100=ORIENTED_EDGE('',*,*,#317,.T.);
#101=ORIENTED_EDGE('',*,*,#322,.T.);
#102=ORIENTED_EDGE('',*,*,#323,.F.);
#103=ORIENTED_EDGE('',*,*,#324,.T.);
#104=ORIENTED_EDGE('',*,*,#320,.T.);
#105=ORIENTED_EDGE('',*,*,#325,.T.);
#106=ORIENTED_EDGE('',*,*,#326,.F.);
#107=ORIENTED_EDGE('',*,*,#327,.T.);
#108=ORIENTED_EDGE('',*,*,#323,.T.);
#109=ORIENTED_EDGE('',*,*,#328,.T.);
#110=ORIENTED_EDGE('',*,*,#329,.F.);
#111=ORIENTED_EDGE('',*,*,#330,.T.);
#112=ORIENTED_EDGE('',*,*,#326,.T.);
#113=ORIENTED_EDGE('',*,*,#331,.T.);
#114=ORIENTED_EDGE('',*,*,#332,.F.);
#115=ORIENTED_EDGE('',*,*,#333,.T.);
#116=ORIENTED_EDGE('',*,*,#329,.T.);
#117=ORIENTED_EDGE('',*,*,#334,.T.);
#118=ORIENTED_EDGE('',*,*,#335,.F.);
#119=ORIENTED_EDGE('',*,*,#336,.T.);
#120=ORIENTED_EDGE('',*,*,#332,.T.);
#121=ORIENTED_EDGE('',*,*,#337,.T.);
#122=ORIENTED_EDGE('',*,*,#338,.F.);
#123=ORIENTED_EDGE('',*,*,#339,.T.);
#124=ORIENTED_EDGE('',*,*,#335,.T.);
#125=ORIENTED_EDGE('',*,*,#340,.T.);
#126=ORIENTED_EDGE('',*,*,#341,.F.);
#127=ORIENTED_EDGE('',*,*,#342,.T.);
#128=ORIENTED_EDGE('',*,*,#338,.T.);
#129=ORIENTED_EDGE('',*,*,#343,.T.);
#130=ORIENTED_EDGE('',*,*,#344,.F.);
#131=ORIENTED_EDGE('',*,*,#345,.T.);
#132=ORIENTED_EDGE('',*,*,#341,.T.);
#133=ORIENTED_EDGE('',*,*,#346,.T.);
#134=ORIENTED_EDGE('',*,*,#347,.F.);
#135=ORIENTED_EDGE('',*,*,#348,.T.);
#136=ORIENTED_EDGE('',*,*,#344,.T.);
#137=ORIENTED_EDGE('',*,*,#349,.T.);
#138=ORIENTED_EDGE('',*,*,#350,.F.);
#139=ORIENTED_EDGE('',*,*,#351,.T.);
#140=ORIENTED_EDGE('',*,*,#347,.T.);
#141=ORIENTED_EDGE('',*,*,#352,.T.);
#142=ORIENTED_EDGE('',*,*,#353,.F.);
#143=ORIENTED_EDGE('',*,*,#354,.T.);
#144=ORIENTED_EDGE('',*,*,#350,.T.);
#145=ORIENTED_EDGE('',*,*,#355,.T.);
#146=ORIENTED_EDGE('',*,*,#312,.F.);
#147=ORIENTED_EDGE('',*,*,#356,.T.);
#148=ORIENTED_EDGE('',*,*,#353,.T.);
#149=ORIENTED_EDGE('',*,*,#357,.T.);
#150=ORIENTED_EDGE('',*,*,#358,.T.);
#151=ORIENTED_EDGE('',*,*,#359,.T.);
#152=ORIENTED_EDGE('',*,*,#360,.T.);
#153=ORIENTED_EDGE('',*,*,#361,.T.);
#154=ORIENTED_EDGE('',*,*,#362,.T.);
#155=ORIENTED_EDGE('',*,*,#363,.T.);
#156=ORIENTED_EDGE('',*,*,#364,.T.);
#157=ORIENTED_EDGE('',*,*,#365,.T.);
#158=ORIENTED_EDGE('',*,*,#366,.T.);
#159=ORIENTED_EDGE('',*,*,#367,.T.);
#160=ORIENTED_EDGE('',*,*,#368,.T.);
#161=ORIENTED_EDGE('',*,*,#369,.T.);
#162=ORIENTED_EDGE('',*,*,#370,.T.);
#163=ORIENTED_EDGE('',*,*,#371,.T.);
#164=ORIENTED_EDGE('',*,*,#372,.T.);
#165=ORIENTED_EDGE('',*,*,#373,.T.);
#166=ORIENTED_EDGE('',*,*,#374,.T.);
#167=ORIENTED_EDGE('',*,*,#375,.T.);
#168=ORIENTED_EDGE('',*,*,#376,.T.);
#169=ORIENTED_EDGE('',*,*,#377,.T.);
#170=ORIENTED_EDGE('',*,*,#378,.T.);
#171=ORIENTED_EDGE('',*,*,#379,.T.);
#172=ORIENTED_EDGE('',*,*,#380,.T.);
#173=ORIENTED_EDGE('',*,*,#381,.T.);
#174=ORIENTED_EDGE('',*,*,#382,.T.);
#175=ORIENTED_EDGE('',*,*,#383,.T.);
#176=ORIENTED_EDGE('',*,*,#384,.T.);
#177=ORIENTED_EDGE('',*,*,#385,.T.);
#178=ORIENTED_EDGE('',*,*,#386,.T.);
#179=ORIENTED_EDGE('',*,*,#387,.T.);
#180=ORIENTED_EDGE('',*,*,#388,.T.);
#181=ORIENTED_EDGE('',*,*,#389,.T.);
#182=ORIENTED_EDGE('',*,*,#390,.F.);
#183=ORIENTED_EDGE('',*,*,#354,.F.);
#184=ORIENTED_EDGE('',*,*,#391,.F.);
#185=ORIENTED_EDGE('',*,*,#367,.F.);
#186=ORIENTED_EDGE('',*,*,#391,.T.);
#187=ORIENTED_EDGE('',*,*,#356,.F.);
#188=ORIENTED_EDGE('',*,*,#392,.F.);
#189=ORIENTED_EDGE('',*,*,#368,.F.);
#190=ORIENTED_EDGE('',*,*,#390,.T.);
#191=ORIENTED_EDGE('',*,*,#366,.F.);
#192=ORIENTED_EDGE('',*,*,#393,.F.);
#193=ORIENTED_EDGE('',*,*,#351,.F.);
#194=ORIENTED_EDGE('',*,*,#392,.T.);
#195=ORIENTED_EDGE('',*,*,#311,.F.);
#196=ORIENTED_EDGE('',*,*,#394,.F.);
#197=ORIENTED_EDGE('',*,*,#369,.F.);
#198=ORIENTED_EDGE('',*,*,#393,.T.);
#199=ORIENTED_EDGE('',*,*,#365,.F.);
#200=ORIENTED_EDGE('',*,*,#395,.F.);
#201=ORIENTED_EDGE('',*,*,#348,.F.);
#202=ORIENTED_EDGE('',*,*,#394,.T.);
#203=ORIENTED_EDGE('',*,*,#315,.F.);
#204=ORIENTED_EDGE('',*,*,#396,.F.);
#205=ORIENTED_EDGE('',*,*,#370,.F.);
#206=ORIENTED_EDGE('',*,*,#395,.T.);
#207=ORIENTED_EDGE('',*,*,#364,.F.);
#208=ORIENTED_EDGE('',*,*,#397,.F.);
#209=ORIENTED_EDGE('',*,*,#345,.F.);
#210=ORIENTED_EDGE('',*,*,#396,.T.);
#211=ORIENTED_EDGE('',*,*,#318,.F.);
#212=ORIENTED_EDGE('',*,*,#398,.F.);
#213=ORIENTED_EDGE('',*,*,#371,.F.);
#214=ORIENTED_EDGE('',*,*,#397,.T.);
#215=ORIENTED_EDGE('',*,*,#363,.F.);
#216=ORIENTED_EDGE('',*,*,#399,.F.);
#217=ORIENTED_EDGE('',*,*,#342,.F.);
#218=ORIENTED_EDGE('',*,*,#398,.T.);
#219=ORIENTED_EDGE('',*,*,#321,.F.);
#220=ORIENTED_EDGE('',*,*,#400,.F.);
#221=ORIENTED_EDGE('',*,*,#372,.F.);
#222=ORIENTED_EDGE('',*,*,#399,.T.);
#223=ORIENTED_EDGE('',*,*,#362,.F.);
#224=ORIENTED_EDGE('',*,*,#401,.F.);
#225=ORIENTED_EDGE('',*,*,#339,.F.);
#226=ORIENTED_EDGE('',*,*,#400,.T.);
#227=ORIENTED_EDGE('',*,*,#324,.F.);
#228=ORIENTED_EDGE('',*,*,#402,.F.);
#229=ORIENTED_EDGE('',*,*,#373,.F.);
#230=ORIENTED_EDGE('',*,*,#401,.T.);
#231=ORIENTED_EDGE('',*,*,#361,.F.);
#232=ORIENTED_EDGE('',*,*,#403,.F.);
#233=ORIENTED_EDGE('',*,*,#336,.F.);
#234=ORIENTED_EDGE('',*,*,#402,.T.);
#235=ORIENTED_EDGE('',*,*,#327,.F.);
#236=ORIENTED_EDGE('',*,*,#404,.F.);
#237=ORIENTED_EDGE('',*,*,#358,.F.);
#238=ORIENTED_EDGE('',*,*,#403,.T.);
#239=ORIENTED_EDGE('',*,*,#360,.F.);
#240=ORIENTED_EDGE('',*,*,#405,.F.);
#241=ORIENTED_EDGE('',*,*,#333,.F.);
#242=ORIENTED_EDGE('',*,*,#404,.T.);
#243=ORIENTED_EDGE('',*,*,#330,.F.);
#244=ORIENTED_EDGE('',*,*,#405,.T.);
#245=ORIENTED_EDGE('',*,*,#359,.F.);
#246=ORIENTED_EDGE('',*,*,#406,.F.);
#247=ORIENTED_EDGE('',*,*,#383,.F.);
#248=ORIENTED_EDGE('',*,*,#407,.F.);
#249=ORIENTED_EDGE('',*,*,#355,.F.);
#250=ORIENTED_EDGE('',*,*,#407,.T.);
#251=ORIENTED_EDGE('',*,*,#382,.F.);
#252=ORIENTED_EDGE('',*,*,#408,.F.);
#253=ORIENTED_EDGE('',*,*,#357,.F.);
#254=ORIENTED_EDGE('',*,*,#406,.T.);
#255=ORIENTED_EDGE('',*,*,#352,.F.);
#256=ORIENTED_EDGE('',*,*,#409,.F.);
#257=ORIENTED_EDGE('',*,*,#384,.F.);
#258=ORIENTED_EDGE('',*,*,#408,.T.);
#259=ORIENTED_EDGE('',*,*,#381,.F.);
#260=ORIENTED_EDGE('',*,*,#410,.F.);
#261=ORIENTED_EDGE('',*,*,#313,.F.);
#262=ORIENTED_EDGE('',*,*,#409,.T.);
#263=ORIENTED_EDGE('',*,*,#349,.F.);
#264=ORIENTED_EDGE('',*,*,#411,.F.);
#265=ORIENTED_EDGE('',*,*,#385,.F.);
#266=ORIENTED_EDGE('',*,*,#410,.T.);
#267=ORIENTED_EDGE('',*,*,#380,.F.);
#268=ORIENTED_EDGE('',*,*,#412,.F.);
#269=ORIENTED_EDGE('',*,*,#316,.F.);
#270=ORIENTED_EDGE('',*,*,#411,.T.);
#271=ORIENTED_EDGE('',*,*,#346,.F.);
#272=ORIENTED_EDGE('',*,*,#413,.F.);
#273=ORIENTED_EDGE('',*,*,#386,.F.);
#274=ORIENTED_EDGE('',*,*,#412,.T.);
#275=ORIENTED_EDGE('',*,*,#379,.F.);
#276=ORIENTED_EDGE('',*,*,#414,.F.);
#277=ORIENTED_EDGE('',*,*,#319,.F.);
#278=ORIENTED_EDGE('',*,*,#413,.T.);
#279=ORIENTED_EDGE('',*,*,#343,.F.);
#280=ORIENTED_EDGE('',*,*,#415,.F.);
#281=ORIENTED_EDGE('',*,*,#387,.F.);
#282=ORIENTED_EDGE('',*,*,#414,.T.);
#283=ORIENTED_EDGE('',*,*,#378,.F.);
#284=ORIENTED_EDGE('',*,*,#416,.F.);
#285=ORIENTED_EDGE('',*,*,#322,.F.);
#286=ORIENTED_EDGE('',*,*,#415,.T.);
#287=ORIENTED_EDGE('',*,*,#340,.F.);
#288=ORIENTED_EDGE('',*,*,#417,.F.);
#289=ORIENTED_EDGE('',*,*,#388,.F.);
#290=ORIENTED_EDGE('',*,*,#416,.T.);
#291=ORIENTED_EDGE('',*,*,#377,.F.);
#292=ORIENTED_EDGE('',*,*,#418,.F.);
#293=ORIENTED_EDGE('',*,*,#325,.F.);
#294=ORIENTED_EDGE('',*,*,#417,.T.);
#295=ORIENTED_EDGE('',*,*,#337,.F.);
#296=ORIENTED_EDGE('',*,*,#419,.F.);
#297=ORIENTED_EDGE('',*,*,#389,.F.);
#298=ORIENTED_EDGE('',*,*,#418,.T.);
#299=ORIENTED_EDGE('',*,*,#376,.F.);
#300=ORIENTED_EDGE('',*,*,#420,.F.);
#301=ORIENTED_EDGE('',*,*,#328,.F.);
#302=ORIENTED_EDGE('',*,*,#419,.T.);
#303=ORIENTED_EDGE('',*,*,#334,.F.);
#304=ORIENTED_EDGE('',*,*,#421,.F.);
#305=ORIENTED_EDGE('',*,*,#374,.F.);
#306=ORIENTED_EDGE('',*,*,#420,.T.);
#307=ORIENTED_EDGE('',*,*,#375,.F.);
#308=ORIENTED_EDGE('',*,*,#421,.T.);
#309=ORIENTED_EDGE('',*,*,#331,.F.);
#310=EDGE_CURVE('',#422,#423,#486,.T.);
#311=EDGE_CURVE('',#422,#424,#54,.T.);
#312=EDGE_CURVE('',#424,#425,#487,.T.);
#313=EDGE_CURVE('',#425,#423,#55,.F.);
#314=EDGE_CURVE('',#426,#427,#488,.T.);
#315=EDGE_CURVE('',#426,#422,#489,.T.);
#316=EDGE_CURVE('',#423,#427,#490,.T.);
#317=EDGE_CURVE('',#428,#429,#491,.T.);
#318=EDGE_CURVE('',#428,#426,#56,.F.);
#319=EDGE_CURVE('',#427,#429,#57,.T.);
#320=EDGE_CURVE('',#430,#431,#492,.T.);
#321=EDGE_CURVE('',#430,#428,#493,.T.);
#322=EDGE_CURVE('',#429,#431,#494,.T.);
#323=EDGE_CURVE('',#432,#433,#495,.T.);
#324=EDGE_CURVE('',#432,#430,#58,.T.);
#325=EDGE_CURVE('',#431,#433,#59,.F.);
#326=EDGE_CURVE('',#434,#435,#496,.T.);
#327=EDGE_CURVE('',#434,#432,#497,.T.);
#328=EDGE_CURVE('',#433,#435,#498,.T.);
#329=EDGE_CURVE('',#436,#437,#499,.T.);
#330=EDGE_CURVE('',#436,#434,#60,.F.);
#331=EDGE_CURVE('',#435,#437,#61,.T.);
#332=EDGE_CURVE('',#438,#439,#500,.T.);
#333=EDGE_CURVE('',#438,#436,#501,.T.);
#334=EDGE_CURVE('',#437,#439,#502,.T.);
#335=EDGE_CURVE('',#440,#441,#503,.T.);
#336=EDGE_CURVE('',#440,#438,#62,.T.);
#337=EDGE_CURVE('',#439,#441,#63,.F.);
#338=EDGE_CURVE('',#442,#443,#504,.T.);
#339=EDGE_CURVE('',#442,#440,#505,.T.);
#340=EDGE_CURVE('',#441,#443,#506,.T.);
#341=EDGE_CURVE('',#444,#445,#507,.T.);
#342=EDGE_CURVE('',#444,#442,#64,.F.);
#343=EDGE_CURVE('',#443,#445,#65,.T.);
#344=EDGE_CURVE('',#446,#447,#508,.T.);
#345=EDGE_CURVE('',#446,#444,#509,.T.);
#346=EDGE_CURVE('',#445,#447,#510,.T.);
#347=EDGE_CURVE('',#448,#449,#511,.T.);
#348=EDGE_CURVE('',#448,#446,#66,.T.);
#349=EDGE_CURVE('',#447,#449,#67,.F.);
#350=EDGE_CURVE('',#450,#451,#512,.T.);
#351=EDGE_CURVE('',#450,#448,#513,.T.);
#352=EDGE_CURVE('',#449,#451,#514,.T.);
#353=EDGE_CURVE('',#452,#453,#515,.T.);
#354=EDGE_CURVE('',#452,#450,#68,.F.);
#355=EDGE_CURVE('',#451,#453,#69,.T.);
#356=EDGE_CURVE('',#424,#452,#516,.T.);
#357=EDGE_CURVE('',#453,#425,#517,.T.);
#358=EDGE_CURVE('',#454,#455,#518,.T.);
#359=EDGE_CURVE('',#455,#456,#70,.T.);
#360=EDGE_CURVE('',#456,#457,#519,.T.);
#361=EDGE_CURVE('',#457,#458,#71,.F.);
#362=EDGE_CURVE('',#458,#459,#520,.T.);
#363=EDGE_CURVE('',#459,#460,#72,.T.);
#364=EDGE_CURVE('',#460,#461,#521,.T.);
#365=EDGE_CURVE('',#461,#462,#73,.F.);
#366=EDGE_CURVE('',#462,#463,#522,.T.);
#367=EDGE_CURVE('',#463,#464,#74,.T.);
#368=EDGE_CURVE('',#464,#465,#523,.T.);
#369=EDGE_CURVE('',#465,#466,#75,.F.);
#370=EDGE_CURVE('',#466,#467,#524,.T.);
#371=EDGE_CURVE('',#467,#468,#76,.T.);
#372=EDGE_CURVE('',#468,#469,#525,.T.);
#373=EDGE_CURVE('',#469,#454,#77,.F.);
#374=EDGE_CURVE('',#470,#471,#526,.T.);
#375=EDGE_CURVE('',#471,#472,#78,.F.);
#376=EDGE_CURVE('',#472,#473,#527,.T.);
#377=EDGE_CURVE('',#473,#474,#79,.T.);
#378=EDGE_CURVE('',#474,#475,#528,.T.);
#379=EDGE_CURVE('',#475,#476,#80,.F.);
#380=EDGE_CURVE('',#476,#477,#529,.T.);
#381=EDGE_CURVE('',#477,#478,#81,.T.);
#382=EDGE_CURVE('',#478,#479,#530,.T.);
#383=EDGE_CURVE('',#479,#480,#82,.F.);
#384=EDGE_CURVE('',#480,#481,#531,.T.);
#385=EDGE_CURVE('',#481,#482,#83,.T.);
#386=EDGE_CURVE('',#482,#483,#532,.T.);
#387=EDGE_CURVE('',#483,#484,#84,.F.);
#388=EDGE_CURVE('',#484,#485,#533,.T.);
#389=EDGE_CURVE('',#485,#470,#85,.T.);
#390=EDGE_CURVE('',#450,#463,#534,.T.);
#391=EDGE_CURVE('',#464,#452,#535,.T.);
#392=EDGE_CURVE('',#465,#424,#536,.T.);
#393=EDGE_CURVE('',#448,#462,#537,.T.);
#394=EDGE_CURVE('',#466,#422,#538,.T.);
#395=EDGE_CURVE('',#446,#461,#539,.T.);
#396=EDGE_CURVE('',#467,#426,#540,.T.);
#397=EDGE_CURVE('',#444,#460,#541,.T.);
#398=EDGE_CURVE('',#468,#428,#542,.T.);
#399=EDGE_CURVE('',#442,#459,#543,.T.);
#400=EDGE_CURVE('',#469,#430,#544,.T.);
#401=EDGE_CURVE('',#440,#458,#545,.T.);
#402=EDGE_CURVE('',#454,#432,#546,.T.);
#403=EDGE_CURVE('',#438,#457,#547,.T.);
#404=EDGE_CURVE('',#455,#434,#548,.T.);
#405=EDGE_CURVE('',#436,#456,#549,.T.);
#406=EDGE_CURVE('',#480,#451,#550,.T.);
#407=EDGE_CURVE('',#453,#479,#551,.T.);
#408=EDGE_CURVE('',#425,#478,#552,.T.);
#409=EDGE_CURVE('',#481,#449,#553,.T.);
#410=EDGE_CURVE('',#423,#477,#554,.T.);
#411=EDGE_CURVE('',#482,#447,#555,.T.);
#412=EDGE_CURVE('',#427,#476,#556,.T.);
#413=EDGE_CURVE('',#483,#445,#557,.T.);
#414=EDGE_CURVE('',#429,#475,#558,.T.);
#415=EDGE_CURVE('',#484,#443,#559,.T.);
#416=EDGE_CURVE('',#431,#474,#560,.T.);
#417=EDGE_CURVE('',#485,#441,#561,.T.);
#418=EDGE_CURVE('',#433,#473,#562,.T.);
#419=EDGE_CURVE('',#470,#439,#563,.T.);
#420=EDGE_CURVE('',#435,#472,#564,.T.);
#421=EDGE_CURVE('',#471,#437,#565,.T.);
#422=VERTEX_POINT('',#1148);
#423=VERTEX_POINT('',#1149);
#424=VERTEX_POINT('',#1151);
#425=VERTEX_POINT('',#1153);
#426=VERTEX_POINT('',#1157);
#427=VERTEX_POINT('',#1158);
#428=VERTEX_POINT('',#1163);
#429=VERTEX_POINT('',#1164);
#430=VERTEX_POINT('',#1169);
#431=VERTEX_POINT('',#1170);
#432=VERTEX_POINT('',#1175);
#433=VERTEX_POINT('',#1176);
#434=VERTEX_POINT('',#1181);
#435=VERTEX_POINT('',#1182);
#436=VERTEX_POINT('',#1187);
#437=VERTEX_POINT('',#1188);
#438=VERTEX_POINT('',#1193);
#439=VERTEX_POINT('',#1194);
#440=VERTEX_POINT('',#1199);
#441=VERTEX_POINT('',#1200);
#442=VERTEX_POINT('',#1205);
#443=VERTEX_POINT('',#1206);
#444=VERTEX_POINT('',#1211);
#445=VERTEX_POINT('',#1212);
#446=VERTEX_POINT('',#1217);
#447=VERTEX_POINT('',#1218);
#448=VERTEX_POINT('',#1223);
#449=VERTEX_POINT('',#1224);
#450=VERTEX_POINT('',#1229);
#451=VERTEX_POINT('',#1230);
#452=VERTEX_POINT('',#1235);
#453=VERTEX_POINT('',#1236);
#454=VERTEX_POINT('',#1244);
#455=VERTEX_POINT('',#1245);
#456=VERTEX_POINT('',#1247);
#457=VERTEX_POINT('',#1249);
#458=VERTEX_POINT('',#1251);
#459=VERTEX_POINT('',#1253);
#460=VERTEX_POINT('',#1255);
#461=VERTEX_POINT('',#1257);
#462=VERTEX_POINT('',#1259);
#463=VERTEX_POINT('',#1261);
#464=VERTEX_POINT('',#1263);
#465=VERTEX_POINT('',#1265);
#466=VERTEX_POINT('',#1267);
#467=VERTEX_POINT('',#1269);
#468=VERTEX_POINT('',#1271);
#469=VERTEX_POINT('',#1273);
#470=VERTEX_POINT('',#1277);
#471=VERTEX_POINT('',#1278);
#472=VERTEX_POINT('',#1280);
#473=VERTEX_POINT('',#1282);
#474=VERTEX_POINT('',#1284);
#475=VERTEX_POINT('',#1286);
#476=VERTEX_POINT('',#1288);
#477=VERTEX_POINT('',#1290);
#478=VERTEX_POINT('',#1292);
#479=VERTEX_POINT('',#1294);
#480=VERTEX_POINT('',#1296);
#481=VERTEX_POINT('',#1298);
#482=VERTEX_POINT('',#1300);
#483=VERTEX_POINT('',#1302);
#484=VERTEX_POINT('',#1304);
#485=VERTEX_POINT('',#1306);
#486=LINE('',#1147,#566);
#487=LINE('',#1152,#567);
#488=LINE('',#1156,#568);
#489=LINE('',#1159,#569);
#490=LINE('',#1160,#570);
#491=LINE('',#1162,#571);
#492=LINE('',#1168,#572);
#493=LINE('',#1171,#573);
#494=LINE('',#1172,#574);
#495=LINE('',#1174,#575);
#496=LINE('',#1180,#576);
#497=LINE('',#1183,#577);
#498=LINE('',#1184,#578);
#499=LINE('',#1186,#579);
#500=LINE('',#1192,#580);
#501=LINE('',#1195,#581);
#502=LINE('',#1196,#582);
#503=LINE('',#1198,#583);
#504=LINE('',#1204,#584);
#505=LINE('',#1207,#585);
#506=LINE('',#1208,#586);
#507=LINE('',#1210,#587);
#508=LINE('',#1216,#588);
#509=LINE('',#1219,#589);
#510=LINE('',#1220,#590);
#511=LINE('',#1222,#591);
#512=LINE('',#1228,#592);
#513=LINE('',#1231,#593);
#514=LINE('',#1232,#594);
#515=LINE('',#1234,#595);
#516=LINE('',#1240,#596);
#517=LINE('',#1241,#597);
#518=LINE('',#1243,#598);
#519=LINE('',#1248,#599);
#520=LINE('',#1252,#600);
#521=LINE('',#1256,#601);
#522=LINE('',#1260,#602);
#523=LINE('',#1264,#603);
#524=LINE('',#1268,#604);
#525=LINE('',#1272,#605);
#526=LINE('',#1276,#606);
#527=LINE('',#1281,#607);
#528=LINE('',#1285,#608);
#529=LINE('',#1289,#609);
#530=LINE('',#1293,#610);
#531=LINE('',#1297,#611);
#532=LINE('',#1301,#612);
#533=LINE('',#1305,#613);
#534=LINE('',#1309,#614);
#535=LINE('',#1310,#615);
#536=LINE('',#1312,#616);
#537=LINE('',#1314,#617);
#538=LINE('',#1316,#618);
#539=LINE('',#1318,#619);
#540=LINE('',#1320,#620);
#541=LINE('',#1322,#621);
#542=LINE('',#1324,#622);
#543=LINE('',#1326,#623);
#544=LINE('',#1328,#624);
#545=LINE('',#1330,#625);
#546=LINE('',#1332,#626);
#547=LINE('',#1334,#627);
#548=LINE('',#1336,#628);
#549=LINE('',#1338,#629);
#550=LINE('',#1341,#630);
#551=LINE('',#1342,#631);
#552=LINE('',#1344,#632);
#553=LINE('',#1346,#633);
#554=LINE('',#1348,#634);
#555=LINE('',#1350,#635);
#556=LINE('',#1352,#636);
#557=LINE('',#1354,#637);
#558=LINE('',#1356,#638);
#559=LINE('',#1358,#639);
#560=LINE('',#1360,#640);
#561=LINE('',#1362,#641);
#562=LINE('',#1364,#642);
#563=LINE('',#1366,#643);
#564=LINE('',#1368,#644);
#565=LINE('',#1370,#645);
#566=VECTOR('',#903,1.);
#567=VECTOR('',#906,1.);
#568=VECTOR('',#911,1.);
#569=VECTOR('',#912,1.);
#570=VECTOR('',#913,1.);
#571=VECTOR('',#916,1.);
#572=VECTOR('',#923,1.);
#573=VECTOR('',#924,1.);
#574=VECTOR('',#925,1.);
#575=VECTOR('',#928,1.);
#576=VECTOR('',#935,1.);
#577=VECTOR('',#936,1.);
#578=VECTOR('',#937,1.);
#579=VECTOR('',#940,1.);
#580=VECTOR('',#947,1.);
#581=VECTOR('',#948,1.);
#582=VECTOR('',#949,1.);
#583=VECTOR('',#952,1.);
#584=VECTOR('',#959,1.);
#585=VECTOR('',#960,1.);
#586=VECTOR('',#961,1.);
#587=VECTOR('',#964,1.);
#588=VECTOR('',#971,1.);
#589=VECTOR('',#972,1.);
#590=VECTOR('',#973,1.);
#591=VECTOR('',#976,1.);
#592=VECTOR('',#983,1.);
#593=VECTOR('',#984,1.);
#594=VECTOR('',#985,1.);
#595=VECTOR('',#988,1.);
#596=VECTOR('',#995,1.);
#597=VECTOR('',#996,1.);
#598=VECTOR('',#999,1.);
#599=VECTOR('',#1002,1.);
#600=VECTOR('',#1005,1.);
#601=VECTOR('',#1008,1.);
#602=VECTOR('',#1011,1.);
#603=VECTOR('',#1014,1.);
#604=VECTOR('',#1017,1.);
#605=VECTOR('',#1020,1.);
#606=VECTOR('',#1025,1.);
#607=VECTOR('',#1028,1.);
#608=VECTOR('',#1031,1.);
#609=VECTOR('',#1034,1.);
#610=VECTOR('',#1037,1.);
#611=VECTOR('',#1040,1.);
#612=VECTOR('',#1043,1.);
#613=VECTOR('',#1046,1.);
#614=VECTOR('',#1051,1.);
#615=VECTOR('',#1052,1.);
#616=VECTOR('',#1055,1.);
#617=VECTOR('',#1058,1.);
#618=VECTOR('',#1061,1.);
#619=VECTOR('',#1064,1.);
#620=VECTOR('',#1067,1.);
#621=VECTOR('',#1070,1.);
#622=VECTOR('',#1073,1.);
#623=VECTOR('',#1076,1.);
#624=VECTOR('',#1079,1.);
#625=VECTOR('',#1082,1.);
#626=VECTOR('',#1085,1.);
#627=VECTOR('',#1088,1.);
#628=VECTOR('',#1091,1.);
#629=VECTOR('',#1094,1.);
#630=VECTOR('',#1099,1.);
#631=VECTOR('',#1100,1.);
#632=VECTOR('',#1103,1.);
#633=VECTOR('',#1106,1.);
#634=VECTOR('',#1109,1.);
#635=VECTOR('',#1112,1.);
#636=VECTOR('',#1115,1.);
#637=VECTOR('',#1118,1.);
#638=VECTOR('',#1121,1.);
#639=VECTOR('',#1124,1.);
#640=VECTOR('',#1127,1.);
#641=VECTOR('',#1130,1.);
#642=VECTOR('',#1133,1.);
#643=VECTOR('',#1136,1.);
#644=VECTOR('',#1139,1.);
#645=VECTOR('',#1142,1.);
#646=EDGE_LOOP('',(#86,#87,#88,#89));
#647=EDGE_LOOP('',(#90,#91,#92,#93));
#648=EDGE_LOOP('',(#94,#95,#96,#97));
#649=EDGE_LOOP('',(#98,#99,#100,#101));
#650=EDGE_LOOP('',(#102,#103,#104,#105));
#651=EDGE_LOOP('',(#106,#107,#108,#109));
#652=EDGE_LOOP('',(#110,#111,#112,#113));
#653=EDGE_LOOP('',(#114,#115,#116,#117));
#654=EDGE_LOOP('',(#118,#119,#120,#121));
#655=EDGE_LOOP('',(#122,#123,#124,#125));
#656=EDGE_LOOP('',(#126,#127,#128,#129));
#657=EDGE_LOOP('',(#130,#131,#132,#133));
#658=EDGE_LOOP('',(#134,#135,#136,#137));
#659=EDGE_LOOP('',(#138,#139,#140,#141));
#660=EDGE_LOOP('',(#142,#143,#144,#145));
#661=EDGE_LOOP('',(#146,#147,#148,#149));
#662=EDGE_LOOP('',(#150,#151,#152,#153,#154,#155,#156,#157,#158,#159,#160,
#161,#162,#163,#164,#165));
#663=EDGE_LOOP('',(#166,#167,#168,#169,#170,#171,#172,#173,#174,#175,#176,
#177,#178,#179,#180,#181));
#664=EDGE_LOOP('',(#182,#183,#184,#185));
#665=EDGE_LOOP('',(#186,#187,#188,#189));
#666=EDGE_LOOP('',(#190,#191,#192,#193));
#667=EDGE_LOOP('',(#194,#195,#196,#197));
#668=EDGE_LOOP('',(#198,#199,#200,#201));
#669=EDGE_LOOP('',(#202,#203,#204,#205));
#670=EDGE_LOOP('',(#206,#207,#208,#209));
#671=EDGE_LOOP('',(#210,#211,#212,#213));
#672=EDGE_LOOP('',(#214,#215,#216,#217));
#673=EDGE_LOOP('',(#218,#219,#220,#221));
#674=EDGE_LOOP('',(#222,#223,#224,#225));
#675=EDGE_LOOP('',(#226,#227,#228,#229));
#676=EDGE_LOOP('',(#230,#231,#232,#233));
#677=EDGE_LOOP('',(#234,#235,#236,#237));
#678=EDGE_LOOP('',(#238,#239,#240,#241));
#679=EDGE_LOOP('',(#242,#243,#244,#245));
#680=EDGE_LOOP('',(#246,#247,#248,#249));
#681=EDGE_LOOP('',(#250,#251,#252,#253));
#682=EDGE_LOOP('',(#254,#255,#256,#257));
#683=EDGE_LOOP('',(#258,#259,#260,#261));
#684=EDGE_LOOP('',(#262,#263,#264,#265));
#685=EDGE_LOOP('',(#266,#267,#268,#269));
#686=EDGE_LOOP('',(#270,#271,#272,#273));
#687=EDGE_LOOP('',(#274,#275,#276,#277));
#688=EDGE_LOOP('',(#278,#279,#280,#281));
#689=EDGE_LOOP('',(#282,#283,#284,#285));
#690=EDGE_LOOP('',(#286,#287,#288,#289));
#691=EDGE_LOOP('',(#290,#291,#292,#293));
#692=EDGE_LOOP('',(#294,#295,#296,#297));
#693=EDGE_LOOP('',(#298,#299,#300,#301));
#694=EDGE_LOOP('',(#302,#303,#304,#305));
#695=EDGE_LOOP('',(#306,#307,#308,#309));
#696=FACE_BOUND('',#646,.T.);
#697=FACE_BOUND('',#647,.T.);
#698=FACE_BOUND('',#648,.T.);
#699=FACE_BOUND('',#649,.T.);
#700=FACE_BOUND('',#650,.T.);
#701=FACE_BOUND('',#651,.T.);
#702=FACE_BOUND('',#652,.T.);
#703=FACE_BOUND('',#653,.T.);
#704=FACE_BOUND('',#654,.T.);
#705=FACE_BOUND('',#655,.T.);
#706=FACE_BOUND('',#656,.T.);
#707=FACE_BOUND('',#657,.T.);
#708=FACE_BOUND('',#658,.T.);
#709=FACE_BOUND('',#659,.T.);
#710=FACE_BOUND('',#660,.T.);
#711=FACE_BOUND('',#661,.T.);
#712=FACE_BOUND('',#662,.T.);
#713=FACE_BOUND('',#663,.T.);
#714=FACE_BOUND('',#664,.T.);
#715=FACE_BOUND('',#665,.T.);
#716=FACE_BOUND('',#666,.T.);
#717=FACE_BOUND('',#667,.T.);
#718=FACE_BOUND('',#668,.T.);
#719=FACE_BOUND('',#669,.T.);
#720=FACE_BOUND('',#670,.T.);
#721=FACE_BOUND('',#671,.T.);
#722=FACE_BOUND('',#672,.T.);
#723=FACE_BOUND('',#673,.T.);
#724=FACE_BOUND('',#674,.T.);
#725=FACE_BOUND('',#675,.T.);
#726=FACE_BOUND('',#676,.T.);
#727=FACE_BOUND('',#677,.T.);
#728=FACE_BOUND('',#678,.T.);
#729=FACE_BOUND('',#679,.T.);
#730=FACE_BOUND('',#680,.T.);
#731=FACE_BOUND('',#681,.T.);
#732=FACE_BOUND('',#682,.T.);
#733=FACE_BOUND('',#683,.T.);
#734=FACE_BOUND('',#684,.T.);
#735=FACE_BOUND('',#685,.T.);
#736=FACE_BOUND('',#686,.T.);
#737=FACE_BOUND('',#687,.T.);
#738=FACE_BOUND('',#688,.T.);
#739=FACE_BOUND('',#689,.T.);
#740=FACE_BOUND('',#690,.T.);
#741=FACE_BOUND('',#691,.T.);
#742=FACE_BOUND('',#692,.T.);
#743=FACE_BOUND('',#693,.T.);
#744=FACE_BOUND('',#694,.T.);
#745=FACE_BOUND('',#695,.T.);
#746=CYLINDRICAL_SURFACE('',#817,0.0021);
#747=CYLINDRICAL_SURFACE('',#821,0.002);
#748=CYLINDRICAL_SURFACE('',#825,0.0065);
#749=CYLINDRICAL_SURFACE('',#829,0.002);
#750=CYLINDRICAL_SURFACE('',#833,0.0021);
#751=CYLINDRICAL_SURFACE('',#837,0.002);
#752=CYLINDRICAL_SURFACE('',#841,0.0065);
#753=CYLINDRICAL_SURFACE('',#845,0.002);
#754=ADVANCED_FACE('',(#696),#746,.F.);
#755=ADVANCED_FACE('',(#697),#28,.T.);
#756=ADVANCED_FACE('',(#698),#747,.T.);
#757=ADVANCED_FACE('',(#699),#29,.F.);
#758=ADVANCED_FACE('',(#700),#748,.F.);
#759=ADVANCED_FACE('',(#701),#30,.F.);
#760=ADVANCED_FACE('',(#702),#749,.T.);
#761=ADVANCED_FACE('',(#703),#31,.T.);
#762=ADVANCED_FACE('',(#704),#750,.F.);
#763=ADVANCED_FACE('',(#705),#32,.F.);
#764=ADVANCED_FACE('',(#706),#751,.T.);
#765=ADVANCED_FACE('',(#707),#33,.T.);
#766=ADVANCED_FACE('',(#708),#752,.F.);
#767=ADVANCED_FACE('',(#709),#34,.F.);
#768=ADVANCED_FACE('',(#710),#753,.T.);
#769=ADVANCED_FACE('',(#711),#35,.T.);
#770=ADVANCED_FACE('',(#712),#36,.T.);
#771=ADVANCED_FACE('',(#713),#37,.F.);
#772=ADVANCED_FACE('',(#714),#12,.T.);
#773=ADVANCED_FACE('',(#715),#38,.F.);
#774=ADVANCED_FACE('',(#716),#39,.T.);
#775=ADVANCED_FACE('',(#717),#13,.F.);
#776=ADVANCED_FACE('',(#718),#14,.F.);
#777=ADVANCED_FACE('',(#719),#40,.F.);
#778=ADVANCED_FACE('',(#720),#41,.F.);
#779=ADVANCED_FACE('',(#721),#15,.T.);
#780=ADVANCED_FACE('',(#722),#16,.T.);
#781=ADVANCED_FACE('',(#723),#42,.T.);
#782=ADVANCED_FACE('',(#724),#43,.T.);
#783=ADVANCED_FACE('',(#725),#17,.F.);
#784=ADVANCED_FACE('',(#726),#18,.F.);
#785=ADVANCED_FACE('',(#727),#44,.T.);
#786=ADVANCED_FACE('',(#728),#45,.F.);
#787=ADVANCED_FACE('',(#729),#19,.T.);
#788=ADVANCED_FACE('',(#730),#20,.T.);
#789=ADVANCED_FACE('',(#731),#46,.T.);
#790=ADVANCED_FACE('',(#732),#47,.F.);
#791=ADVANCED_FACE('',(#733),#21,.F.);
#792=ADVANCED_FACE('',(#734),#22,.F.);
#793=ADVANCED_FACE('',(#735),#48,.T.);
#794=ADVANCED_FACE('',(#736),#49,.T.);
#795=ADVANCED_FACE('',(#737),#23,.T.);
#796=ADVANCED_FACE('',(#738),#24,.T.);
#797=ADVANCED_FACE('',(#739),#50,.F.);
#798=ADVANCED_FACE('',(#740),#51,.F.);
#799=ADVANCED_FACE('',(#741),#25,.F.);
#800=ADVANCED_FACE('',(#742),#26,.F.);
#801=ADVANCED_FACE('',(#743),#52,.F.);
#802=ADVANCED_FACE('',(#744),#53,.T.);
#803=ADVANCED_FACE('',(#745),#27,.T.);
#804=CLOSED_SHELL('',(#754,#755,#756,#757,#758,#759,#760,#761,#762,#763,
#764,#765,#766,#767,#768,#769,#770,#771,#772,#773,#774,#775,#776,#777,#778,
#779,#780,#781,#782,#783,#784,#785,#786,#787,#788,#789,#790,#791,#792,#793,
#794,#795,#796,#797,#798,#799,#800,#801,#802,#803));
#805=STYLED_ITEM('',(#806),#813);
#806=PRESENTATION_STYLE_ASSIGNMENT((#807));
#807=SURFACE_STYLE_USAGE(.BOTH.,#808);
#808=SURFACE_SIDE_STYLE('',(#809));
#809=SURFACE_STYLE_FILL_AREA(#810);
#810=FILL_AREA_STYLE('',(#811));
#811=FILL_AREA_STYLE_COLOUR('',#812);
#812=COLOUR_RGB('',0.501960784313726,0.501960784313726,0.501960784313726);
#813=MANIFOLD_SOLID_BREP('Cross',#804);
#814=SHAPE_DEFINITION_REPRESENTATION(#1378,#815);
#815=SHAPE_REPRESENTATION('Cross',(#816),#1373);
#816=AXIS2_PLACEMENT_3D('',#1145,#899,#900);
#817=AXIS2_PLACEMENT_3D('',#1146,#901,#902);
#818=AXIS2_PLACEMENT_3D('',#1150,#904,#905);
#819=AXIS2_PLACEMENT_3D('',#1154,#907,#908);
#820=AXIS2_PLACEMENT_3D('',#1155,#909,#910);
#821=AXIS2_PLACEMENT_3D('',#1161,#914,#915);
#822=AXIS2_PLACEMENT_3D('',#1165,#917,#918);
#823=AXIS2_PLACEMENT_3D('',#1166,#919,#920);
#824=AXIS2_PLACEMENT_3D('',#1167,#921,#922);
#825=AXIS2_PLACEMENT_3D('',#1173,#926,#927);
#826=AXIS2_PLACEMENT_3D('',#1177,#929,#930);
#827=AXIS2_PLACEMENT_3D('',#1178,#931,#932);
#828=AXIS2_PLACEMENT_3D('',#1179,#933,#934);
#829=AXIS2_PLACEMENT_3D('',#1185,#938,#939);
#830=AXIS2_PLACEMENT_3D('',#1189,#941,#942);
#831=AXIS2_PLACEMENT_3D('',#1190,#943,#944);
#832=AXIS2_PLACEMENT_3D('',#1191,#945,#946);
#833=AXIS2_PLACEMENT_3D('',#1197,#950,#951);
#834=AXIS2_PLACEMENT_3D('',#1201,#953,#954);
#835=AXIS2_PLACEMENT_3D('',#1202,#955,#956);
#836=AXIS2_PLACEMENT_3D('',#1203,#957,#958);
#837=AXIS2_PLACEMENT_3D('',#1209,#962,#963);
#838=AXIS2_PLACEMENT_3D('',#1213,#965,#966);
#839=AXIS2_PLACEMENT_3D('',#1214,#967,#968);
#840=AXIS2_PLACEMENT_3D('',#1215,#969,#970);
#841=AXIS2_PLACEMENT_3D('',#1221,#974,#975);
#842=AXIS2_PLACEMENT_3D('',#1225,#977,#978);
#843=AXIS2_PLACEMENT_3D('',#1226,#979,#980);
#844=AXIS2_PLACEMENT_3D('',#1227,#981,#982);
#845=AXIS2_PLACEMENT_3D('',#1233,#986,#987);
#846=AXIS2_PLACEMENT_3D('',#1237,#989,#990);
#847=AXIS2_PLACEMENT_3D('',#1238,#991,#992);
#848=AXIS2_PLACEMENT_3D('',#1239,#993,#994);
#849=AXIS2_PLACEMENT_3D('',#1242,#997,#998);
#850=AXIS2_PLACEMENT_3D('',#1246,#1000,#1001);
#851=AXIS2_PLACEMENT_3D('',#1250,#1003,#1004);
#852=AXIS2_PLACEMENT_3D('',#1254,#1006,#1007);
#853=AXIS2_PLACEMENT_3D('',#1258,#1009,#1010);
#854=AXIS2_PLACEMENT_3D('',#1262,#1012,#1013);
#855=AXIS2_PLACEMENT_3D('',#1266,#1015,#1016);
#856=AXIS2_PLACEMENT_3D('',#1270,#1018,#1019);
#857=AXIS2_PLACEMENT_3D('',#1274,#1021,#1022);
#858=AXIS2_PLACEMENT_3D('',#1275,#1023,#1024);
#859=AXIS2_PLACEMENT_3D('',#1279,#1026,#1027);
#860=AXIS2_PLACEMENT_3D('',#1283,#1029,#1030);
#861=AXIS2_PLACEMENT_3D('',#1287,#1032,#1033);
#862=AXIS2_PLACEMENT_3D('',#1291,#1035,#1036);
#863=AXIS2_PLACEMENT_3D('',#1295,#1038,#1039);
#864=AXIS2_PLACEMENT_3D('',#1299,#1041,#1042);
#865=AXIS2_PLACEMENT_3D('',#1303,#1044,#1045);
#866=AXIS2_PLACEMENT_3D('',#1307,#1047,#1048);
#867=AXIS2_PLACEMENT_3D('',#1308,#1049,#1050);
#868=AXIS2_PLACEMENT_3D('',#1311,#1053,#1054);
#869=AXIS2_PLACEMENT_3D('',#1313,#1056,#1057);
#870=AXIS2_PLACEMENT_3D('',#1315,#1059,#1060);
#871=AXIS2_PLACEMENT_3D('',#1317,#1062,#1063);
#872=AXIS2_PLACEMENT_3D('',#1319,#1065,#1066);
#873=AXIS2_PLACEMENT_3D('',#1321,#1068,#1069);
#874=AXIS2_PLACEMENT_3D('',#1323,#1071,#1072);
#875=AXIS2_PLACEMENT_3D('',#1325,#1074,#1075);
#876=AXIS2_PLACEMENT_3D('',#1327,#1077,#1078);
#877=AXIS2_PLACEMENT_3D('',#1329,#1080,#1081);
#878=AXIS2_PLACEMENT_3D('',#1331,#1083,#1084);
#879=AXIS2_PLACEMENT_3D('',#1333,#1086,#1087);
#880=AXIS2_PLACEMENT_3D('',#1335,#1089,#1090);
#881=AXIS2_PLACEMENT_3D('',#1337,#1092,#1093);
#882=AXIS2_PLACEMENT_3D('',#1339,#1095,#1096);
#883=AXIS2_PLACEMENT_3D('',#1340,#1097,#1098);
#884=AXIS2_PLACEMENT_3D('',#1343,#1101,#1102);
#885=AXIS2_PLACEMENT_3D('',#1345,#1104,#1105);
#886=AXIS2_PLACEMENT_3D('',#1347,#1107,#1108);
#887=AXIS2_PLACEMENT_3D('',#1349,#1110,#1111);
#888=AXIS2_PLACEMENT_3D('',#1351,#1113,#1114);
#889=AXIS2_PLACEMENT_3D('',#1353,#1116,#1117);
#890=AXIS2_PLACEMENT_3D('',#1355,#1119,#1120);
#891=AXIS2_PLACEMENT_3D('',#1357,#1122,#1123);
#892=AXIS2_PLACEMENT_3D('',#1359,#1125,#1126);
#893=AXIS2_PLACEMENT_3D('',#1361,#1128,#1129);
#894=AXIS2_PLACEMENT_3D('',#1363,#1131,#1132);
#895=AXIS2_PLACEMENT_3D('',#1365,#1134,#1135);
#896=AXIS2_PLACEMENT_3D('',#1367,#1137,#1138);
#897=AXIS2_PLACEMENT_3D('',#1369,#1140,#1141);
#898=AXIS2_PLACEMENT_3D('',#1371,#1143,#1144);
#899=DIRECTION('',(0.,0.,1.));
#900=DIRECTION('',(1.,0.,0.));
#901=DIRECTION('',(0.,0.,-1.));
#902=DIRECTION('',(-1.,0.,0.));
#903=DIRECTION('',(0.,0.,-1.));
#904=DIRECTION('',(0.,0.,1.));
#905=DIRECTION('',(1.,0.,0.));
#906=DIRECTION('',(0.,0.,-1.));
#907=DIRECTION('',(0.,0.,1.));
#908=DIRECTION('',(1.,0.,0.));
#909=DIRECTION('',(0.573576436348708,0.819152044290629,0.));
#910=DIRECTION('',(-0.819152044290629,0.573576436348708,0.));
#911=DIRECTION('',(0.,0.,-1.));
#912=DIRECTION('',(0.819152044290629,-0.573576436348708,0.));
#913=DIRECTION('',(-0.819152044290629,0.573576436348708,0.));
#914=DIRECTION('',(0.,0.,-1.));
#915=DIRECTION('',(-1.,0.,0.));
#916=DIRECTION('',(0.,0.,-1.));
#917=DIRECTION('',(0.,0.,1.));
#918=DIRECTION('',(1.,0.,0.));
#919=DIRECTION('',(0.,0.,1.));
#920=DIRECTION('',(1.,0.,0.));
#921=DIRECTION('',(0.573576436348316,0.819152044290904,0.));
#922=DIRECTION('',(-0.819152044290904,0.573576436348316,0.));
#923=DIRECTION('',(0.,0.,-1.));
#924=DIRECTION('',(-0.819152044290904,0.573576436348316,0.));
#925=DIRECTION('',(0.819152044290904,-0.573576436348316,0.));
#926=DIRECTION('',(0.,0.,-1.));
#927=DIRECTION('',(-1.,0.,0.));
#928=DIRECTION('',(0.,0.,-1.));
#929=DIRECTION('',(0.,0.,1.));
#930=DIRECTION('',(1.,0.,0.));
#931=DIRECTION('',(0.,0.,1.));
#932=DIRECTION('',(1.,0.,0.));
#933=DIRECTION('',(0.573576436348315,-0.819152044290904,0.));
#934=DIRECTION('',(0.819152044290904,0.573576436348315,0.));
#935=DIRECTION('',(0.,0.,-1.));
#936=DIRECTION('',(0.819152044290904,0.573576436348315,0.));
#937=DIRECTION('',(-0.819152044290904,-0.573576436348315,0.));
#938=DIRECTION('',(0.,0.,-1.));
#939=DIRECTION('',(-1.,0.,0.));
#940=DIRECTION('',(0.,0.,-1.));
#941=DIRECTION('',(0.,0.,1.));
#942=DIRECTION('',(1.,0.,0.));
#943=DIRECTION('',(0.,0.,1.));
#944=DIRECTION('',(1.,0.,0.));
#945=DIRECTION('',(0.573576436348315,-0.819152044290904,0.));
#946=DIRECTION('',(0.819152044290904,0.573576436348315,0.));
#947=DIRECTION('',(0.,0.,-1.));
#948=DIRECTION('',(-0.819152044290904,-0.573576436348315,0.));
#949=DIRECTION('',(0.819152044290904,0.573576436348315,0.));
#950=DIRECTION('',(0.,0.,-1.));
#951=DIRECTION('',(-1.,0.,0.));
#952=DIRECTION('',(0.,0.,-1.));
#953=DIRECTION('',(0.,0.,1.));
#954=DIRECTION('',(1.,0.,0.));
#955=DIRECTION('',(0.,0.,1.));
#956=DIRECTION('',(1.,0.,0.));
#957=DIRECTION('',(0.573576436348585,0.819152044290715,0.));
#958=DIRECTION('',(-0.819152044290715,0.573576436348585,0.));
#959=DIRECTION('',(0.,0.,-1.));
#960=DIRECTION('',(-0.819152044290715,0.573576436348585,0.));
#961=DIRECTION('',(0.819152044290715,-0.573576436348585,0.));
#962=DIRECTION('',(0.,0.,-1.));
#963=DIRECTION('',(-1.,0.,0.));
#964=DIRECTION('',(0.,0.,-1.));
#965=DIRECTION('',(0.,0.,1.));
#966=DIRECTION('',(1.,0.,0.));
#967=DIRECTION('',(0.,0.,1.));
#968=DIRECTION('',(1.,0.,0.));
#969=DIRECTION('',(0.57357643634626,0.819152044292343,0.));
#970=DIRECTION('',(-0.819152044292343,0.57357643634626,0.));
#971=DIRECTION('',(0.,0.,-1.));
#972=DIRECTION('',(0.819152044292343,-0.57357643634626,0.));
#973=DIRECTION('',(-0.819152044292343,0.57357643634626,0.));
#974=DIRECTION('',(0.,0.,-1.));
#975=DIRECTION('',(-1.,0.,0.));
#976=DIRECTION('',(0.,0.,-1.));
#977=DIRECTION('',(0.,0.,1.));
#978=DIRECTION('',(1.,0.,0.));
#979=DIRECTION('',(0.,0.,1.));
#980=DIRECTION('',(1.,0.,0.));
#981=DIRECTION('',(-0.573576436351047,0.819152044288991,0.));
#982=DIRECTION('',(-0.819152044288992,-0.573576436351047,0.));
#983=DIRECTION('',(0.,0.,-1.));
#984=DIRECTION('',(-0.819152044288992,-0.573576436351047,0.));
#985=DIRECTION('',(0.819152044288992,0.573576436351047,0.));
#986=DIRECTION('',(0.,0.,-1.));
#987=DIRECTION('',(-1.,0.,0.));
#988=DIRECTION('',(0.,0.,-1.));
#989=DIRECTION('',(0.,0.,1.));
#990=DIRECTION('',(1.,0.,0.));
#991=DIRECTION('',(0.,0.,1.));
#992=DIRECTION('',(1.,0.,0.));
#993=DIRECTION('',(-0.57357643634866,0.819152044290663,0.));
#994=DIRECTION('',(-0.819152044290663,-0.57357643634866,0.));
#995=DIRECTION('',(0.819152044290663,0.57357643634866,0.));
#996=DIRECTION('',(-0.819152044290663,-0.57357643634866,0.));
#997=DIRECTION('',(0.,0.,1.));
#998=DIRECTION('',(1.,0.,0.));
#999=DIRECTION('',(-0.819152044290904,-0.573576436348315,0.));
#1000=DIRECTION('',(0.,0.,1.));
#1001=DIRECTION('',(1.,0.,0.));
#1002=DIRECTION('',(0.819152044290904,0.573576436348315,0.));
#1003=DIRECTION('',(0.,0.,1.));
#1004=DIRECTION('',(1.,0.,0.));
#1005=DIRECTION('',(0.819152044290715,-0.573576436348586,0.));
#1006=DIRECTION('',(0.,0.,1.));
#1007=DIRECTION('',(1.,0.,0.));
#1008=DIRECTION('',(-0.819152044292343,0.57357643634626,0.));
#1009=DIRECTION('',(0.,0.,1.));
#1010=DIRECTION('',(1.,0.,0.));
#1011=DIRECTION('',(0.819152044288992,0.573576436351047,0.));
#1012=DIRECTION('',(0.,0.,1.));
#1013=DIRECTION('',(1.,0.,0.));
#1014=DIRECTION('',(-0.819152044290663,-0.57357643634866,0.));
#1015=DIRECTION('',(0.,0.,1.));
#1016=DIRECTION('',(1.,0.,0.));
#1017=DIRECTION('',(-0.819152044290629,0.573576436348708,0.));
#1018=DIRECTION('',(0.,0.,1.));
#1019=DIRECTION('',(1.,0.,0.));
#1020=DIRECTION('',(0.819152044290904,-0.573576436348316,0.));
#1021=DIRECTION('',(0.,0.,1.));
#1022=DIRECTION('',(1.,0.,0.));
#1023=DIRECTION('',(0.,0.,1.));
#1024=DIRECTION('',(1.,0.,0.));
#1025=DIRECTION('',(-0.819152044290904,-0.573576436348315,0.));
#1026=DIRECTION('',(0.,0.,1.));
#1027=DIRECTION('',(1.,0.,0.));
#1028=DIRECTION('',(0.819152044290904,0.573576436348315,0.));
#1029=DIRECTION('',(0.,0.,1.));
#1030=DIRECTION('',(1.,0.,0.));
#1031=DIRECTION('',(-0.819152044290904,0.573576436348316,0.));
#1032=DIRECTION('',(0.,0.,1.));
#1033=DIRECTION('',(1.,0.,0.));
#1034=DIRECTION('',(0.819152044290629,-0.573576436348708,0.));
#1035=DIRECTION('',(0.,0.,1.));
#1036=DIRECTION('',(1.,0.,0.));
#1037=DIRECTION('',(0.819152044290663,0.57357643634866,0.));
#1038=DIRECTION('',(0.,0.,1.));
#1039=DIRECTION('',(1.,0.,0.));
#1040=DIRECTION('',(-0.819152044288992,-0.573576436351047,0.));
#1041=DIRECTION('',(0.,0.,1.));
#1042=DIRECTION('',(1.,0.,0.));
#1043=DIRECTION('',(0.819152044292343,-0.57357643634626,0.));
#1044=DIRECTION('',(0.,0.,1.));
#1045=DIRECTION('',(1.,0.,0.));
#1046=DIRECTION('',(-0.819152044290715,0.573576436348586,0.));
#1047=DIRECTION('',(0.,0.,1.));
#1048=DIRECTION('',(1.,0.,0.));
#1049=DIRECTION('',(0.,0.,-1.));
#1050=DIRECTION('',(-1.,0.,0.));
#1051=DIRECTION('',(-0.405579787672639,0.579227965339569,0.707106781186548));
#1052=DIRECTION('',(-0.405579787671796,0.579227965340159,-0.707106781186548));
#1053=DIRECTION('',(0.405579787670952,-0.579227965340751,-0.707106781186547));
#1054=DIRECTION('',(0.819152044290663,0.57357643634866,0.));
#1055=DIRECTION('',(-0.405579787670951,0.57922796534075,-0.707106781186548));
#1056=DIRECTION('',(0.40557978767264,-0.57922796533957,0.707106781186547));
#1057=DIRECTION('',(-0.819152044288992,-0.573576436351047,0.));
#1058=DIRECTION('',(-0.405579787672639,0.579227965339569,0.707106781186548));
#1059=DIRECTION('',(0.,0.,1.));
#1060=DIRECTION('',(1.,0.,0.));
#1061=DIRECTION('',(0.405579787670991,0.579227965340723,-0.707106781186548));
#1062=DIRECTION('',(0.,0.,1.));
#1063=DIRECTION('',(1.,0.,0.));
#1064=DIRECTION('',(-0.405579787669254,-0.579227965341939,0.707106781186548));
#1065=DIRECTION('',(-0.405579787670986,-0.579227965340727,-0.707106781186548));
#1066=DIRECTION('',(0.819152044290629,-0.573576436348708,0.));
#1067=DIRECTION('',(0.405579787670986,0.579227965340726,-0.707106781186549));
#1068=DIRECTION('',(-0.405579787669255,-0.579227965341939,-0.707106781186548));
#1069=DIRECTION('',(0.819152044292343,-0.57357643634626,0.));
#1070=DIRECTION('',(-0.405579787670077,-0.579227965341364,0.707106781186547));
#1071=DIRECTION('',(0.,0.,-1.));
#1072=DIRECTION('',(-1.,0.,0.));
#1073=DIRECTION('',(-0.405579787670847,-0.579227965340824,-0.707106781186548));
#1074=DIRECTION('',(0.,0.,-1.));
#1075=DIRECTION('',(-1.,0.,0.));
#1076=DIRECTION('',(0.405579787670899,0.579227965340787,0.707106781186548));
#1077=DIRECTION('',(-0.405579787670709,-0.579227965340922,0.707106781186547));
#1078=DIRECTION('',(-0.819152044290904,0.573576436348316,0.));
#1079=DIRECTION('',(-0.405579787670707,-0.579227965340921,-0.707106781186548));
#1080=DIRECTION('',(-0.4055797876709,-0.579227965340788,0.707106781186547));
#1081=DIRECTION('',(-0.819152044290715,0.573576436348585,0.));
#1082=DIRECTION('',(0.4055797876709,0.579227965340787,0.707106781186548));
#1083=DIRECTION('',(0.,0.,1.));
#1084=DIRECTION('',(1.,0.,0.));
#1085=DIRECTION('',(-0.405579787670709,0.579227965340921,-0.707106781186547));
#1086=DIRECTION('',(0.,0.,1.));
#1087=DIRECTION('',(1.,0.,0.));
#1088=DIRECTION('',(-0.405579787670708,0.579227965340921,0.707106781186548));
#1089=DIRECTION('',(-0.405579787670709,0.579227965340922,0.707106781186547));
#1090=DIRECTION('',(0.819152044290904,0.573576436348315,0.));
#1091=DIRECTION('',(-0.405579787670707,0.57922796534092,-0.707106781186549));
#1092=DIRECTION('',(-0.405579787670709,0.579227965340922,-0.707106781186546));
#1093=DIRECTION('',(-0.819152044290904,-0.573576436348315,0.));
#1094=DIRECTION('',(-0.405579787670707,0.57922796534092,0.707106781186549));
#1095=DIRECTION('',(0.,0.,-1.));
#1096=DIRECTION('',(-1.,0.,0.));
#1097=DIRECTION('',(0.,0.,1.));
#1098=DIRECTION('',(1.,0.,0.));
#1099=DIRECTION('',(0.40557978767264,-0.579227965339568,0.707106781186548));
#1100=DIRECTION('',(0.405579787671796,-0.579227965340159,-0.707106781186548));
#1101=DIRECTION('',(-0.405579787670952,0.579227965340751,-0.707106781186548));
#1102=DIRECTION('',(-0.819152044290663,-0.57357643634866,0.));
#1103=DIRECTION('',(0.405579787670952,-0.579227965340751,-0.707106781186548));
#1104=DIRECTION('',(-0.40557978767264,0.57922796533957,0.707106781186547));
#1105=DIRECTION('',(0.819152044288992,0.573576436351047,0.));
#1106=DIRECTION('',(0.405579787672639,-0.579227965339568,0.707106781186549));
#1107=DIRECTION('',(0.,0.,-1.));
#1108=DIRECTION('',(-1.,0.,0.));
#1109=DIRECTION('',(-0.405579787670991,-0.579227965340722,-0.707106781186549));
#1110=DIRECTION('',(0.,0.,-1.));
#1111=DIRECTION('',(-1.,0.,0.));
#1112=DIRECTION('',(0.405579787669254,0.579227965341939,0.707106781186548));
#1113=DIRECTION('',(0.405579787670986,0.579227965340727,-0.707106781186548));
#1114=DIRECTION('',(-0.819152044290629,0.573576436348708,0.));
#1115=DIRECTION('',(-0.405579787670988,-0.579227965340726,-0.707106781186547));
#1116=DIRECTION('',(0.405579787669255,0.579227965341939,-0.707106781186548));
#1117=DIRECTION('',(-0.819152044292343,0.57357643634626,0.));
#1118=DIRECTION('',(0.405579787670078,0.579227965341363,0.707106781186548));
#1119=DIRECTION('',(0.,0.,1.));
#1120=DIRECTION('',(1.,0.,0.));
#1121=DIRECTION('',(0.405579787670847,0.579227965340824,-0.707106781186548));
#1122=DIRECTION('',(0.,0.,1.));
#1123=DIRECTION('',(1.,0.,0.));
#1124=DIRECTION('',(-0.405579787670899,-0.579227965340787,0.707106781186548));
#1125=DIRECTION('',(0.405579787670709,0.579227965340922,0.707106781186547));
#1126=DIRECTION('',(0.819152044290904,-0.573576436348316,0.));
#1127=DIRECTION('',(0.405579787670708,0.579227965340921,-0.707106781186548));
#1128=DIRECTION('',(0.4055797876709,0.579227965340788,0.707106781186547));
#1129=DIRECTION('',(0.819152044290715,-0.573576436348585,0.));
#1130=DIRECTION('',(-0.405579787670899,-0.579227965340786,0.707106781186549));
#1131=DIRECTION('',(0.,0.,-1.));
#1132=DIRECTION('',(-1.,0.,0.));
#1133=DIRECTION('',(0.405579787670708,-0.579227965340922,-0.707106781186548));
#1134=DIRECTION('',(0.,0.,-1.));
#1135=DIRECTION('',(-1.,0.,0.));
#1136=DIRECTION('',(0.405579787670708,-0.579227965340921,0.707106781186548));
#1137=DIRECTION('',(0.405579787670709,-0.579227965340922,0.707106781186547));
#1138=DIRECTION('',(-0.819152044290904,-0.573576436348315,0.));
#1139=DIRECTION('',(0.405579787670707,-0.579227965340921,-0.707106781186549));
#1140=DIRECTION('',(0.405579787670708,-0.579227965340921,-0.707106781186548));
#1141=DIRECTION('',(0.819152044290904,0.573576436348315,0.));
#1142=DIRECTION('',(0.405579787670707,-0.579227965340921,0.707106781186548));
#1143=DIRECTION('',(0.,0.,1.));
#1144=DIRECTION('',(1.,0.,0.));
#1145=CARTESIAN_POINT('',(0.,0.,0.));
#1146=CARTESIAN_POINT('',(-8.65627476121328E-20,0.0086,0.004));
#1147=CARTESIAN_POINT('',(-0.00120451051633211,0.00687978070698998,0.004));
#1148=CARTESIAN_POINT('',(-0.00120451051633211,0.00687978070698998,0.0035));
#1149=CARTESIAN_POINT('',(-0.00120451051633211,0.00687978070698998,0.0005));
#1150=CARTESIAN_POINT('',(-8.65627476121328E-20,0.0086,0.0035));
#1151=CARTESIAN_POINT('',(0.00120451051633178,0.00687978070699025,0.0035));
#1152=CARTESIAN_POINT('',(0.00120451051633178,0.00687978070699025,0.004));
#1153=CARTESIAN_POINT('',(0.00120451051633178,0.00687978070699025,0.0005));
#1154=CARTESIAN_POINT('',(-8.65627476121328E-20,0.0086,0.0005));
#1155=CARTESIAN_POINT('',(-0.0027786788218175,0.00798202522089497,0.004));
#1156=CARTESIAN_POINT('',(-0.00435284712730288,0.00908426973479997,0.004));
#1157=CARTESIAN_POINT('',(-0.00435284712730288,0.00908426973479997,0.0035));
#1158=CARTESIAN_POINT('',(-0.00435284712730288,0.00908426973479997,0.0005));
#1159=CARTESIAN_POINT('',(-0.0027786788218175,0.00798202522089497,0.0035));
#1160=CARTESIAN_POINT('',(-0.0043528471273029,0.00908426973479995,0.0005));
#1161=CARTESIAN_POINT('',(-0.0054999999999999,0.00744596564621844,0.004));
#1162=CARTESIAN_POINT('',(-0.00664715287269693,0.0058076615576369,0.004));
#1163=CARTESIAN_POINT('',(-0.00664715287269693,0.0058076615576369,0.0035));
#1164=CARTESIAN_POINT('',(-0.00664715287269693,0.0058076615576369,0.0005));
#1165=CARTESIAN_POINT('',(-0.0054999999999999,0.00744596564621844,0.0035));
#1166=CARTESIAN_POINT('',(-0.0054999999999999,0.00744596564621844,0.0005));
#1167=CARTESIAN_POINT('',(-0.00630213140164438,0.00556607492276342,0.004));
#1168=CARTESIAN_POINT('',(-0.00595710993059118,0.00532448828789089,0.004));
#1169=CARTESIAN_POINT('',(-0.00595710993059118,0.00532448828789089,0.0035));
#1170=CARTESIAN_POINT('',(-0.00595710993059118,0.00532448828789089,0.0005));
#1171=CARTESIAN_POINT('',(-0.00664715287269693,0.0058076615576369,0.0035));
#1172=CARTESIAN_POINT('',(-0.00630213140164438,0.00556607492276342,0.0005));
#1173=CARTESIAN_POINT('',(-0.00968535676685523,0.,0.004));
#1174=CARTESIAN_POINT('',(-0.00595710993059184,-0.00532448828788994,0.004));
#1175=CARTESIAN_POINT('',(-0.00595710993059184,-0.00532448828788994,0.0035));
#1176=CARTESIAN_POINT('',(-0.00595710993059184,-0.00532448828788994,0.0005));
#1177=CARTESIAN_POINT('',(-0.00968535676685523,0.,0.0035));
#1178=CARTESIAN_POINT('',(-0.00968535676685523,0.,0.0005));
#1179=CARTESIAN_POINT('',(-0.00630213140164406,-0.0055660749227632,0.004));
#1180=CARTESIAN_POINT('',(-0.00664715287269693,-0.00580766155763552,0.004));
#1181=CARTESIAN_POINT('',(-0.00664715287269693,-0.00580766155763552,0.0035));
#1182=CARTESIAN_POINT('',(-0.00664715287269693,-0.00580766155763552,0.0005));
#1183=CARTESIAN_POINT('',(-0.00595710993059184,-0.00532448828788994,0.0035));
#1184=CARTESIAN_POINT('',(-0.00630213140164406,-0.0055660749227632,0.0005));
#1185=CARTESIAN_POINT('',(-0.0055000000000003,-0.00744596564621733,0.004));
#1186=CARTESIAN_POINT('',(-0.00435284712730366,-0.00908426973479914,0.004));
#1187=CARTESIAN_POINT('',(-0.00435284712730366,-0.00908426973479914,0.0035));
#1188=CARTESIAN_POINT('',(-0.00435284712730366,-0.00908426973479914,0.0005));
#1189=CARTESIAN_POINT('',(-0.0055000000000003,-0.00744596564621733,0.0035));
#1190=CARTESIAN_POINT('',(-0.0055000000000003,-0.00744596564621733,0.0005));
#1191=CARTESIAN_POINT('',(-0.00277867882181788,-0.00798202522089364,0.004));
#1192=CARTESIAN_POINT('',(-0.00120451051633146,-0.00687978070698906,0.004));
#1193=CARTESIAN_POINT('',(-0.00120451051633146,-0.00687978070698906,0.0035));
#1194=CARTESIAN_POINT('',(-0.00120451051633146,-0.00687978070698906,0.0005));
#1195=CARTESIAN_POINT('',(-0.00277867882181788,-0.00798202522089364,0.0035));
#1196=CARTESIAN_POINT('',(-0.00120451051633146,-0.00687978070698906,0.0005));
#1197=CARTESIAN_POINT('',(-3.25260651745652E-19,-0.0086,0.004));
#1198=CARTESIAN_POINT('',(0.00120451051633203,-0.00687978070698949,0.004));
#1199=CARTESIAN_POINT('',(0.00120451051633203,-0.00687978070698949,0.0035));
#1200=CARTESIAN_POINT('',(0.00120451051633203,-0.00687978070698949,0.0005));
#1201=CARTESIAN_POINT('',(-3.25260651745652E-19,-0.0086,0.0035));
#1202=CARTESIAN_POINT('',(-3.25260651745652E-19,-0.0086,0.0005));
#1203=CARTESIAN_POINT('',(0.00277867882181743,-0.00798202522089413,0.004));
#1204=CARTESIAN_POINT('',(0.00435284712730283,-0.00908426973479876,0.004));
#1205=CARTESIAN_POINT('',(0.00435284712730283,-0.00908426973479876,0.0035));
#1206=CARTESIAN_POINT('',(0.00435284712730283,-0.00908426973479876,0.0005));
#1207=CARTESIAN_POINT('',(0.00120451051633203,-0.00687978070698949,0.0035));
#1208=CARTESIAN_POINT('',(0.00277867882181743,-0.00798202522089413,0.0005));
#1209=CARTESIAN_POINT('',(0.00549999999999767,-0.0074459656462157,0.004));
#1210=CARTESIAN_POINT('',(0.00664715287269252,-0.00580766155763264,0.004));
#1211=CARTESIAN_POINT('',(0.00664715287269252,-0.00580766155763264,0.0035));
#1212=CARTESIAN_POINT('',(0.00664715287269252,-0.00580766155763264,0.0005));
#1213=CARTESIAN_POINT('',(0.00549999999999767,-0.0074459656462157,0.0035));
#1214=CARTESIAN_POINT('',(0.00549999999999767,-0.0074459656462157,0.0005));
#1215=CARTESIAN_POINT('',(0.00630213140164854,-0.00556607492276644,0.004));
#1216=CARTESIAN_POINT('',(0.00595710993060454,-0.00532448828790024,0.004));
#1217=CARTESIAN_POINT('',(0.00595710993060454,-0.00532448828790024,0.0035));
#1218=CARTESIAN_POINT('',(0.00595710993060454,-0.00532448828790024,0.0005));
#1219=CARTESIAN_POINT('',(0.00630213140164854,-0.00556607492276644,0.0035));
#1220=CARTESIAN_POINT('',(0.00595710993060454,-0.00532448828790024,0.0005));
#1221=CARTESIAN_POINT('',(0.00968535676685523,1.13691557274649E-19,0.004));
#1222=CARTESIAN_POINT('',(0.00595710993057343,0.00532448828787845,0.004));
#1223=CARTESIAN_POINT('',(0.00595710993057343,0.00532448828787845,0.0035));
#1224=CARTESIAN_POINT('',(0.00595710993057343,0.00532448828787845,0.0005));
#1225=CARTESIAN_POINT('',(0.00968535676685523,1.13691557274649E-19,0.0035));
#1226=CARTESIAN_POINT('',(0.00968535676685523,1.13691557274649E-19,0.0005));
#1227=CARTESIAN_POINT('',(0.00630213140163778,0.00556607492275956,0.004));
#1228=CARTESIAN_POINT('',(0.00664715287270103,0.00580766155764225,0.004));
#1229=CARTESIAN_POINT('',(0.00664715287270103,0.00580766155764225,0.0035));
#1230=CARTESIAN_POINT('',(0.00664715287270103,0.00580766155764225,0.0005));
#1231=CARTESIAN_POINT('',(0.00595710993057453,0.00532448828787687,0.0035));
#1232=CARTESIAN_POINT('',(0.00630213140163778,0.00556607492275956,0.0005));
#1233=CARTESIAN_POINT('',(0.00550000000000239,0.00744596564622038,0.004));
#1234=CARTESIAN_POINT('',(0.00435284712730268,0.00908426973480004,0.004));
#1235=CARTESIAN_POINT('',(0.00435284712730268,0.00908426973480004,0.0035));
#1236=CARTESIAN_POINT('',(0.00435284712730268,0.00908426973480004,0.0005));
#1237=CARTESIAN_POINT('',(0.00550000000000239,0.00744596564622038,0.0035));
#1238=CARTESIAN_POINT('',(0.00550000000000239,0.00744596564622038,0.0005));
#1239=CARTESIAN_POINT('',(0.00277867882181724,0.00798202522089514,0.004));
#1240=CARTESIAN_POINT('',(0.00277867882181724,0.00798202522089514,0.0035));
#1241=CARTESIAN_POINT('',(0.00120451051633178,0.00687978070699025,0.0005));
#1242=CARTESIAN_POINT('',(5.55111512312578E-17,-1.38777878078145E-17,0.004));
#1243=CARTESIAN_POINT('',(-0.00636036465452212,-0.0062172375797819,0.004));
#1244=CARTESIAN_POINT('',(-0.00567032171241768,-0.0057340643100354,0.004));
#1245=CARTESIAN_POINT('',(-0.00636036465452212,-0.0062172375797819,0.004));
#1246=CARTESIAN_POINT('',(-0.0055000000000003,-0.00744596564621733,0.004));
#1247=CARTESIAN_POINT('',(-0.00463963534547847,-0.00867469371265276,0.004));
#1248=CARTESIAN_POINT('',(0.00254937953486399,-0.00364089130117091,0.004));
#1249=CARTESIAN_POINT('',(-0.0014912987345056,-0.00647020468484363,0.004));
#1250=CARTESIAN_POINT('',(-3.25260651745652E-19,-0.0086,0.004));
#1251=CARTESIAN_POINT('',(0.00149129873450632,-0.00647020468484414,0.004));
#1252=CARTESIAN_POINT('',(0.00463963534547712,-0.0086746937126534,0.004));
#1253=CARTESIAN_POINT('',(0.00463963534547712,-0.00867469371265341,0.004));
#1254=CARTESIAN_POINT('',(0.00549999999999767,-0.0074459656462157,0.004));
#1255=CARTESIAN_POINT('',(0.00636036465451881,-0.00621723757977841,0.004));
#1256=CARTESIAN_POINT('',(-0.000828650225829373,-0.00118343516831943,0.004));
#1257=CARTESIAN_POINT('',(0.00567032171243141,-0.00573406431004641,0.004));
#1258=CARTESIAN_POINT('',(0.00968535676685523,1.13691557274649E-19,0.004));
#1259=CARTESIAN_POINT('',(0.00567032171239901,0.00573406431002137,0.004));
#1260=CARTESIAN_POINT('',(0.0063603646545255,0.00621723757978675,0.004));
#1261=CARTESIAN_POINT('',(0.00636036465452657,0.00621723757978522,0.004));
#1262=CARTESIAN_POINT('',(0.00550000000000239,0.00744596564622038,0.004));
#1263=CARTESIAN_POINT('',(0.00463963534547761,0.00867469371265511,0.004));
#1264=CARTESIAN_POINT('',(-0.00254937953486473,0.00364089130116884,0.004));
#1265=CARTESIAN_POINT('',(0.00149129873450654,0.0064702046848443,0.004));
#1266=CARTESIAN_POINT('',(-8.65627476121328E-20,0.0086,0.004));
#1267=CARTESIAN_POINT('',(-0.00149129873450646,0.00647020468484467,0.004));
#1268=CARTESIAN_POINT('',(0.00254937953486461,0.00364089130116807,0.004));
#1269=CARTESIAN_POINT('',(-0.00463963534547723,0.00867469371265466,0.004));
#1270=CARTESIAN_POINT('',(-0.0054999999999999,0.00744596564621844,0.004));
#1271=CARTESIAN_POINT('',(-0.00636036465452267,0.00621723757978229,0.004));
#1272=CARTESIAN_POINT('',(-0.00567032171241768,0.0057340643100354,0.004));
#1273=CARTESIAN_POINT('',(-0.00567032171241702,0.00573406431003634,0.004));
#1274=CARTESIAN_POINT('',(-0.00968535676685523,0.,0.004));
#1275=CARTESIAN_POINT('',(5.55111512312578E-17,-1.38777878078145E-17,0.));
#1276=CARTESIAN_POINT('',(-0.00463963534547847,-0.00867469371265276,0.));
#1277=CARTESIAN_POINT('',(-0.0014912987345056,-0.00647020468484363,0.));
#1278=CARTESIAN_POINT('',(-0.00463963534547847,-0.00867469371265276,0.));
#1279=CARTESIAN_POINT('',(-0.0055000000000003,-0.00744596564621733,0.));
#1280=CARTESIAN_POINT('',(-0.00636036465452212,-0.0062172375797819,0.));
#1281=CARTESIAN_POINT('',(0.000828650225820341,-0.00118343516830006,0.));
#1282=CARTESIAN_POINT('',(-0.00567032171241768,-0.0057340643100354,0.));
#1283=CARTESIAN_POINT('',(-0.00968535676685523,0.,0.));
#1284=CARTESIAN_POINT('',(-0.00567032171241702,0.00573406431003634,0.));
#1285=CARTESIAN_POINT('',(0.000828650225820352,0.00118343516830004,0.));
#1286=CARTESIAN_POINT('',(-0.00636036465452267,0.00621723757978229,0.));
#1287=CARTESIAN_POINT('',(-0.0054999999999999,0.00744596564621844,0.));
#1288=CARTESIAN_POINT('',(-0.00463963534547723,0.00867469371265466,0.));
#1289=CARTESIAN_POINT('',(-0.00149129873450646,0.00647020468484467,0.));
#1290=CARTESIAN_POINT('',(-0.00149129873450646,0.00647020468484467,0.));
#1291=CARTESIAN_POINT('',(-8.65627476121328E-20,0.0086,0.));
#1292=CARTESIAN_POINT('',(0.00149129873450654,0.0064702046848443,0.));
#1293=CARTESIAN_POINT('',(0.00463963534547702,0.00867469371265469,0.));
#1294=CARTESIAN_POINT('',(0.00463963534547761,0.00867469371265511,0.));
#1295=CARTESIAN_POINT('',(0.00550000000000239,0.00744596564622038,0.));
#1296=CARTESIAN_POINT('',(0.00636036465452657,0.00621723757978522,0.));
#1297=CARTESIAN_POINT('',(-0.000828650225808602,0.00118343516827502,0.));
#1298=CARTESIAN_POINT('',(0.00567032171239901,0.00573406431002137,0.));
#1299=CARTESIAN_POINT('',(0.00968535676685523,1.13691557274649E-19,0.));
#1300=CARTESIAN_POINT('',(0.00567032171243141,-0.00573406431004641,0.));
#1301=CARTESIAN_POINT('',(0.00636036465451939,-0.00621723757977881,0.));
#1302=CARTESIAN_POINT('',(0.00636036465451881,-0.00621723757977841,0.));
#1303=CARTESIAN_POINT('',(0.00549999999999767,-0.0074459656462157,0.));
#1304=CARTESIAN_POINT('',(0.00463963534547712,-0.00867469371265341,0.));
#1305=CARTESIAN_POINT('',(-0.0025493795348642,-0.00364089130116882,0.));
#1306=CARTESIAN_POINT('',(0.00149129873450632,-0.00647020468484414,0.));
#1307=CARTESIAN_POINT('',(-3.25260651745652E-19,-0.0086,0.));
#1308=CARTESIAN_POINT('',(0.00550000000000239,0.00744596564622038,0.0035));
#1309=CARTESIAN_POINT('',(0.0066471528727021,0.00580766155764073,0.0035));
#1310=CARTESIAN_POINT('',(0.0046396353454776,0.00867469371265513,0.004));
#1311=CARTESIAN_POINT('',(0.00277867882181724,0.00798202522089514,0.0035));
#1312=CARTESIAN_POINT('',(0.00149129873450611,0.00647020468484492,0.004));
#1313=CARTESIAN_POINT('',(-0.000828650225808603,0.00118343516827502,0.004));
#1314=CARTESIAN_POINT('',(0.00595710993057453,0.00532448828787687,0.0035));
#1315=CARTESIAN_POINT('',(-8.65627476121328E-20,0.0086,0.0035));
#1316=CARTESIAN_POINT('',(-0.00149129873450666,0.00647020468484439,0.004));
#1317=CARTESIAN_POINT('',(0.00968535676685523,1.13691557274649E-19,0.0035));
#1318=CARTESIAN_POINT('',(0.00595710993060454,-0.00532448828790024,0.0035));
#1319=CARTESIAN_POINT('',(-0.0027786788218175,0.00798202522089497,0.0035));
#1320=CARTESIAN_POINT('',(-0.00463963534547725,0.00867469371265463,0.004));
#1321=CARTESIAN_POINT('',(0.00630213140164854,-0.00556607492276644,0.0035));
#1322=CARTESIAN_POINT('',(0.00664715287269252,-0.00580766155763264,0.0035));
#1323=CARTESIAN_POINT('',(-0.0054999999999999,0.00744596564621844,0.0035));
#1324=CARTESIAN_POINT('',(-0.00636036465452267,0.00621723757978228,0.004));
#1325=CARTESIAN_POINT('',(0.00549999999999767,-0.0074459656462157,0.0035));
#1326=CARTESIAN_POINT('',(0.00435284712730283,-0.00908426973479876,0.0035));
#1327=CARTESIAN_POINT('',(0.000828650225820352,0.00118343516830004,0.004));
#1328=CARTESIAN_POINT('',(-0.00567032171241768,0.0057340643100354,0.004));
#1329=CARTESIAN_POINT('',(-0.0025493795348642,-0.00364089130116882,0.004));
#1330=CARTESIAN_POINT('',(0.00120451051633203,-0.00687978070698949,0.0035));
#1331=CARTESIAN_POINT('',(-0.00968535676685523,0.,0.0035));
#1332=CARTESIAN_POINT('',(-0.00567032171241702,-0.00573406431003634,0.004));
#1333=CARTESIAN_POINT('',(-3.25260651745652E-19,-0.0086,0.0035));
#1334=CARTESIAN_POINT('',(-0.00120451051633144,-0.00687978070698908,0.0035));
#1335=CARTESIAN_POINT('',(0.000828650225820341,-0.00118343516830006,0.004));
#1336=CARTESIAN_POINT('',(-0.00636036465452212,-0.0062172375797819,0.004));
#1337=CARTESIAN_POINT('',(-0.00277867882181788,-0.00798202522089364,0.0035));
#1338=CARTESIAN_POINT('',(-0.00435284712730431,-0.00908426973479821,0.0035));
#1339=CARTESIAN_POINT('',(-0.0055000000000003,-0.00744596564621733,0.004));
#1340=CARTESIAN_POINT('',(0.00550000000000239,0.00744596564622038,0.));
#1341=CARTESIAN_POINT('',(0.00636036465452657,0.00621723757978522,0.));
#1342=CARTESIAN_POINT('',(0.00435284712730268,0.00908426973480004,0.0005));
#1343=CARTESIAN_POINT('',(-0.00254937953486473,0.00364089130116884,0.));
#1344=CARTESIAN_POINT('',(0.00120451051633178,0.00687978070699025,0.0005));
#1345=CARTESIAN_POINT('',(0.00630213140163778,0.00556607492275956,0.0005));
#1346=CARTESIAN_POINT('',(0.00567032171239901,0.00573406431002137,0.));
#1347=CARTESIAN_POINT('',(-8.65627476121328E-20,0.0086,0.));
#1348=CARTESIAN_POINT('',(-0.00120451051633231,0.0068797807069897,0.0005));
#1349=CARTESIAN_POINT('',(0.00968535676685523,1.13691557274649E-19,0.));
#1350=CARTESIAN_POINT('',(0.00567032171243141,-0.00573406431004641,0.));
#1351=CARTESIAN_POINT('',(0.00254937953486461,0.00364089130116807,0.));
#1352=CARTESIAN_POINT('',(-0.0043528471273029,0.00908426973479995,0.0005));
#1353=CARTESIAN_POINT('',(-0.000828650225829373,-0.00118343516831943,0.));
#1354=CARTESIAN_POINT('',(0.00636036465451881,-0.00621723757977841,0.));
#1355=CARTESIAN_POINT('',(-0.0054999999999999,0.00744596564621844,0.));
#1356=CARTESIAN_POINT('',(-0.00664715287269693,0.0058076615576369,0.0005));
#1357=CARTESIAN_POINT('',(0.00549999999999767,-0.0074459656462157,0.));
#1358=CARTESIAN_POINT('',(0.00463963534547712,-0.00867469371265341,0.));
#1359=CARTESIAN_POINT('',(-0.00630213140164438,0.00556607492276342,0.0005));
#1360=CARTESIAN_POINT('',(-0.00595710993059184,0.00532448828788994,0.0005));
#1361=CARTESIAN_POINT('',(0.00277867882181743,-0.00798202522089413,0.0005));
#1362=CARTESIAN_POINT('',(0.00149129873450632,-0.00647020468484414,0.));
#1363=CARTESIAN_POINT('',(-0.00968535676685523,0.,0.));
#1364=CARTESIAN_POINT('',(-0.00595710993059118,-0.00532448828789088,0.0005));
#1365=CARTESIAN_POINT('',(-3.25260651745652E-19,-0.0086,0.));
#1366=CARTESIAN_POINT('',(-0.0014912987345056,-0.00647020468484363,0.));
#1367=CARTESIAN_POINT('',(-0.00630213140164406,-0.0055660749227632,0.0005));
#1368=CARTESIAN_POINT('',(-0.00664715287269628,-0.00580766155763645,0.0005));
#1369=CARTESIAN_POINT('',(0.00254937953486399,-0.00364089130117091,0.));
#1370=CARTESIAN_POINT('',(-0.00463963534547847,-0.00867469371265276,0.));
#1371=CARTESIAN_POINT('',(-0.0055000000000003,-0.00744596564621733,0.0005));
#1372=MECHANICAL_DESIGN_GEOMETRIC_PRESENTATION_REPRESENTATION('',(#805),
#1373);
#1373=(
GEOMETRIC_REPRESENTATION_CONTEXT(3)
GLOBAL_UNCERTAINTY_ASSIGNED_CONTEXT((#1374))
GLOBAL_UNIT_ASSIGNED_CONTEXT((#1377,#1376,#1375))
REPRESENTATION_CONTEXT('Cross','TOP_LEVEL_ASSEMBLY_PART')
);
#1374=UNCERTAINTY_MEASURE_WITH_UNIT(LENGTH_MEASURE(1.E-8),#1377,
'DISTANCE_ACCURACY_VALUE','Maximum Tolerance applied to model');
#1375=(
NAMED_UNIT(*)
SI_UNIT($,.STERADIAN.)
SOLID_ANGLE_UNIT()
);
#1376=(
NAMED_UNIT(*)
PLANE_ANGLE_UNIT()
SI_UNIT($,.RADIAN.)
);
#1377=(
LENGTH_UNIT()
NAMED_UNIT(*)
SI_UNIT($,.METRE.)
);
#1378=PRODUCT_DEFINITION_SHAPE('','',#1379);
#1379=PRODUCT_DEFINITION('','',#1381,#1380);
#1380=PRODUCT_DEFINITION_CONTEXT('',#1387,'design');
#1381=PRODUCT_DEFINITION_FORMATION_WITH_SPECIFIED_SOURCE('','',#1383,
 .NOT_KNOWN.);
#1382=PRODUCT_RELATED_PRODUCT_CATEGORY('','',(#1383));
#1383=PRODUCT('Cross','Cross','Cross',(#1385));
#1384=PRODUCT_CATEGORY('','');
#1385=PRODUCT_CONTEXT('',#1387,'mechanical');
#1386=APPLICATION_PROTOCOL_DEFINITION('international standard',
'ap242_managed_model_based_3d_engineering',2020,#1387);
#1387=APPLICATION_CONTEXT('managed model based 3d engineering');
ENDSEC;
END-ISO-10303-21;
