ISO-10303-21;
HEADER;
/* Generated by software containing ST-Developer
 * from STEP Tools, Inc. (www.steptools.com) 
 */
/* OPTION: using custom renumber hook */

FILE_DESCRIPTION(
/* description */ ('STEP AP242 Edition 2',
'CAx-IF Rec.Pracs.---Representation and Presentation of Product Manufa
cturing Information (PMI)---4.0---2014-10-13',
'CAx-IF Rec.Pracs.---3D Tessellated Geometry---0.4---2014-09-14','2;1',
'CAx-IF Rec.Pracs.---User Defined Attributes---1.5---2016-08-15'),
/* implementation_level */ '2;1');

FILE_NAME(
/* name */ 'frame - Standoff-L',
/* time_stamp */ '2026-07-05T17:29:04Z',
/* author */ (''),
/* organization */ (''),
/* preprocessor_version */ 'ST-DEVELOPER v20',
/* originating_system */ 'ONSHAPE BY PTC INC, 1.217',
/* authorisation */ '  ');

FILE_SCHEMA (('AP242_MANAGED_MODEL_BASED_3D_ENGINEERING_MIM_LF { 1 0 10303 442 3 1 4 }'));
ENDSEC;

DATA;
#10=SHAPE_REPRESENTATION_RELATIONSHIP('','',#1257,#11);
#11=ADVANCED_BREP_SHAPE_REPRESENTATION('',(#1255),#2112);
#12=ELLIPSE('',#1336,0.00282842712474619,0.002);
#13=ELLIPSE('',#1346,0.00282842712474619,0.002);
#14=CONICAL_SURFACE('',#1333,0.0012,0.785398163397448);
#15=CONICAL_SURFACE('',#1337,0.0012,0.785398163397449);
#16=CONICAL_SURFACE('',#1339,0.0012,0.785398163397443);
#17=CONICAL_SURFACE('',#1342,0.0012,0.785398163397443);
#18=CONICAL_SURFACE('',#1344,0.0012,0.785398163397449);
#19=CONICAL_SURFACE('',#1348,0.0012,0.78539816339745);
#20=CONICAL_SURFACE('',#1350,0.0038,0.785398163397449);
#21=CONICAL_SURFACE('',#1352,0.0038,0.785398163397448);
#22=CONICAL_SURFACE('',#1355,0.0012,0.785398163397448);
#23=CONICAL_SURFACE('',#1357,0.0038,0.785398163397448);
#24=CONICAL_SURFACE('',#1359,0.0038,0.785398163397449);
#25=CONICAL_SURFACE('',#1362,0.0038,0.78539816339745);
#26=CONICAL_SURFACE('',#1364,0.0038,0.785398163397448);
#27=CONICAL_SURFACE('',#1366,0.0038,0.785398163397449);
#28=B_SPLINE_CURVE_WITH_KNOTS('',3,(#1997,#1998,#1999,#2000,#2001,#2002,
#2003,#2004,#2005,#2006,#2007,#2008,#2009),.UNSPECIFIED.,.T.,.F.,(1,1,1,
1,1,1,1,1,1,1,1,1,1,1,1,1,1),(-0.00176542152013686,-0.00132406614010264,
-0.000882710760068428,0.,0.000882710760068428,0.00176542152013686,0.00264813228020528,
0.00353084304027371,0.00441355380034214,0.00485490918037635,0.00529626456041057,
0.00573761994044478,0.00617897532047899,0.00706168608054742,0.00794439684061585,
0.00882710760068428,0.0097098183607527),.UNSPECIFIED.);
#29=CYLINDRICAL_SURFACE('',#1266,0.00105);
#30=CYLINDRICAL_SURFACE('',#1270,0.00105);
#31=CYLINDRICAL_SURFACE('',#1309,0.003);
#32=CYLINDRICAL_SURFACE('',#1311,0.003);
#33=CYLINDRICAL_SURFACE('',#1313,0.003);
#34=CYLINDRICAL_SURFACE('',#1315,0.003);
#35=CYLINDRICAL_SURFACE('',#1318,0.003);
#36=CYLINDRICAL_SURFACE('',#1321,0.002);
#37=CYLINDRICAL_SURFACE('',#1324,0.002);
#38=CYLINDRICAL_SURFACE('',#1326,0.002);
#39=CYLINDRICAL_SURFACE('',#1329,0.002);
#40=CYLINDRICAL_SURFACE('',#1368,0.002);
#41=CYLINDRICAL_SURFACE('',#1369,0.00105);
#42=CYLINDRICAL_SURFACE('',#1370,0.00105);
#43=CYLINDRICAL_SURFACE('',#1373,0.00105);
#44=CYLINDRICAL_SURFACE('',#1376,0.00105);
#45=CIRCLE('',#1260,0.002);
#46=CIRCLE('',#1261,0.0012);
#47=CIRCLE('',#1262,0.0012);
#48=CIRCLE('',#1263,0.0012);
#49=CIRCLE('',#1264,0.0038);
#50=CIRCLE('',#1265,0.0038);
#51=CIRCLE('',#1267,0.00105);
#52=CIRCLE('',#1268,0.00105);
#53=CIRCLE('',#1271,0.00105);
#54=CIRCLE('',#1272,0.00105);
#55=CIRCLE('',#1277,0.00105);
#56=CIRCLE('',#1278,0.00105);
#57=CIRCLE('',#1283,0.00105);
#58=CIRCLE('',#1289,0.00105);
#59=CIRCLE('',#1293,0.0012);
#60=CIRCLE('',#1295,0.002);
#61=CIRCLE('',#1296,0.0038);
#62=CIRCLE('',#1297,0.0038);
#63=CIRCLE('',#1298,0.0038);
#64=CIRCLE('',#1299,0.0012);
#65=CIRCLE('',#1300,0.0038);
#66=CIRCLE('',#1301,0.0038);
#67=CIRCLE('',#1302,0.0012);
#68=CIRCLE('',#1303,0.0012);
#69=CIRCLE('',#1305,0.003);
#70=CIRCLE('',#1306,0.002);
#71=CIRCLE('',#1307,0.003);
#72=CIRCLE('',#1308,0.003);
#73=CIRCLE('',#1310,0.003);
#74=CIRCLE('',#1312,0.003);
#75=CIRCLE('',#1314,0.003);
#76=CIRCLE('',#1316,0.003);
#77=CIRCLE('',#1317,0.003);
#78=CIRCLE('',#1319,0.003);
#79=CIRCLE('',#1320,0.003);
#80=CIRCLE('',#1322,0.002);
#81=CIRCLE('',#1323,0.002);
#82=CIRCLE('',#1325,0.002);
#83=CIRCLE('',#1327,0.002);
#84=CIRCLE('',#1328,0.002);
#85=CIRCLE('',#1330,0.002);
#86=CIRCLE('',#1331,0.002);
#87=CIRCLE('',#1371,0.00105);
#88=CIRCLE('',#1374,0.00105);
#89=CIRCLE('',#1377,0.00105);
#90=ORIENTED_EDGE('',*,*,#434,.T.);
#91=ORIENTED_EDGE('',*,*,#435,.T.);
#92=ORIENTED_EDGE('',*,*,#436,.T.);
#93=ORIENTED_EDGE('',*,*,#437,.T.);
#94=ORIENTED_EDGE('',*,*,#438,.T.);
#95=ORIENTED_EDGE('',*,*,#439,.T.);
#96=ORIENTED_EDGE('',*,*,#440,.T.);
#97=ORIENTED_EDGE('',*,*,#441,.F.);
#98=ORIENTED_EDGE('',*,*,#442,.T.);
#99=ORIENTED_EDGE('',*,*,#443,.T.);
#100=ORIENTED_EDGE('',*,*,#444,.T.);
#101=ORIENTED_EDGE('',*,*,#445,.T.);
#102=ORIENTED_EDGE('',*,*,#446,.T.);
#103=ORIENTED_EDGE('',*,*,#447,.T.);
#104=ORIENTED_EDGE('',*,*,#448,.T.);
#105=ORIENTED_EDGE('',*,*,#449,.F.);
#106=ORIENTED_EDGE('',*,*,#450,.T.);
#107=ORIENTED_EDGE('',*,*,#451,.T.);
#108=ORIENTED_EDGE('',*,*,#452,.F.);
#109=ORIENTED_EDGE('',*,*,#453,.F.);
#110=ORIENTED_EDGE('',*,*,#452,.T.);
#111=ORIENTED_EDGE('',*,*,#454,.T.);
#112=ORIENTED_EDGE('',*,*,#455,.F.);
#113=ORIENTED_EDGE('',*,*,#456,.F.);
#114=ORIENTED_EDGE('',*,*,#455,.T.);
#115=ORIENTED_EDGE('',*,*,#457,.T.);
#116=ORIENTED_EDGE('',*,*,#458,.F.);
#117=ORIENTED_EDGE('',*,*,#459,.T.);
#118=ORIENTED_EDGE('',*,*,#460,.T.);
#119=ORIENTED_EDGE('',*,*,#461,.T.);
#120=ORIENTED_EDGE('',*,*,#462,.F.);
#121=ORIENTED_EDGE('',*,*,#450,.F.);
#122=ORIENTED_EDGE('',*,*,#463,.T.);
#123=ORIENTED_EDGE('',*,*,#458,.T.);
#124=ORIENTED_EDGE('',*,*,#464,.F.);
#125=ORIENTED_EDGE('',*,*,#465,.F.);
#126=ORIENTED_EDGE('',*,*,#466,.T.);
#127=ORIENTED_EDGE('',*,*,#467,.T.);
#128=ORIENTED_EDGE('',*,*,#468,.T.);
#129=ORIENTED_EDGE('',*,*,#469,.F.);
#130=ORIENTED_EDGE('',*,*,#470,.F.);
#131=ORIENTED_EDGE('',*,*,#441,.T.);
#132=ORIENTED_EDGE('',*,*,#471,.T.);
#133=ORIENTED_EDGE('',*,*,#465,.T.);
#134=ORIENTED_EDGE('',*,*,#472,.T.);
#135=ORIENTED_EDGE('',*,*,#473,.F.);
#136=ORIENTED_EDGE('',*,*,#474,.T.);
#137=ORIENTED_EDGE('',*,*,#475,.F.);
#138=ORIENTED_EDGE('',*,*,#476,.T.);
#139=ORIENTED_EDGE('',*,*,#475,.T.);
#140=ORIENTED_EDGE('',*,*,#477,.T.);
#141=ORIENTED_EDGE('',*,*,#478,.T.);
#142=ORIENTED_EDGE('',*,*,#479,.F.);
#143=ORIENTED_EDGE('',*,*,#480,.T.);
#144=ORIENTED_EDGE('',*,*,#481,.T.);
#145=ORIENTED_EDGE('',*,*,#482,.T.);
#146=ORIENTED_EDGE('',*,*,#483,.T.);
#147=ORIENTED_EDGE('',*,*,#484,.F.);
#148=ORIENTED_EDGE('',*,*,#485,.F.);
#149=ORIENTED_EDGE('',*,*,#486,.T.);
#150=ORIENTED_EDGE('',*,*,#487,.T.);
#151=ORIENTED_EDGE('',*,*,#488,.F.);
#152=ORIENTED_EDGE('',*,*,#489,.T.);
#153=ORIENTED_EDGE('',*,*,#490,.T.);
#154=ORIENTED_EDGE('',*,*,#491,.T.);
#155=ORIENTED_EDGE('',*,*,#492,.F.);
#156=ORIENTED_EDGE('',*,*,#493,.T.);
#157=ORIENTED_EDGE('',*,*,#494,.T.);
#158=ORIENTED_EDGE('',*,*,#488,.T.);
#159=ORIENTED_EDGE('',*,*,#495,.T.);
#160=ORIENTED_EDGE('',*,*,#496,.F.);
#161=ORIENTED_EDGE('',*,*,#497,.T.);
#162=ORIENTED_EDGE('',*,*,#498,.F.);
#163=ORIENTED_EDGE('',*,*,#484,.T.);
#164=ORIENTED_EDGE('',*,*,#499,.T.);
#165=ORIENTED_EDGE('',*,*,#500,.F.);
#166=ORIENTED_EDGE('',*,*,#498,.T.);
#167=ORIENTED_EDGE('',*,*,#501,.T.);
#168=ORIENTED_EDGE('',*,*,#502,.T.);
#169=ORIENTED_EDGE('',*,*,#503,.F.);
#170=ORIENTED_EDGE('',*,*,#504,.T.);
#171=ORIENTED_EDGE('',*,*,#505,.T.);
#172=ORIENTED_EDGE('',*,*,#506,.T.);
#173=ORIENTED_EDGE('',*,*,#507,.F.);
#174=ORIENTED_EDGE('',*,*,#508,.T.);
#175=ORIENTED_EDGE('',*,*,#509,.T.);
#176=ORIENTED_EDGE('',*,*,#510,.T.);
#177=ORIENTED_EDGE('',*,*,#511,.T.);
#178=ORIENTED_EDGE('',*,*,#512,.T.);
#179=ORIENTED_EDGE('',*,*,#513,.T.);
#180=ORIENTED_EDGE('',*,*,#514,.F.);
#181=ORIENTED_EDGE('',*,*,#515,.T.);
#182=ORIENTED_EDGE('',*,*,#516,.T.);
#183=ORIENTED_EDGE('',*,*,#517,.T.);
#184=ORIENTED_EDGE('',*,*,#518,.F.);
#185=ORIENTED_EDGE('',*,*,#519,.T.);
#186=ORIENTED_EDGE('',*,*,#520,.T.);
#187=ORIENTED_EDGE('',*,*,#434,.F.);
#188=ORIENTED_EDGE('',*,*,#521,.T.);
#189=ORIENTED_EDGE('',*,*,#514,.T.);
#190=ORIENTED_EDGE('',*,*,#522,.T.);
#191=ORIENTED_EDGE('',*,*,#523,.T.);
#192=ORIENTED_EDGE('',*,*,#524,.T.);
#193=ORIENTED_EDGE('',*,*,#525,.T.);
#194=ORIENTED_EDGE('',*,*,#526,.T.);
#195=ORIENTED_EDGE('',*,*,#527,.T.);
#196=ORIENTED_EDGE('',*,*,#528,.T.);
#197=ORIENTED_EDGE('',*,*,#529,.T.);
#198=ORIENTED_EDGE('',*,*,#530,.T.);
#199=ORIENTED_EDGE('',*,*,#531,.T.);
#200=ORIENTED_EDGE('',*,*,#532,.T.);
#201=ORIENTED_EDGE('',*,*,#493,.F.);
#202=ORIENTED_EDGE('',*,*,#500,.T.);
#203=ORIENTED_EDGE('',*,*,#533,.T.);
#204=ORIENTED_EDGE('',*,*,#534,.T.);
#205=ORIENTED_EDGE('',*,*,#535,.T.);
#206=ORIENTED_EDGE('',*,*,#519,.F.);
#207=ORIENTED_EDGE('',*,*,#536,.T.);
#208=ORIENTED_EDGE('',*,*,#537,.T.);
#209=ORIENTED_EDGE('',*,*,#538,.T.);
#210=ORIENTED_EDGE('',*,*,#539,.T.);
#211=ORIENTED_EDGE('',*,*,#540,.T.);
#212=ORIENTED_EDGE('',*,*,#541,.T.);
#213=ORIENTED_EDGE('',*,*,#542,.T.);
#214=ORIENTED_EDGE('',*,*,#496,.T.);
#215=ORIENTED_EDGE('',*,*,#543,.T.);
#216=ORIENTED_EDGE('',*,*,#544,.T.);
#217=ORIENTED_EDGE('',*,*,#545,.T.);
#218=ORIENTED_EDGE('',*,*,#546,.T.);
#219=ORIENTED_EDGE('',*,*,#547,.T.);
#220=ORIENTED_EDGE('',*,*,#548,.T.);
#221=ORIENTED_EDGE('',*,*,#549,.T.);
#222=ORIENTED_EDGE('',*,*,#473,.T.);
#223=ORIENTED_EDGE('',*,*,#550,.T.);
#224=ORIENTED_EDGE('',*,*,#551,.T.);
#225=ORIENTED_EDGE('',*,*,#552,.T.);
#226=ORIENTED_EDGE('',*,*,#553,.T.);
#227=ORIENTED_EDGE('',*,*,#451,.F.);
#228=ORIENTED_EDGE('',*,*,#464,.T.);
#229=ORIENTED_EDGE('',*,*,#457,.F.);
#230=ORIENTED_EDGE('',*,*,#454,.F.);
#231=ORIENTED_EDGE('',*,*,#463,.F.);
#232=ORIENTED_EDGE('',*,*,#449,.T.);
#233=ORIENTED_EDGE('',*,*,#453,.T.);
#234=ORIENTED_EDGE('',*,*,#456,.T.);
#235=ORIENTED_EDGE('',*,*,#503,.T.);
#236=ORIENTED_EDGE('',*,*,#554,.T.);
#237=ORIENTED_EDGE('',*,*,#507,.T.);
#238=ORIENTED_EDGE('',*,*,#555,.T.);
#239=ORIENTED_EDGE('',*,*,#479,.T.);
#240=ORIENTED_EDGE('',*,*,#556,.T.);
#241=ORIENTED_EDGE('',*,*,#462,.T.);
#242=ORIENTED_EDGE('',*,*,#557,.T.);
#243=ORIENTED_EDGE('',*,*,#485,.T.);
#244=ORIENTED_EDGE('',*,*,#558,.T.);
#245=ORIENTED_EDGE('',*,*,#461,.F.);
#246=ORIENTED_EDGE('',*,*,#559,.T.);
#247=ORIENTED_EDGE('',*,*,#486,.F.);
#248=ORIENTED_EDGE('',*,*,#557,.F.);
#249=ORIENTED_EDGE('',*,*,#478,.F.);
#250=ORIENTED_EDGE('',*,*,#560,.T.);
#251=ORIENTED_EDGE('',*,*,#459,.F.);
#252=ORIENTED_EDGE('',*,*,#556,.F.);
#253=ORIENTED_EDGE('',*,*,#502,.F.);
#254=ORIENTED_EDGE('',*,*,#561,.T.);
#255=ORIENTED_EDGE('',*,*,#508,.F.);
#256=ORIENTED_EDGE('',*,*,#554,.F.);
#257=ORIENTED_EDGE('',*,*,#512,.F.);
#258=ORIENTED_EDGE('',*,*,#562,.T.);
#259=ORIENTED_EDGE('',*,*,#504,.F.);
#260=ORIENTED_EDGE('',*,*,#563,.T.);
#261=ORIENTED_EDGE('',*,*,#516,.F.);
#262=ORIENTED_EDGE('',*,*,#564,.T.);
#263=ORIENTED_EDGE('',*,*,#510,.F.);
#264=ORIENTED_EDGE('',*,*,#565,.T.);
#265=ORIENTED_EDGE('',*,*,#490,.F.);
#266=ORIENTED_EDGE('',*,*,#566,.T.);
#267=ORIENTED_EDGE('',*,*,#482,.F.);
#268=ORIENTED_EDGE('',*,*,#567,.T.);
#269=ORIENTED_EDGE('',*,*,#506,.F.);
#270=ORIENTED_EDGE('',*,*,#568,.T.);
#271=ORIENTED_EDGE('',*,*,#480,.F.);
#272=ORIENTED_EDGE('',*,*,#555,.F.);
#273=ORIENTED_EDGE('',*,*,#467,.F.);
#274=ORIENTED_EDGE('',*,*,#569,.T.);
#275=ORIENTED_EDGE('',*,*,#527,.F.);
#276=ORIENTED_EDGE('',*,*,#570,.T.);
#277=ORIENTED_EDGE('',*,*,#529,.F.);
#278=ORIENTED_EDGE('',*,*,#571,.T.);
#279=ORIENTED_EDGE('',*,*,#526,.F.);
#280=ORIENTED_EDGE('',*,*,#572,.T.);
#281=ORIENTED_EDGE('',*,*,#499,.F.);
#282=ORIENTED_EDGE('',*,*,#483,.F.);
#283=ORIENTED_EDGE('',*,*,#573,.F.);
#284=ORIENTED_EDGE('',*,*,#533,.F.);
#285=ORIENTED_EDGE('',*,*,#573,.T.);
#286=ORIENTED_EDGE('',*,*,#566,.F.);
#287=ORIENTED_EDGE('',*,*,#574,.F.);
#288=ORIENTED_EDGE('',*,*,#531,.F.);
#289=ORIENTED_EDGE('',*,*,#574,.T.);
#290=ORIENTED_EDGE('',*,*,#489,.F.);
#291=ORIENTED_EDGE('',*,*,#494,.F.);
#292=ORIENTED_EDGE('',*,*,#532,.F.);
#293=ORIENTED_EDGE('',*,*,#436,.F.);
#294=ORIENTED_EDGE('',*,*,#575,.T.);
#295=ORIENTED_EDGE('',*,*,#523,.F.);
#296=ORIENTED_EDGE('',*,*,#576,.F.);
#297=ORIENTED_EDGE('',*,*,#576,.T.);
#298=ORIENTED_EDGE('',*,*,#571,.F.);
#299=ORIENTED_EDGE('',*,*,#577,.F.);
#300=ORIENTED_EDGE('',*,*,#437,.F.);
#301=ORIENTED_EDGE('',*,*,#577,.T.);
#302=ORIENTED_EDGE('',*,*,#528,.F.);
#303=ORIENTED_EDGE('',*,*,#578,.F.);
#304=ORIENTED_EDGE('',*,*,#438,.F.);
#305=ORIENTED_EDGE('',*,*,#578,.T.);
#306=ORIENTED_EDGE('',*,*,#569,.F.);
#307=ORIENTED_EDGE('',*,*,#579,.F.);
#308=ORIENTED_EDGE('',*,*,#439,.F.);
#309=ORIENTED_EDGE('',*,*,#471,.F.);
#310=ORIENTED_EDGE('',*,*,#440,.F.);
#311=ORIENTED_EDGE('',*,*,#579,.T.);
#312=ORIENTED_EDGE('',*,*,#466,.F.);
#313=ORIENTED_EDGE('',*,*,#472,.F.);
#314=ORIENTED_EDGE('',*,*,#468,.F.);
#315=ORIENTED_EDGE('',*,*,#580,.F.);
#316=ORIENTED_EDGE('',*,*,#550,.F.);
#317=ORIENTED_EDGE('',*,*,#580,.T.);
#318=ORIENTED_EDGE('',*,*,#570,.F.);
#319=ORIENTED_EDGE('',*,*,#581,.F.);
#320=ORIENTED_EDGE('',*,*,#551,.F.);
#321=ORIENTED_EDGE('',*,*,#581,.T.);
#322=ORIENTED_EDGE('',*,*,#530,.F.);
#323=ORIENTED_EDGE('',*,*,#582,.F.);
#324=ORIENTED_EDGE('',*,*,#552,.F.);
#325=ORIENTED_EDGE('',*,*,#582,.T.);
#326=ORIENTED_EDGE('',*,*,#572,.F.);
#327=ORIENTED_EDGE('',*,*,#583,.F.);
#328=ORIENTED_EDGE('',*,*,#553,.F.);
#329=ORIENTED_EDGE('',*,*,#525,.F.);
#330=ORIENTED_EDGE('',*,*,#584,.T.);
#331=ORIENTED_EDGE('',*,*,#534,.F.);
#332=ORIENTED_EDGE('',*,*,#583,.T.);
#333=ORIENTED_EDGE('',*,*,#495,.F.);
#334=ORIENTED_EDGE('',*,*,#491,.F.);
#335=ORIENTED_EDGE('',*,*,#585,.F.);
#336=ORIENTED_EDGE('',*,*,#543,.F.);
#337=ORIENTED_EDGE('',*,*,#585,.T.);
#338=ORIENTED_EDGE('',*,*,#567,.F.);
#339=ORIENTED_EDGE('',*,*,#586,.F.);
#340=ORIENTED_EDGE('',*,*,#544,.F.);
#341=ORIENTED_EDGE('',*,*,#586,.T.);
#342=ORIENTED_EDGE('',*,*,#487,.F.);
#343=ORIENTED_EDGE('',*,*,#587,.F.);
#344=ORIENTED_EDGE('',*,*,#545,.F.);
#345=ORIENTED_EDGE('',*,*,#587,.T.);
#346=ORIENTED_EDGE('',*,*,#559,.F.);
#347=ORIENTED_EDGE('',*,*,#588,.F.);
#348=ORIENTED_EDGE('',*,*,#546,.F.);
#349=ORIENTED_EDGE('',*,*,#588,.T.);
#350=ORIENTED_EDGE('',*,*,#460,.F.);
#351=ORIENTED_EDGE('',*,*,#589,.F.);
#352=ORIENTED_EDGE('',*,*,#547,.F.);
#353=ORIENTED_EDGE('',*,*,#589,.T.);
#354=ORIENTED_EDGE('',*,*,#560,.F.);
#355=ORIENTED_EDGE('',*,*,#590,.F.);
#356=ORIENTED_EDGE('',*,*,#548,.F.);
#357=ORIENTED_EDGE('',*,*,#474,.F.);
#358=ORIENTED_EDGE('',*,*,#549,.F.);
#359=ORIENTED_EDGE('',*,*,#590,.T.);
#360=ORIENTED_EDGE('',*,*,#477,.F.);
#361=ORIENTED_EDGE('',*,*,#476,.F.);
#362=ORIENTED_EDGE('',*,*,#481,.F.);
#363=ORIENTED_EDGE('',*,*,#591,.F.);
#364=ORIENTED_EDGE('',*,*,#442,.F.);
#365=ORIENTED_EDGE('',*,*,#591,.T.);
#366=ORIENTED_EDGE('',*,*,#568,.F.);
#367=ORIENTED_EDGE('',*,*,#592,.F.);
#368=ORIENTED_EDGE('',*,*,#443,.F.);
#369=ORIENTED_EDGE('',*,*,#592,.T.);
#370=ORIENTED_EDGE('',*,*,#505,.F.);
#371=ORIENTED_EDGE('',*,*,#593,.F.);
#372=ORIENTED_EDGE('',*,*,#444,.F.);
#373=ORIENTED_EDGE('',*,*,#593,.T.);
#374=ORIENTED_EDGE('',*,*,#562,.F.);
#375=ORIENTED_EDGE('',*,*,#594,.F.);
#376=ORIENTED_EDGE('',*,*,#445,.F.);
#377=ORIENTED_EDGE('',*,*,#594,.T.);
#378=ORIENTED_EDGE('',*,*,#511,.F.);
#379=ORIENTED_EDGE('',*,*,#595,.F.);
#380=ORIENTED_EDGE('',*,*,#446,.F.);
#381=ORIENTED_EDGE('',*,*,#595,.T.);
#382=ORIENTED_EDGE('',*,*,#564,.F.);
#383=ORIENTED_EDGE('',*,*,#596,.F.);
#384=ORIENTED_EDGE('',*,*,#447,.F.);
#385=ORIENTED_EDGE('',*,*,#596,.T.);
#386=ORIENTED_EDGE('',*,*,#515,.F.);
#387=ORIENTED_EDGE('',*,*,#521,.F.);
#388=ORIENTED_EDGE('',*,*,#448,.F.);
#389=ORIENTED_EDGE('',*,*,#522,.F.);
#390=ORIENTED_EDGE('',*,*,#517,.F.);
#391=ORIENTED_EDGE('',*,*,#597,.F.);
#392=ORIENTED_EDGE('',*,*,#536,.F.);
#393=ORIENTED_EDGE('',*,*,#597,.T.);
#394=ORIENTED_EDGE('',*,*,#565,.F.);
#395=ORIENTED_EDGE('',*,*,#598,.F.);
#396=ORIENTED_EDGE('',*,*,#537,.F.);
#397=ORIENTED_EDGE('',*,*,#598,.T.);
#398=ORIENTED_EDGE('',*,*,#513,.F.);
#399=ORIENTED_EDGE('',*,*,#599,.F.);
#400=ORIENTED_EDGE('',*,*,#538,.F.);
#401=ORIENTED_EDGE('',*,*,#599,.T.);
#402=ORIENTED_EDGE('',*,*,#563,.F.);
#403=ORIENTED_EDGE('',*,*,#600,.F.);
#404=ORIENTED_EDGE('',*,*,#539,.F.);
#405=ORIENTED_EDGE('',*,*,#600,.T.);
#406=ORIENTED_EDGE('',*,*,#509,.F.);
#407=ORIENTED_EDGE('',*,*,#601,.F.);
#408=ORIENTED_EDGE('',*,*,#540,.F.);
#409=ORIENTED_EDGE('',*,*,#601,.T.);
#410=ORIENTED_EDGE('',*,*,#561,.F.);
#411=ORIENTED_EDGE('',*,*,#602,.F.);
#412=ORIENTED_EDGE('',*,*,#541,.F.);
#413=ORIENTED_EDGE('',*,*,#497,.F.);
#414=ORIENTED_EDGE('',*,*,#542,.F.);
#415=ORIENTED_EDGE('',*,*,#602,.T.);
#416=ORIENTED_EDGE('',*,*,#501,.F.);
#417=ORIENTED_EDGE('',*,*,#435,.F.);
#418=ORIENTED_EDGE('',*,*,#520,.F.);
#419=ORIENTED_EDGE('',*,*,#535,.F.);
#420=ORIENTED_EDGE('',*,*,#584,.F.);
#421=ORIENTED_EDGE('',*,*,#524,.F.);
#422=ORIENTED_EDGE('',*,*,#575,.F.);
#423=ORIENTED_EDGE('',*,*,#492,.T.);
#424=ORIENTED_EDGE('',*,*,#558,.F.);
#425=ORIENTED_EDGE('',*,*,#603,.F.);
#426=ORIENTED_EDGE('',*,*,#518,.T.);
#427=ORIENTED_EDGE('',*,*,#603,.T.);
#428=ORIENTED_EDGE('',*,*,#604,.F.);
#429=ORIENTED_EDGE('',*,*,#470,.T.);
#430=ORIENTED_EDGE('',*,*,#604,.T.);
#431=ORIENTED_EDGE('',*,*,#605,.F.);
#432=ORIENTED_EDGE('',*,*,#469,.T.);
#433=ORIENTED_EDGE('',*,*,#605,.T.);
#434=EDGE_CURVE('',#606,#607,#714,.T.);
#435=EDGE_CURVE('',#607,#608,#45,.T.);
#436=EDGE_CURVE('',#608,#609,#715,.T.);
#437=EDGE_CURVE('',#609,#610,#46,.T.);
#438=EDGE_CURVE('',#610,#611,#716,.T.);
#439=EDGE_CURVE('',#611,#612,#47,.T.);
#440=EDGE_CURVE('',#612,#613,#717,.T.);
#441=EDGE_CURVE('',#614,#613,#718,.T.);
#442=EDGE_CURVE('',#614,#615,#719,.T.);
#443=EDGE_CURVE('',#615,#616,#48,.T.);
#444=EDGE_CURVE('',#616,#617,#720,.T.);
#445=EDGE_CURVE('',#617,#618,#49,.F.);
#446=EDGE_CURVE('',#618,#619,#721,.T.);
#447=EDGE_CURVE('',#619,#620,#50,.F.);
#448=EDGE_CURVE('',#620,#606,#722,.T.);
#449=EDGE_CURVE('',#621,#622,#51,.T.);
#450=EDGE_CURVE('',#621,#623,#723,.T.);
#451=EDGE_CURVE('',#623,#624,#52,.T.);
#452=EDGE_CURVE('',#622,#624,#724,.T.);
#453=EDGE_CURVE('',#622,#625,#725,.T.);
#454=EDGE_CURVE('',#624,#626,#726,.T.);
#455=EDGE_CURVE('',#625,#626,#727,.T.);
#456=EDGE_CURVE('',#625,#627,#53,.T.);
#457=EDGE_CURVE('',#626,#628,#54,.T.);
#458=EDGE_CURVE('',#627,#628,#728,.T.);
#459=EDGE_CURVE('',#629,#630,#729,.T.);
#460=EDGE_CURVE('',#630,#631,#730,.T.);
#461=EDGE_CURVE('',#631,#632,#731,.F.);
#462=EDGE_CURVE('',#629,#632,#732,.T.);
#463=EDGE_CURVE('',#621,#627,#733,.T.);
#464=EDGE_CURVE('',#623,#628,#734,.T.);
#465=EDGE_CURVE('',#633,#634,#735,.T.);
#466=EDGE_CURVE('',#633,#635,#736,.T.);
#467=EDGE_CURVE('',#635,#636,#737,.T.);
#468=EDGE_CURVE('',#636,#634,#738,.T.);
#469=EDGE_CURVE('',#637,#637,#55,.T.);
#470=EDGE_CURVE('',#638,#638,#56,.T.);
#471=EDGE_CURVE('',#613,#633,#739,.F.);
#472=EDGE_CURVE('',#634,#639,#740,.T.);
#473=EDGE_CURVE('',#640,#639,#741,.T.);
#474=EDGE_CURVE('',#640,#641,#742,.F.);
#475=EDGE_CURVE('',#642,#641,#743,.T.);
#476=EDGE_CURVE('',#642,#614,#744,.T.);
#477=EDGE_CURVE('',#641,#643,#745,.T.);
#478=EDGE_CURVE('',#643,#644,#746,.F.);
#479=EDGE_CURVE('',#645,#644,#747,.T.);
#480=EDGE_CURVE('',#645,#646,#748,.T.);
#481=EDGE_CURVE('',#646,#642,#749,.T.);
#482=EDGE_CURVE('',#647,#648,#750,.F.);
#483=EDGE_CURVE('',#648,#649,#751,.T.);
#484=EDGE_CURVE('',#650,#649,#752,.T.);
#485=EDGE_CURVE('',#651,#650,#753,.T.);
#486=EDGE_CURVE('',#651,#652,#754,.T.);
#487=EDGE_CURVE('',#652,#647,#755,.T.);
#488=EDGE_CURVE('',#653,#654,#756,.T.);
#489=EDGE_CURVE('',#653,#655,#757,.T.);
#490=EDGE_CURVE('',#655,#656,#758,.T.);
#491=EDGE_CURVE('',#656,#654,#759,.T.);
#492=EDGE_CURVE('',#657,#657,#57,.T.);
#493=EDGE_CURVE('',#658,#659,#760,.T.);
#494=EDGE_CURVE('',#659,#653,#761,.T.);
#495=EDGE_CURVE('',#654,#660,#762,.F.);
#496=EDGE_CURVE('',#661,#660,#763,.T.);
#497=EDGE_CURVE('',#661,#662,#764,.F.);
#498=EDGE_CURVE('',#658,#662,#765,.T.);
#499=EDGE_CURVE('',#649,#663,#766,.T.);
#500=EDGE_CURVE('',#658,#663,#767,.T.);
#501=EDGE_CURVE('',#662,#664,#768,.T.);
#502=EDGE_CURVE('',#664,#665,#769,.F.);
#503=EDGE_CURVE('',#650,#665,#770,.T.);
#504=EDGE_CURVE('',#666,#667,#771,.F.);
#505=EDGE_CURVE('',#667,#668,#772,.T.);
#506=EDGE_CURVE('',#668,#669,#773,.F.);
#507=EDGE_CURVE('',#670,#669,#774,.T.);
#508=EDGE_CURVE('',#670,#671,#775,.T.);
#509=EDGE_CURVE('',#671,#666,#776,.T.);
#510=EDGE_CURVE('',#672,#673,#777,.F.);
#511=EDGE_CURVE('',#673,#674,#778,.T.);
#512=EDGE_CURVE('',#674,#675,#779,.T.);
#513=EDGE_CURVE('',#675,#672,#780,.T.);
#514=EDGE_CURVE('',#676,#677,#781,.T.);
#515=EDGE_CURVE('',#676,#678,#782,.T.);
#516=EDGE_CURVE('',#678,#679,#783,.T.);
#517=EDGE_CURVE('',#679,#677,#784,.T.);
#518=EDGE_CURVE('',#680,#680,#58,.T.);
#519=EDGE_CURVE('',#681,#682,#785,.T.);
#520=EDGE_CURVE('',#682,#607,#786,.F.);
#521=EDGE_CURVE('',#606,#676,#787,.T.);
#522=EDGE_CURVE('',#677,#681,#788,.F.);
#523=EDGE_CURVE('',#683,#684,#789,.T.);
#524=EDGE_CURVE('',#684,#685,#790,.T.);
#525=EDGE_CURVE('',#685,#686,#791,.T.);
#526=EDGE_CURVE('',#686,#683,#792,.F.);
#527=EDGE_CURVE('',#687,#688,#793,.F.);
#528=EDGE_CURVE('',#688,#689,#794,.T.);
#529=EDGE_CURVE('',#689,#690,#795,.T.);
#530=EDGE_CURVE('',#690,#687,#796,.T.);
#531=EDGE_CURVE('',#691,#692,#59,.T.);
#532=EDGE_CURVE('',#692,#659,#797,.T.);
#533=EDGE_CURVE('',#663,#691,#798,.T.);
#534=EDGE_CURVE('',#693,#694,#799,.T.);
#535=EDGE_CURVE('',#694,#682,#60,.F.);
#536=EDGE_CURVE('',#681,#695,#800,.T.);
#537=EDGE_CURVE('',#695,#696,#61,.T.);
#538=EDGE_CURVE('',#696,#697,#801,.T.);
#539=EDGE_CURVE('',#697,#698,#62,.T.);
#540=EDGE_CURVE('',#698,#699,#802,.T.);
#541=EDGE_CURVE('',#699,#700,#63,.T.);
#542=EDGE_CURVE('',#700,#661,#803,.T.);
#543=EDGE_CURVE('',#660,#701,#804,.T.);
#544=EDGE_CURVE('',#701,#702,#64,.F.);
#545=EDGE_CURVE('',#702,#703,#805,.T.);
#546=EDGE_CURVE('',#703,#704,#65,.T.);
#547=EDGE_CURVE('',#704,#705,#806,.T.);
#548=EDGE_CURVE('',#705,#706,#66,.T.);
#549=EDGE_CURVE('',#706,#640,#807,.T.);
#550=EDGE_CURVE('',#639,#707,#808,.T.);
#551=EDGE_CURVE('',#707,#708,#67,.F.);
#552=EDGE_CURVE('',#708,#709,#809,.T.);
#553=EDGE_CURVE('',#709,#693,#68,.F.);
#554=EDGE_CURVE('',#665,#670,#69,.F.);
#555=EDGE_CURVE('',#669,#645,#70,.F.);
#556=EDGE_CURVE('',#644,#629,#71,.F.);
#557=EDGE_CURVE('',#632,#651,#72,.F.);
#558=EDGE_CURVE('',#710,#710,#28,.T.);
#559=EDGE_CURVE('',#631,#652,#73,.F.);
#560=EDGE_CURVE('',#643,#630,#74,.F.);
#561=EDGE_CURVE('',#664,#671,#75,.F.);
#562=EDGE_CURVE('',#674,#667,#76,.T.);
#563=EDGE_CURVE('',#666,#675,#77,.F.);
#564=EDGE_CURVE('',#678,#673,#78,.T.);
#565=EDGE_CURVE('',#672,#679,#79,.F.);
#566=EDGE_CURVE('',#655,#648,#80,.F.);
#567=EDGE_CURVE('',#647,#656,#81,.T.);
#568=EDGE_CURVE('',#668,#646,#82,.F.);
#569=EDGE_CURVE('',#635,#688,#83,.F.);
#570=EDGE_CURVE('',#687,#636,#84,.T.);
#571=EDGE_CURVE('',#689,#683,#85,.F.);
#572=EDGE_CURVE('',#686,#690,#86,.T.);
#573=EDGE_CURVE('',#691,#648,#810,.T.);
#574=EDGE_CURVE('',#692,#655,#811,.T.);
#575=EDGE_CURVE('',#608,#684,#12,.F.);
#576=EDGE_CURVE('',#609,#683,#812,.T.);
#577=EDGE_CURVE('',#610,#689,#813,.T.);
#578=EDGE_CURVE('',#611,#688,#814,.T.);
#579=EDGE_CURVE('',#612,#635,#815,.T.);
#580=EDGE_CURVE('',#707,#636,#816,.T.);
#581=EDGE_CURVE('',#708,#687,#817,.T.);
#582=EDGE_CURVE('',#709,#690,#818,.T.);
#583=EDGE_CURVE('',#693,#686,#819,.T.);
#584=EDGE_CURVE('',#685,#694,#13,.T.);
#585=EDGE_CURVE('',#701,#656,#820,.T.);
#586=EDGE_CURVE('',#702,#647,#821,.T.);
#587=EDGE_CURVE('',#703,#652,#822,.T.);
#588=EDGE_CURVE('',#704,#631,#823,.T.);
#589=EDGE_CURVE('',#705,#630,#824,.T.);
#590=EDGE_CURVE('',#706,#643,#825,.T.);
#591=EDGE_CURVE('',#615,#646,#826,.T.);
#592=EDGE_CURVE('',#616,#668,#827,.T.);
#593=EDGE_CURVE('',#617,#667,#828,.T.);
#594=EDGE_CURVE('',#618,#674,#829,.T.);
#595=EDGE_CURVE('',#619,#673,#830,.T.);
#596=EDGE_CURVE('',#620,#678,#831,.T.);
#597=EDGE_CURVE('',#695,#679,#832,.T.);
#598=EDGE_CURVE('',#696,#672,#833,.T.);
#599=EDGE_CURVE('',#697,#675,#834,.T.);
#600=EDGE_CURVE('',#698,#666,#835,.T.);
#601=EDGE_CURVE('',#699,#671,#836,.T.);
#602=EDGE_CURVE('',#700,#664,#837,.T.);
#603=EDGE_CURVE('',#711,#711,#87,.T.);
#604=EDGE_CURVE('',#712,#712,#88,.T.);
#605=EDGE_CURVE('',#713,#713,#89,.T.);
#606=VERTEX_POINT('',#1748);
#607=VERTEX_POINT('',#1749);
#608=VERTEX_POINT('',#1751);
#609=VERTEX_POINT('',#1753);
#610=VERTEX_POINT('',#1755);
#611=VERTEX_POINT('',#1757);
#612=VERTEX_POINT('',#1759);
#613=VERTEX_POINT('',#1761);
#614=VERTEX_POINT('',#1763);
#615=VERTEX_POINT('',#1765);
#616=VERTEX_POINT('',#1767);
#617=VERTEX_POINT('',#1769);
#618=VERTEX_POINT('',#1771);
#619=VERTEX_POINT('',#1773);
#620=VERTEX_POINT('',#1775);
#621=VERTEX_POINT('',#1779);
#622=VERTEX_POINT('',#1780);
#623=VERTEX_POINT('',#1782);
#624=VERTEX_POINT('',#1784);
#625=VERTEX_POINT('',#1788);
#626=VERTEX_POINT('',#1790);
#627=VERTEX_POINT('',#1794);
#628=VERTEX_POINT('',#1796);
#629=VERTEX_POINT('',#1800);
#630=VERTEX_POINT('',#1801);
#631=VERTEX_POINT('',#1803);
#632=VERTEX_POINT('',#1805);
#633=VERTEX_POINT('',#1812);
#634=VERTEX_POINT('',#1813);
#635=VERTEX_POINT('',#1815);
#636=VERTEX_POINT('',#1817);
#637=VERTEX_POINT('',#1821);
#638=VERTEX_POINT('',#1823);
#639=VERTEX_POINT('',#1826);
#640=VERTEX_POINT('',#1828);
#641=VERTEX_POINT('',#1830);
#642=VERTEX_POINT('',#1832);
#643=VERTEX_POINT('',#1836);
#644=VERTEX_POINT('',#1838);
#645=VERTEX_POINT('',#1840);
#646=VERTEX_POINT('',#1842);
#647=VERTEX_POINT('',#1846);
#648=VERTEX_POINT('',#1847);
#649=VERTEX_POINT('',#1849);
#650=VERTEX_POINT('',#1851);
#651=VERTEX_POINT('',#1853);
#652=VERTEX_POINT('',#1855);
#653=VERTEX_POINT('',#1859);
#654=VERTEX_POINT('',#1860);
#655=VERTEX_POINT('',#1862);
#656=VERTEX_POINT('',#1864);
#657=VERTEX_POINT('',#1868);
#658=VERTEX_POINT('',#1870);
#659=VERTEX_POINT('',#1871);
#660=VERTEX_POINT('',#1874);
#661=VERTEX_POINT('',#1876);
#662=VERTEX_POINT('',#1878);
#663=VERTEX_POINT('',#1882);
#664=VERTEX_POINT('',#1885);
#665=VERTEX_POINT('',#1887);
#666=VERTEX_POINT('',#1891);
#667=VERTEX_POINT('',#1892);
#668=VERTEX_POINT('',#1894);
#669=VERTEX_POINT('',#1896);
#670=VERTEX_POINT('',#1898);
#671=VERTEX_POINT('',#1900);
#672=VERTEX_POINT('',#1904);
#673=VERTEX_POINT('',#1905);
#674=VERTEX_POINT('',#1907);
#675=VERTEX_POINT('',#1909);
#676=VERTEX_POINT('',#1913);
#677=VERTEX_POINT('',#1914);
#678=VERTEX_POINT('',#1916);
#679=VERTEX_POINT('',#1918);
#680=VERTEX_POINT('',#1922);
#681=VERTEX_POINT('',#1924);
#682=VERTEX_POINT('',#1925);
#683=VERTEX_POINT('',#1931);
#684=VERTEX_POINT('',#1932);
#685=VERTEX_POINT('',#1934);
#686=VERTEX_POINT('',#1936);
#687=VERTEX_POINT('',#1940);
#688=VERTEX_POINT('',#1941);
#689=VERTEX_POINT('',#1943);
#690=VERTEX_POINT('',#1945);
#691=VERTEX_POINT('',#1949);
#692=VERTEX_POINT('',#1950);
#693=VERTEX_POINT('',#1955);
#694=VERTEX_POINT('',#1956);
#695=VERTEX_POINT('',#1959);
#696=VERTEX_POINT('',#1961);
#697=VERTEX_POINT('',#1963);
#698=VERTEX_POINT('',#1965);
#699=VERTEX_POINT('',#1967);
#700=VERTEX_POINT('',#1969);
#701=VERTEX_POINT('',#1972);
#702=VERTEX_POINT('',#1974);
#703=VERTEX_POINT('',#1976);
#704=VERTEX_POINT('',#1978);
#705=VERTEX_POINT('',#1980);
#706=VERTEX_POINT('',#1982);
#707=VERTEX_POINT('',#1985);
#708=VERTEX_POINT('',#1987);
#709=VERTEX_POINT('',#1989);
#710=VERTEX_POINT('',#2010);
#711=VERTEX_POINT('',#2101);
#712=VERTEX_POINT('',#2105);
#713=VERTEX_POINT('',#2109);
#714=LINE('',#1747,#838);
#715=LINE('',#1752,#839);
#716=LINE('',#1756,#840);
#717=LINE('',#1760,#841);
#718=LINE('',#1762,#842);
#719=LINE('',#1764,#843);
#720=LINE('',#1768,#844);
#721=LINE('',#1772,#845);
#722=LINE('',#1776,#846);
#723=LINE('',#1781,#847);
#724=LINE('',#1785,#848);
#725=LINE('',#1787,#849);
#726=LINE('',#1789,#850);
#727=LINE('',#1791,#851);
#728=LINE('',#1797,#852);
#729=LINE('',#1799,#853);
#730=LINE('',#1802,#854);
#731=LINE('',#1804,#855);
#732=LINE('',#1806,#856);
#733=LINE('',#1808,#857);
#734=LINE('',#1809,#858);
#735=LINE('',#1811,#859);
#736=LINE('',#1814,#860);
#737=LINE('',#1816,#861);
#738=LINE('',#1818,#862);
#739=LINE('',#1824,#863);
#740=LINE('',#1825,#864);
#741=LINE('',#1827,#865);
#742=LINE('',#1829,#866);
#743=LINE('',#1831,#867);
#744=LINE('',#1833,#868);
#745=LINE('',#1835,#869);
#746=LINE('',#1837,#870);
#747=LINE('',#1839,#871);
#748=LINE('',#1841,#872);
#749=LINE('',#1843,#873);
#750=LINE('',#1845,#874);
#751=LINE('',#1848,#875);
#752=LINE('',#1850,#876);
#753=LINE('',#1852,#877);
#754=LINE('',#1854,#878);
#755=LINE('',#1856,#879);
#756=LINE('',#1858,#880);
#757=LINE('',#1861,#881);
#758=LINE('',#1863,#882);
#759=LINE('',#1865,#883);
#760=LINE('',#1869,#884);
#761=LINE('',#1872,#885);
#762=LINE('',#1873,#886);
#763=LINE('',#1875,#887);
#764=LINE('',#1877,#888);
#765=LINE('',#1879,#889);
#766=LINE('',#1881,#890);
#767=LINE('',#1883,#891);
#768=LINE('',#1884,#892);
#769=LINE('',#1886,#893);
#770=LINE('',#1888,#894);
#771=LINE('',#1890,#895);
#772=LINE('',#1893,#896);
#773=LINE('',#1895,#897);
#774=LINE('',#1897,#898);
#775=LINE('',#1899,#899);
#776=LINE('',#1901,#900);
#777=LINE('',#1903,#901);
#778=LINE('',#1906,#902);
#779=LINE('',#1908,#903);
#780=LINE('',#1910,#904);
#781=LINE('',#1912,#905);
#782=LINE('',#1915,#906);
#783=LINE('',#1917,#907);
#784=LINE('',#1919,#908);
#785=LINE('',#1923,#909);
#786=LINE('',#1926,#910);
#787=LINE('',#1927,#911);
#788=LINE('',#1928,#912);
#789=LINE('',#1930,#913);
#790=LINE('',#1933,#914);
#791=LINE('',#1935,#915);
#792=LINE('',#1937,#916);
#793=LINE('',#1939,#917);
#794=LINE('',#1942,#918);
#795=LINE('',#1944,#919);
#796=LINE('',#1946,#920);
#797=LINE('',#1951,#921);
#798=LINE('',#1952,#922);
#799=LINE('',#1954,#923);
#800=LINE('',#1958,#924);
#801=LINE('',#1962,#925);
#802=LINE('',#1966,#926);
#803=LINE('',#1970,#927);
#804=LINE('',#1971,#928);
#805=LINE('',#1975,#929);
#806=LINE('',#1979,#930);
#807=LINE('',#1983,#931);
#808=LINE('',#1984,#932);
#809=LINE('',#1988,#933);
#810=LINE('',#2034,#934);
#811=LINE('',#2036,#935);
#812=LINE('',#2040,#936);
#813=LINE('',#2042,#937);
#814=LINE('',#2044,#938);
#815=LINE('',#2046,#939);
#816=LINE('',#2049,#940);
#817=LINE('',#2051,#941);
#818=LINE('',#2053,#942);
#819=LINE('',#2055,#943);
#820=LINE('',#2059,#944);
#821=LINE('',#2061,#945);
#822=LINE('',#2063,#946);
#823=LINE('',#2065,#947);
#824=LINE('',#2067,#948);
#825=LINE('',#2069,#949);
#826=LINE('',#2072,#950);
#827=LINE('',#2074,#951);
#828=LINE('',#2076,#952);
#829=LINE('',#2078,#953);
#830=LINE('',#2080,#954);
#831=LINE('',#2082,#955);
#832=LINE('',#2085,#956);
#833=LINE('',#2087,#957);
#834=LINE('',#2089,#958);
#835=LINE('',#2091,#959);
#836=LINE('',#2093,#960);
#837=LINE('',#2095,#961);
#838=VECTOR('',#1383,1.);
#839=VECTOR('',#1386,1.);
#840=VECTOR('',#1389,1.);
#841=VECTOR('',#1392,1.);
#842=VECTOR('',#1393,1.);
#843=VECTOR('',#1394,1.);
#844=VECTOR('',#1397,1.);
#845=VECTOR('',#1400,1.);
#846=VECTOR('',#1403,1.);
#847=VECTOR('',#1408,1.);
#848=VECTOR('',#1411,1.);
#849=VECTOR('',#1414,1.);
#850=VECTOR('',#1415,1.);
#851=VECTOR('',#1416,1.);
#852=VECTOR('',#1423,1.);
#853=VECTOR('',#1426,1.);
#854=VECTOR('',#1427,1.);
#855=VECTOR('',#1428,1.);
#856=VECTOR('',#1429,1.);
#857=VECTOR('',#1432,1.);
#858=VECTOR('',#1433,1.);
#859=VECTOR('',#1436,1.);
#860=VECTOR('',#1437,1.);
#861=VECTOR('',#1438,1.);
#862=VECTOR('',#1439,1.);
#863=VECTOR('',#1446,1.);
#864=VECTOR('',#1447,1.);
#865=VECTOR('',#1448,1.);
#866=VECTOR('',#1449,1.);
#867=VECTOR('',#1450,1.);
#868=VECTOR('',#1451,1.);
#869=VECTOR('',#1454,1.);
#870=VECTOR('',#1455,1.);
#871=VECTOR('',#1456,1.);
#872=VECTOR('',#1457,1.);
#873=VECTOR('',#1458,1.);
#874=VECTOR('',#1461,1.);
#875=VECTOR('',#1462,1.);
#876=VECTOR('',#1463,1.);
#877=VECTOR('',#1464,1.);
#878=VECTOR('',#1465,1.);
#879=VECTOR('',#1466,1.);
#880=VECTOR('',#1469,1.);
#881=VECTOR('',#1470,1.);
#882=VECTOR('',#1471,1.);
#883=VECTOR('',#1472,1.);
#884=VECTOR('',#1477,1.);
#885=VECTOR('',#1478,1.);
#886=VECTOR('',#1479,1.);
#887=VECTOR('',#1480,1.);
#888=VECTOR('',#1481,1.);
#889=VECTOR('',#1482,1.);
#890=VECTOR('',#1485,1.);
#891=VECTOR('',#1486,1.);
#892=VECTOR('',#1487,1.);
#893=VECTOR('',#1488,1.);
#894=VECTOR('',#1489,1.);
#895=VECTOR('',#1492,1.);
#896=VECTOR('',#1493,1.);
#897=VECTOR('',#1494,1.);
#898=VECTOR('',#1495,1.);
#899=VECTOR('',#1496,1.);
#900=VECTOR('',#1497,1.);
#901=VECTOR('',#1500,1.);
#902=VECTOR('',#1501,1.);
#903=VECTOR('',#1502,1.);
#904=VECTOR('',#1503,1.);
#905=VECTOR('',#1506,1.);
#906=VECTOR('',#1507,1.);
#907=VECTOR('',#1508,1.);
#908=VECTOR('',#1509,1.);
#909=VECTOR('',#1514,1.);
#910=VECTOR('',#1515,1.);
#911=VECTOR('',#1516,1.);
#912=VECTOR('',#1517,1.);
#913=VECTOR('',#1520,1.);
#914=VECTOR('',#1521,1.);
#915=VECTOR('',#1522,1.);
#916=VECTOR('',#1523,1.);
#917=VECTOR('',#1526,1.);
#918=VECTOR('',#1527,1.);
#919=VECTOR('',#1528,1.);
#920=VECTOR('',#1529,1.);
#921=VECTOR('',#1534,1.);
#922=VECTOR('',#1535,1.);
#923=VECTOR('',#1538,1.);
#924=VECTOR('',#1541,1.);
#925=VECTOR('',#1544,1.);
#926=VECTOR('',#1547,1.);
#927=VECTOR('',#1550,1.);
#928=VECTOR('',#1551,1.);
#929=VECTOR('',#1554,1.);
#930=VECTOR('',#1557,1.);
#931=VECTOR('',#1560,1.);
#932=VECTOR('',#1561,1.);
#933=VECTOR('',#1564,1.);
#934=VECTOR('',#1625,1.);
#935=VECTOR('',#1628,1.);
#936=VECTOR('',#1635,1.);
#937=VECTOR('',#1638,1.);
#938=VECTOR('',#1641,1.);
#939=VECTOR('',#1644,1.);
#940=VECTOR('',#1649,1.);
#941=VECTOR('',#1652,1.);
#942=VECTOR('',#1655,1.);
#943=VECTOR('',#1658,1.);
#944=VECTOR('',#1665,1.);
#945=VECTOR('',#1668,1.);
#946=VECTOR('',#1671,1.);
#947=VECTOR('',#1674,1.);
#948=VECTOR('',#1677,1.);
#949=VECTOR('',#1680,1.);
#950=VECTOR('',#1685,1.);
#951=VECTOR('',#1688,1.);
#952=VECTOR('',#1691,1.);
#953=VECTOR('',#1694,1.);
#954=VECTOR('',#1697,1.);
#955=VECTOR('',#1700,1.);
#956=VECTOR('',#1705,1.);
#957=VECTOR('',#1708,1.);
#958=VECTOR('',#1711,1.);
#959=VECTOR('',#1714,1.);
#960=VECTOR('',#1717,1.);
#961=VECTOR('',#1720,1.);
#962=EDGE_LOOP('',(#90,#91,#92,#93,#94,#95,#96,#97,#98,#99,#100,#101,#102,
#103,#104));
#963=EDGE_LOOP('',(#105,#106,#107,#108));
#964=EDGE_LOOP('',(#109,#110,#111,#112));
#965=EDGE_LOOP('',(#113,#114,#115,#116));
#966=EDGE_LOOP('',(#117,#118,#119,#120));
#967=EDGE_LOOP('',(#121,#122,#123,#124));
#968=EDGE_LOOP('',(#125,#126,#127,#128));
#969=EDGE_LOOP('',(#129));
#970=EDGE_LOOP('',(#130));
#971=EDGE_LOOP('',(#131,#132,#133,#134,#135,#136,#137,#138));
#972=EDGE_LOOP('',(#139,#140,#141,#142,#143,#144));
#973=EDGE_LOOP('',(#145,#146,#147,#148,#149,#150));
#974=EDGE_LOOP('',(#151,#152,#153,#154));
#975=EDGE_LOOP('',(#155));
#976=EDGE_LOOP('',(#156,#157,#158,#159,#160,#161,#162));
#977=EDGE_LOOP('',(#163,#164,#165,#166,#167,#168,#169));
#978=EDGE_LOOP('',(#170,#171,#172,#173,#174,#175));
#979=EDGE_LOOP('',(#176,#177,#178,#179));
#980=EDGE_LOOP('',(#180,#181,#182,#183));
#981=EDGE_LOOP('',(#184));
#982=EDGE_LOOP('',(#185,#186,#187,#188,#189,#190));
#983=EDGE_LOOP('',(#191,#192,#193,#194));
#984=EDGE_LOOP('',(#195,#196,#197,#198));
#985=EDGE_LOOP('',(#199,#200,#201,#202,#203));
#986=EDGE_LOOP('',(#204,#205,#206,#207,#208,#209,#210,#211,#212,#213,#214,
#215,#216,#217,#218,#219,#220,#221,#222,#223,#224,#225,#226));
#987=EDGE_LOOP('',(#227,#228,#229,#230));
#988=EDGE_LOOP('',(#231,#232,#233,#234));
#989=EDGE_LOOP('',(#235,#236,#237,#238,#239,#240,#241,#242,#243));
#990=EDGE_LOOP('',(#244));
#991=EDGE_LOOP('',(#245,#246,#247,#248));
#992=EDGE_LOOP('',(#249,#250,#251,#252));
#993=EDGE_LOOP('',(#253,#254,#255,#256));
#994=EDGE_LOOP('',(#257,#258,#259,#260));
#995=EDGE_LOOP('',(#261,#262,#263,#264));
#996=EDGE_LOOP('',(#265,#266,#267,#268));
#997=EDGE_LOOP('',(#269,#270,#271,#272));
#998=EDGE_LOOP('',(#273,#274,#275,#276));
#999=EDGE_LOOP('',(#277,#278,#279,#280));
#1000=EDGE_LOOP('',(#281,#282,#283,#284));
#1001=EDGE_LOOP('',(#285,#286,#287,#288));
#1002=EDGE_LOOP('',(#289,#290,#291,#292));
#1003=EDGE_LOOP('',(#293,#294,#295,#296));
#1004=EDGE_LOOP('',(#297,#298,#299,#300));
#1005=EDGE_LOOP('',(#301,#302,#303,#304));
#1006=EDGE_LOOP('',(#305,#306,#307,#308));
#1007=EDGE_LOOP('',(#309,#310,#311,#312));
#1008=EDGE_LOOP('',(#313,#314,#315,#316));
#1009=EDGE_LOOP('',(#317,#318,#319,#320));
#1010=EDGE_LOOP('',(#321,#322,#323,#324));
#1011=EDGE_LOOP('',(#325,#326,#327,#328));
#1012=EDGE_LOOP('',(#329,#330,#331,#332));
#1013=EDGE_LOOP('',(#333,#334,#335,#336));
#1014=EDGE_LOOP('',(#337,#338,#339,#340));
#1015=EDGE_LOOP('',(#341,#342,#343,#344));
#1016=EDGE_LOOP('',(#345,#346,#347,#348));
#1017=EDGE_LOOP('',(#349,#350,#351,#352));
#1018=EDGE_LOOP('',(#353,#354,#355,#356));
#1019=EDGE_LOOP('',(#357,#358,#359,#360));
#1020=EDGE_LOOP('',(#361,#362,#363,#364));
#1021=EDGE_LOOP('',(#365,#366,#367,#368));
#1022=EDGE_LOOP('',(#369,#370,#371,#372));
#1023=EDGE_LOOP('',(#373,#374,#375,#376));
#1024=EDGE_LOOP('',(#377,#378,#379,#380));
#1025=EDGE_LOOP('',(#381,#382,#383,#384));
#1026=EDGE_LOOP('',(#385,#386,#387,#388));
#1027=EDGE_LOOP('',(#389,#390,#391,#392));
#1028=EDGE_LOOP('',(#393,#394,#395,#396));
#1029=EDGE_LOOP('',(#397,#398,#399,#400));
#1030=EDGE_LOOP('',(#401,#402,#403,#404));
#1031=EDGE_LOOP('',(#405,#406,#407,#408));
#1032=EDGE_LOOP('',(#409,#410,#411,#412));
#1033=EDGE_LOOP('',(#413,#414,#415,#416));
#1034=EDGE_LOOP('',(#417,#418,#419,#420,#421,#422));
#1035=EDGE_LOOP('',(#423));
#1036=EDGE_LOOP('',(#424));
#1037=EDGE_LOOP('',(#425));
#1038=EDGE_LOOP('',(#426));
#1039=EDGE_LOOP('',(#427));
#1040=EDGE_LOOP('',(#428));
#1041=EDGE_LOOP('',(#429));
#1042=EDGE_LOOP('',(#430));
#1043=EDGE_LOOP('',(#431));
#1044=EDGE_LOOP('',(#432));
#1045=EDGE_LOOP('',(#433));
#1046=FACE_BOUND('',#962,.T.);
#1047=FACE_BOUND('',#963,.T.);
#1048=FACE_BOUND('',#964,.T.);
#1049=FACE_BOUND('',#965,.T.);
#1050=FACE_BOUND('',#966,.T.);
#1051=FACE_BOUND('',#967,.T.);
#1052=FACE_BOUND('',#968,.T.);
#1053=FACE_BOUND('',#969,.T.);
#1054=FACE_BOUND('',#970,.T.);
#1055=FACE_BOUND('',#971,.T.);
#1056=FACE_BOUND('',#972,.T.);
#1057=FACE_BOUND('',#973,.T.);
#1058=FACE_BOUND('',#974,.T.);
#1059=FACE_BOUND('',#975,.T.);
#1060=FACE_BOUND('',#976,.T.);
#1061=FACE_BOUND('',#977,.T.);
#1062=FACE_BOUND('',#978,.T.);
#1063=FACE_BOUND('',#979,.T.);
#1064=FACE_BOUND('',#980,.T.);
#1065=FACE_BOUND('',#981,.T.);
#1066=FACE_BOUND('',#982,.T.);
#1067=FACE_BOUND('',#983,.T.);
#1068=FACE_BOUND('',#984,.T.);
#1069=FACE_BOUND('',#985,.T.);
#1070=FACE_BOUND('',#986,.T.);
#1071=FACE_BOUND('',#987,.T.);
#1072=FACE_BOUND('',#988,.T.);
#1073=FACE_BOUND('',#989,.T.);
#1074=FACE_BOUND('',#990,.T.);
#1075=FACE_BOUND('',#991,.T.);
#1076=FACE_BOUND('',#992,.T.);
#1077=FACE_BOUND('',#993,.T.);
#1078=FACE_BOUND('',#994,.T.);
#1079=FACE_BOUND('',#995,.T.);
#1080=FACE_BOUND('',#996,.T.);
#1081=FACE_BOUND('',#997,.T.);
#1082=FACE_BOUND('',#998,.T.);
#1083=FACE_BOUND('',#999,.T.);
#1084=FACE_BOUND('',#1000,.T.);
#1085=FACE_BOUND('',#1001,.T.);
#1086=FACE_BOUND('',#1002,.T.);
#1087=FACE_BOUND('',#1003,.T.);
#1088=FACE_BOUND('',#1004,.T.);
#1089=FACE_BOUND('',#1005,.T.);
#1090=FACE_BOUND('',#1006,.T.);
#1091=FACE_BOUND('',#1007,.T.);
#1092=FACE_BOUND('',#1008,.T.);
#1093=FACE_BOUND('',#1009,.T.);
#1094=FACE_BOUND('',#1010,.T.);
#1095=FACE_BOUND('',#1011,.T.);
#1096=FACE_BOUND('',#1012,.T.);
#1097=FACE_BOUND('',#1013,.T.);
#1098=FACE_BOUND('',#1014,.T.);
#1099=FACE_BOUND('',#1015,.T.);
#1100=FACE_BOUND('',#1016,.T.);
#1101=FACE_BOUND('',#1017,.T.);
#1102=FACE_BOUND('',#1018,.T.);
#1103=FACE_BOUND('',#1019,.T.);
#1104=FACE_BOUND('',#1020,.T.);
#1105=FACE_BOUND('',#1021,.T.);
#1106=FACE_BOUND('',#1022,.T.);
#1107=FACE_BOUND('',#1023,.T.);
#1108=FACE_BOUND('',#1024,.T.);
#1109=FACE_BOUND('',#1025,.T.);
#1110=FACE_BOUND('',#1026,.T.);
#1111=FACE_BOUND('',#1027,.T.);
#1112=FACE_BOUND('',#1028,.T.);
#1113=FACE_BOUND('',#1029,.T.);
#1114=FACE_BOUND('',#1030,.T.);
#1115=FACE_BOUND('',#1031,.T.);
#1116=FACE_BOUND('',#1032,.T.);
#1117=FACE_BOUND('',#1033,.T.);
#1118=FACE_BOUND('',#1034,.T.);
#1119=FACE_BOUND('',#1035,.T.);
#1120=FACE_BOUND('',#1036,.T.);
#1121=FACE_BOUND('',#1037,.T.);
#1122=FACE_BOUND('',#1038,.T.);
#1123=FACE_BOUND('',#1039,.T.);
#1124=FACE_BOUND('',#1040,.T.);
#1125=FACE_BOUND('',#1041,.T.);
#1126=FACE_BOUND('',#1042,.T.);
#1127=FACE_BOUND('',#1043,.T.);
#1128=FACE_BOUND('',#1044,.T.);
#1129=FACE_BOUND('',#1045,.T.);
#1130=PLANE('',#1259);
#1131=PLANE('',#1269);
#1132=PLANE('',#1273);
#1133=PLANE('',#1274);
#1134=PLANE('',#1275);
#1135=PLANE('',#1276);
#1136=PLANE('',#1279);
#1137=PLANE('',#1280);
#1138=PLANE('',#1281);
#1139=PLANE('',#1282);
#1140=PLANE('',#1284);
#1141=PLANE('',#1285);
#1142=PLANE('',#1286);
#1143=PLANE('',#1287);
#1144=PLANE('',#1288);
#1145=PLANE('',#1290);
#1146=PLANE('',#1291);
#1147=PLANE('',#1292);
#1148=PLANE('',#1294);
#1149=PLANE('',#1304);
#1150=PLANE('',#1332);
#1151=PLANE('',#1334);
#1152=PLANE('',#1335);
#1153=PLANE('',#1338);
#1154=PLANE('',#1340);
#1155=PLANE('',#1341);
#1156=PLANE('',#1343);
#1157=PLANE('',#1345);
#1158=PLANE('',#1347);
#1159=PLANE('',#1349);
#1160=PLANE('',#1351);
#1161=PLANE('',#1353);
#1162=PLANE('',#1354);
#1163=PLANE('',#1356);
#1164=PLANE('',#1358);
#1165=PLANE('',#1360);
#1166=PLANE('',#1361);
#1167=PLANE('',#1363);
#1168=PLANE('',#1365);
#1169=PLANE('',#1367);
#1170=PLANE('',#1372);
#1171=PLANE('',#1375);
#1172=PLANE('',#1378);
#1173=ADVANCED_FACE('',(#1046),#1130,.T.);
#1174=ADVANCED_FACE('',(#1047),#29,.F.);
#1175=ADVANCED_FACE('',(#1048),#1131,.F.);
#1176=ADVANCED_FACE('',(#1049),#30,.F.);
#1177=ADVANCED_FACE('',(#1050),#1132,.F.);
#1178=ADVANCED_FACE('',(#1051),#1133,.T.);
#1179=ADVANCED_FACE('',(#1052),#1134,.T.);
#1180=ADVANCED_FACE('',(#1053,#1054,#1055),#1135,.T.);
#1181=ADVANCED_FACE('',(#1056),#1136,.F.);
#1182=ADVANCED_FACE('',(#1057),#1137,.F.);
#1183=ADVANCED_FACE('',(#1058),#1138,.F.);
#1184=ADVANCED_FACE('',(#1059,#1060),#1139,.T.);
#1185=ADVANCED_FACE('',(#1061),#1140,.F.);
#1186=ADVANCED_FACE('',(#1062),#1141,.T.);
#1187=ADVANCED_FACE('',(#1063),#1142,.F.);
#1188=ADVANCED_FACE('',(#1064),#1143,.F.);
#1189=ADVANCED_FACE('',(#1065,#1066),#1144,.F.);
#1190=ADVANCED_FACE('',(#1067),#1145,.T.);
#1191=ADVANCED_FACE('',(#1068),#1146,.T.);
#1192=ADVANCED_FACE('',(#1069),#1147,.T.);
#1193=ADVANCED_FACE('',(#1070,#1071),#1148,.F.);
#1194=ADVANCED_FACE('',(#1072,#1073),#1149,.T.);
#1195=ADVANCED_FACE('',(#1074,#1075),#31,.F.);
#1196=ADVANCED_FACE('',(#1076),#32,.F.);
#1197=ADVANCED_FACE('',(#1077),#33,.F.);
#1198=ADVANCED_FACE('',(#1078),#34,.F.);
#1199=ADVANCED_FACE('',(#1079),#35,.F.);
#1200=ADVANCED_FACE('',(#1080),#36,.T.);
#1201=ADVANCED_FACE('',(#1081),#37,.T.);
#1202=ADVANCED_FACE('',(#1082),#38,.T.);
#1203=ADVANCED_FACE('',(#1083),#39,.T.);
#1204=ADVANCED_FACE('',(#1084),#1150,.T.);
#1205=ADVANCED_FACE('',(#1085),#14,.T.);
#1206=ADVANCED_FACE('',(#1086),#1151,.T.);
#1207=ADVANCED_FACE('',(#1087),#1152,.F.);
#1208=ADVANCED_FACE('',(#1088),#15,.T.);
#1209=ADVANCED_FACE('',(#1089),#1153,.F.);
#1210=ADVANCED_FACE('',(#1090),#16,.T.);
#1211=ADVANCED_FACE('',(#1091),#1154,.F.);
#1212=ADVANCED_FACE('',(#1092),#1155,.T.);
#1213=ADVANCED_FACE('',(#1093),#17,.T.);
#1214=ADVANCED_FACE('',(#1094),#1156,.T.);
#1215=ADVANCED_FACE('',(#1095),#18,.T.);
#1216=ADVANCED_FACE('',(#1096),#1157,.T.);
#1217=ADVANCED_FACE('',(#1097),#1158,.F.);
#1218=ADVANCED_FACE('',(#1098),#19,.T.);
#1219=ADVANCED_FACE('',(#1099),#1159,.F.);
#1220=ADVANCED_FACE('',(#1100),#20,.F.);
#1221=ADVANCED_FACE('',(#1101),#1160,.F.);
#1222=ADVANCED_FACE('',(#1102),#21,.F.);
#1223=ADVANCED_FACE('',(#1103),#1161,.F.);
#1224=ADVANCED_FACE('',(#1104),#1162,.T.);
#1225=ADVANCED_FACE('',(#1105),#22,.T.);
#1226=ADVANCED_FACE('',(#1106),#1163,.F.);
#1227=ADVANCED_FACE('',(#1107),#23,.F.);
#1228=ADVANCED_FACE('',(#1108),#1164,.T.);
#1229=ADVANCED_FACE('',(#1109),#24,.F.);
#1230=ADVANCED_FACE('',(#1110),#1165,.T.);
#1231=ADVANCED_FACE('',(#1111),#1166,.F.);
#1232=ADVANCED_FACE('',(#1112),#25,.F.);
#1233=ADVANCED_FACE('',(#1113),#1167,.F.);
#1234=ADVANCED_FACE('',(#1114),#26,.F.);
#1235=ADVANCED_FACE('',(#1115),#1168,.T.);
#1236=ADVANCED_FACE('',(#1116),#27,.F.);
#1237=ADVANCED_FACE('',(#1117),#1169,.F.);
#1238=ADVANCED_FACE('',(#1118),#40,.T.);
#1239=ADVANCED_FACE('',(#1119,#1120),#41,.F.);
#1240=ADVANCED_FACE('',(#1121,#1122),#42,.F.);
#1241=ADVANCED_FACE('',(#1123),#1170,.T.);
#1242=ADVANCED_FACE('',(#1124,#1125),#43,.F.);
#1243=ADVANCED_FACE('',(#1126),#1171,.T.);
#1244=ADVANCED_FACE('',(#1127,#1128),#44,.F.);
#1245=ADVANCED_FACE('',(#1129),#1172,.T.);
#1246=CLOSED_SHELL('',(#1173,#1174,#1175,#1176,#1177,#1178,#1179,#1180,
#1181,#1182,#1183,#1184,#1185,#1186,#1187,#1188,#1189,#1190,#1191,#1192,
#1193,#1194,#1195,#1196,#1197,#1198,#1199,#1200,#1201,#1202,#1203,#1204,
#1205,#1206,#1207,#1208,#1209,#1210,#1211,#1212,#1213,#1214,#1215,#1216,
#1217,#1218,#1219,#1220,#1221,#1222,#1223,#1224,#1225,#1226,#1227,#1228,
#1229,#1230,#1231,#1232,#1233,#1234,#1235,#1236,#1237,#1238,#1239,#1240,
#1241,#1242,#1243,#1244,#1245));
#1247=STYLED_ITEM('',(#1248),#1255);
#1248=PRESENTATION_STYLE_ASSIGNMENT((#1249));
#1249=SURFACE_STYLE_USAGE(.BOTH.,#1250);
#1250=SURFACE_SIDE_STYLE('',(#1251));
#1251=SURFACE_STYLE_FILL_AREA(#1252);
#1252=FILL_AREA_STYLE('',(#1253));
#1253=FILL_AREA_STYLE_COLOUR('',#1254);
#1254=COLOUR_RGB('',0.972549019607843,0.529411764705882,0.00392156862745098);
#1255=MANIFOLD_SOLID_BREP('Standoff-L',#1246);
#1256=SHAPE_DEFINITION_REPRESENTATION(#2117,#1257);
#1257=SHAPE_REPRESENTATION('Standoff-L',(#1258),#2112);
#1258=AXIS2_PLACEMENT_3D('',#1745,#1379,#1380);
#1259=AXIS2_PLACEMENT_3D('',#1746,#1381,#1382);
#1260=AXIS2_PLACEMENT_3D('',#1750,#1384,#1385);
#1261=AXIS2_PLACEMENT_3D('',#1754,#1387,#1388);
#1262=AXIS2_PLACEMENT_3D('',#1758,#1390,#1391);
#1263=AXIS2_PLACEMENT_3D('',#1766,#1395,#1396);
#1264=AXIS2_PLACEMENT_3D('',#1770,#1398,#1399);
#1265=AXIS2_PLACEMENT_3D('',#1774,#1401,#1402);
#1266=AXIS2_PLACEMENT_3D('',#1777,#1404,#1405);
#1267=AXIS2_PLACEMENT_3D('',#1778,#1406,#1407);
#1268=AXIS2_PLACEMENT_3D('',#1783,#1409,#1410);
#1269=AXIS2_PLACEMENT_3D('',#1786,#1412,#1413);
#1270=AXIS2_PLACEMENT_3D('',#1792,#1417,#1418);
#1271=AXIS2_PLACEMENT_3D('',#1793,#1419,#1420);
#1272=AXIS2_PLACEMENT_3D('',#1795,#1421,#1422);
#1273=AXIS2_PLACEMENT_3D('',#1798,#1424,#1425);
#1274=AXIS2_PLACEMENT_3D('',#1807,#1430,#1431);
#1275=AXIS2_PLACEMENT_3D('',#1810,#1434,#1435);
#1276=AXIS2_PLACEMENT_3D('',#1819,#1440,#1441);
#1277=AXIS2_PLACEMENT_3D('',#1820,#1442,#1443);
#1278=AXIS2_PLACEMENT_3D('',#1822,#1444,#1445);
#1279=AXIS2_PLACEMENT_3D('',#1834,#1452,#1453);
#1280=AXIS2_PLACEMENT_3D('',#1844,#1459,#1460);
#1281=AXIS2_PLACEMENT_3D('',#1857,#1467,#1468);
#1282=AXIS2_PLACEMENT_3D('',#1866,#1473,#1474);
#1283=AXIS2_PLACEMENT_3D('',#1867,#1475,#1476);
#1284=AXIS2_PLACEMENT_3D('',#1880,#1483,#1484);
#1285=AXIS2_PLACEMENT_3D('',#1889,#1490,#1491);
#1286=AXIS2_PLACEMENT_3D('',#1902,#1498,#1499);
#1287=AXIS2_PLACEMENT_3D('',#1911,#1504,#1505);
#1288=AXIS2_PLACEMENT_3D('',#1920,#1510,#1511);
#1289=AXIS2_PLACEMENT_3D('',#1921,#1512,#1513);
#1290=AXIS2_PLACEMENT_3D('',#1929,#1518,#1519);
#1291=AXIS2_PLACEMENT_3D('',#1938,#1524,#1525);
#1292=AXIS2_PLACEMENT_3D('',#1947,#1530,#1531);
#1293=AXIS2_PLACEMENT_3D('',#1948,#1532,#1533);
#1294=AXIS2_PLACEMENT_3D('',#1953,#1536,#1537);
#1295=AXIS2_PLACEMENT_3D('',#1957,#1539,#1540);
#1296=AXIS2_PLACEMENT_3D('',#1960,#1542,#1543);
#1297=AXIS2_PLACEMENT_3D('',#1964,#1545,#1546);
#1298=AXIS2_PLACEMENT_3D('',#1968,#1548,#1549);
#1299=AXIS2_PLACEMENT_3D('',#1973,#1552,#1553);
#1300=AXIS2_PLACEMENT_3D('',#1977,#1555,#1556);
#1301=AXIS2_PLACEMENT_3D('',#1981,#1558,#1559);
#1302=AXIS2_PLACEMENT_3D('',#1986,#1562,#1563);
#1303=AXIS2_PLACEMENT_3D('',#1990,#1565,#1566);
#1304=AXIS2_PLACEMENT_3D('',#1991,#1567,#1568);
#1305=AXIS2_PLACEMENT_3D('',#1992,#1569,#1570);
#1306=AXIS2_PLACEMENT_3D('',#1993,#1571,#1572);
#1307=AXIS2_PLACEMENT_3D('',#1994,#1573,#1574);
#1308=AXIS2_PLACEMENT_3D('',#1995,#1575,#1576);
#1309=AXIS2_PLACEMENT_3D('',#1996,#1577,#1578);
#1310=AXIS2_PLACEMENT_3D('',#2011,#1579,#1580);
#1311=AXIS2_PLACEMENT_3D('',#2012,#1581,#1582);
#1312=AXIS2_PLACEMENT_3D('',#2013,#1583,#1584);
#1313=AXIS2_PLACEMENT_3D('',#2014,#1585,#1586);
#1314=AXIS2_PLACEMENT_3D('',#2015,#1587,#1588);
#1315=AXIS2_PLACEMENT_3D('',#2016,#1589,#1590);
#1316=AXIS2_PLACEMENT_3D('',#2017,#1591,#1592);
#1317=AXIS2_PLACEMENT_3D('',#2018,#1593,#1594);
#1318=AXIS2_PLACEMENT_3D('',#2019,#1595,#1596);
#1319=AXIS2_PLACEMENT_3D('',#2020,#1597,#1598);
#1320=AXIS2_PLACEMENT_3D('',#2021,#1599,#1600);
#1321=AXIS2_PLACEMENT_3D('',#2022,#1601,#1602);
#1322=AXIS2_PLACEMENT_3D('',#2023,#1603,#1604);
#1323=AXIS2_PLACEMENT_3D('',#2024,#1605,#1606);
#1324=AXIS2_PLACEMENT_3D('',#2025,#1607,#1608);
#1325=AXIS2_PLACEMENT_3D('',#2026,#1609,#1610);
#1326=AXIS2_PLACEMENT_3D('',#2027,#1611,#1612);
#1327=AXIS2_PLACEMENT_3D('',#2028,#1613,#1614);
#1328=AXIS2_PLACEMENT_3D('',#2029,#1615,#1616);
#1329=AXIS2_PLACEMENT_3D('',#2030,#1617,#1618);
#1330=AXIS2_PLACEMENT_3D('',#2031,#1619,#1620);
#1331=AXIS2_PLACEMENT_3D('',#2032,#1621,#1622);
#1332=AXIS2_PLACEMENT_3D('',#2033,#1623,#1624);
#1333=AXIS2_PLACEMENT_3D('',#2035,#1626,#1627);
#1334=AXIS2_PLACEMENT_3D('',#2037,#1629,#1630);
#1335=AXIS2_PLACEMENT_3D('',#2038,#1631,#1632);
#1336=AXIS2_PLACEMENT_3D('',#2039,#1633,#1634);
#1337=AXIS2_PLACEMENT_3D('',#2041,#1636,#1637);
#1338=AXIS2_PLACEMENT_3D('',#2043,#1639,#1640);
#1339=AXIS2_PLACEMENT_3D('',#2045,#1642,#1643);
#1340=AXIS2_PLACEMENT_3D('',#2047,#1645,#1646);
#1341=AXIS2_PLACEMENT_3D('',#2048,#1647,#1648);
#1342=AXIS2_PLACEMENT_3D('',#2050,#1650,#1651);
#1343=AXIS2_PLACEMENT_3D('',#2052,#1653,#1654);
#1344=AXIS2_PLACEMENT_3D('',#2054,#1656,#1657);
#1345=AXIS2_PLACEMENT_3D('',#2056,#1659,#1660);
#1346=AXIS2_PLACEMENT_3D('',#2057,#1661,#1662);
#1347=AXIS2_PLACEMENT_3D('',#2058,#1663,#1664);
#1348=AXIS2_PLACEMENT_3D('',#2060,#1666,#1667);
#1349=AXIS2_PLACEMENT_3D('',#2062,#1669,#1670);
#1350=AXIS2_PLACEMENT_3D('',#2064,#1672,#1673);
#1351=AXIS2_PLACEMENT_3D('',#2066,#1675,#1676);
#1352=AXIS2_PLACEMENT_3D('',#2068,#1678,#1679);
#1353=AXIS2_PLACEMENT_3D('',#2070,#1681,#1682);
#1354=AXIS2_PLACEMENT_3D('',#2071,#1683,#1684);
#1355=AXIS2_PLACEMENT_3D('',#2073,#1686,#1687);
#1356=AXIS2_PLACEMENT_3D('',#2075,#1689,#1690);
#1357=AXIS2_PLACEMENT_3D('',#2077,#1692,#1693);
#1358=AXIS2_PLACEMENT_3D('',#2079,#1695,#1696);
#1359=AXIS2_PLACEMENT_3D('',#2081,#1698,#1699);
#1360=AXIS2_PLACEMENT_3D('',#2083,#1701,#1702);
#1361=AXIS2_PLACEMENT_3D('',#2084,#1703,#1704);
#1362=AXIS2_PLACEMENT_3D('',#2086,#1706,#1707);
#1363=AXIS2_PLACEMENT_3D('',#2088,#1709,#1710);
#1364=AXIS2_PLACEMENT_3D('',#2090,#1712,#1713);
#1365=AXIS2_PLACEMENT_3D('',#2092,#1715,#1716);
#1366=AXIS2_PLACEMENT_3D('',#2094,#1718,#1719);
#1367=AXIS2_PLACEMENT_3D('',#2096,#1721,#1722);
#1368=AXIS2_PLACEMENT_3D('',#2097,#1723,#1724);
#1369=AXIS2_PLACEMENT_3D('',#2098,#1725,#1726);
#1370=AXIS2_PLACEMENT_3D('',#2099,#1727,#1728);
#1371=AXIS2_PLACEMENT_3D('',#2100,#1729,#1730);
#1372=AXIS2_PLACEMENT_3D('',#2102,#1731,#1732);
#1373=AXIS2_PLACEMENT_3D('',#2103,#1733,#1734);
#1374=AXIS2_PLACEMENT_3D('',#2104,#1735,#1736);
#1375=AXIS2_PLACEMENT_3D('',#2106,#1737,#1738);
#1376=AXIS2_PLACEMENT_3D('',#2107,#1739,#1740);
#1377=AXIS2_PLACEMENT_3D('',#2108,#1741,#1742);
#1378=AXIS2_PLACEMENT_3D('',#2110,#1743,#1744);
#1379=DIRECTION('',(0.,0.,1.));
#1380=DIRECTION('',(1.,0.,0.));
#1381=DIRECTION('',(1.,0.,0.));
#1382=DIRECTION('',(0.,1.,0.));
#1383=DIRECTION('',(0.,-1.,0.));
#1384=DIRECTION('',(1.,0.,0.));
#1385=DIRECTION('',(0.,0.,-1.));
#1386=DIRECTION('',(0.,-0.496138938356935,-0.868243142124402));
#1387=DIRECTION('',(1.,0.,0.));
#1388=DIRECTION('',(0.,0.,-1.));
#1389=DIRECTION('',(0.,0.,-1.));
#1390=DIRECTION('',(1.,0.,0.));
#1391=DIRECTION('',(0.,0.,-1.));
#1392=DIRECTION('',(0.,0.447213595500878,-0.894427190999456));
#1393=DIRECTION('',(0.,-1.,1.21430643318376E-16));
#1394=DIRECTION('',(0.,0.,1.));
#1395=DIRECTION('',(1.,0.,0.));
#1396=DIRECTION('',(0.,0.,-1.));
#1397=DIRECTION('',(0.,-1.,0.));
#1398=DIRECTION('',(1.,0.,0.));
#1399=DIRECTION('',(0.,0.,-1.));
#1400=DIRECTION('',(0.,-0.447213595500878,0.894427190999456));
#1401=DIRECTION('',(1.,0.,0.));
#1402=DIRECTION('',(0.,0.,-1.));
#1403=DIRECTION('',(0.,0.496138938356935,0.868243142124402));
#1404=DIRECTION('',(-1.,0.,0.));
#1405=DIRECTION('',(0.,0.,1.));
#1406=DIRECTION('',(-1.,0.,0.));
#1407=DIRECTION('',(0.,0.,-1.));
#1408=DIRECTION('',(-1.,0.,0.));
#1409=DIRECTION('',(-1.,0.,0.));
#1410=DIRECTION('',(0.,0.,-1.));
#1411=DIRECTION('',(-1.,0.,0.));
#1412=DIRECTION('',(0.,-0.868243142124402,0.496138938356935));
#1413=DIRECTION('',(0.,-0.496138938356935,-0.868243142124402));
#1414=DIRECTION('',(0.,0.496138938356935,0.868243142124402));
#1415=DIRECTION('',(0.,0.496138938356935,0.868243142124402));
#1416=DIRECTION('',(-1.,0.,0.));
#1417=DIRECTION('',(-1.,0.,0.));
#1418=DIRECTION('',(0.,0.,1.));
#1419=DIRECTION('',(-1.,0.,0.));
#1420=DIRECTION('',(0.,0.,-1.));
#1421=DIRECTION('',(-1.,0.,0.));
#1422=DIRECTION('',(0.,0.,-1.));
#1423=DIRECTION('',(-1.,0.,0.));
#1424=DIRECTION('',(0.,-0.868243142124402,0.496138938356935));
#1425=DIRECTION('',(0.,-0.496138938356935,-0.868243142124402));
#1426=DIRECTION('',(-1.,0.,0.));
#1427=DIRECTION('',(0.,0.496138938356935,0.868243142124402));
#1428=DIRECTION('',(-1.,0.,0.));
#1429=DIRECTION('',(0.,0.496138938356935,0.868243142124402));
#1430=DIRECTION('',(0.,-0.868243142124402,0.496138938356935));
#1431=DIRECTION('',(0.,-0.496138938356935,-0.868243142124402));
#1432=DIRECTION('',(0.,0.496138938356935,0.868243142124402));
#1433=DIRECTION('',(0.,0.496138938356935,0.868243142124402));
#1434=DIRECTION('',(0.,-0.894427190999456,-0.447213595500878));
#1435=DIRECTION('',(0.,0.447213595500878,-0.894427190999456));
#1436=DIRECTION('',(-1.,0.,0.));
#1437=DIRECTION('',(0.,-0.447213595500878,0.894427190999456));
#1438=DIRECTION('',(-1.,0.,0.));
#1439=DIRECTION('',(0.,0.447213595500878,-0.894427190999456));
#1440=DIRECTION('',(0.,-1.21430643318376E-16,-1.));
#1441=DIRECTION('',(0.,1.,-1.21430643318376E-16));
#1442=DIRECTION('',(0.,-1.21430643318376E-16,-1.));
#1443=DIRECTION('',(0.,1.,-1.21430643318376E-16));
#1444=DIRECTION('',(0.,-1.21430643318376E-16,-1.));
#1445=DIRECTION('',(0.,1.,-1.21430643318376E-16));
#1446=DIRECTION('',(0.666666666666478,0.745355992500099,-8.14581519034073E-17));
#1447=DIRECTION('',(-0.666666666666478,0.745355992500099,-8.14581519034073E-17));
#1448=DIRECTION('',(0.,-1.,1.21430643318376E-16));
#1449=DIRECTION('',(-0.707106781186547,-0.707106781186548,8.58644313342691E-17));
#1450=DIRECTION('',(-1.,0.,0.));
#1451=DIRECTION('',(0.707106781186547,-0.707106781186548,8.58644313342691E-17));
#1452=DIRECTION('',(0.,-1.,0.));
#1453=DIRECTION('',(0.,0.,-1.));
#1454=DIRECTION('',(0.,0.,1.));
#1455=DIRECTION('',(-1.,0.,0.));
#1456=DIRECTION('',(0.,0.,1.));
#1457=DIRECTION('',(1.,0.,0.));
#1458=DIRECTION('',(0.,0.,-1.));
#1459=DIRECTION('',(0.,0.,1.));
#1460=DIRECTION('',(1.,0.,0.));
#1461=DIRECTION('',(-1.,0.,0.));
#1462=DIRECTION('',(0.,-1.,0.));
#1463=DIRECTION('',(1.,0.,0.));
#1464=DIRECTION('',(0.,-1.,0.));
#1465=DIRECTION('',(-1.,0.,0.));
#1466=DIRECTION('',(0.,1.,0.));
#1467=DIRECTION('',(0.,-1.,0.));
#1468=DIRECTION('',(0.,0.,-1.));
#1469=DIRECTION('',(-1.,0.,0.));
#1470=DIRECTION('',(0.,0.,-1.));
#1471=DIRECTION('',(-1.,0.,0.));
#1472=DIRECTION('',(0.,0.,1.));
#1473=DIRECTION('',(0.,-5.03349562960167E-16,1.));
#1474=DIRECTION('',(0.,-1.,-5.03349562960167E-16));
#1475=DIRECTION('',(0.,0.,1.));
#1476=DIRECTION('',(1.,0.,0.));
#1477=DIRECTION('',(0.,1.,5.03349562960167E-16));
#1478=DIRECTION('',(-0.707106781186548,0.707106781186547,3.55921889276419E-16));
#1479=DIRECTION('',(0.707106781186547,0.707106781186548,3.5592188927642E-16));
#1480=DIRECTION('',(0.,1.,5.03349562960167E-16));
#1481=DIRECTION('',(-0.655610068107163,0.755099621637119,3.95689250705903E-16));
#1482=DIRECTION('',(-1.,0.,0.));
#1483=DIRECTION('',(0.,0.868243142124402,-0.496138938356935));
#1484=DIRECTION('',(0.,0.496138938356935,0.868243142124402));
#1485=DIRECTION('',(0.655610068107162,0.374634324632765,0.65561006810716));
#1486=DIRECTION('',(0.,-0.496138938356935,-0.868243142124402));
#1487=DIRECTION('',(0.,-0.496138938356935,-0.868243142124402));
#1488=DIRECTION('',(-1.,0.,0.));
#1489=DIRECTION('',(0.,-0.496138938356935,-0.868243142124402));
#1490=DIRECTION('',(0.,0.,1.));
#1491=DIRECTION('',(1.,0.,0.));
#1492=DIRECTION('',(-1.,0.,0.));
#1493=DIRECTION('',(0.,1.,0.));
#1494=DIRECTION('',(1.,0.,0.));
#1495=DIRECTION('',(0.,1.,0.));
#1496=DIRECTION('',(-1.,0.,0.));
#1497=DIRECTION('',(0.,-1.,0.));
#1498=DIRECTION('',(0.,-0.894427190999456,-0.447213595500878));
#1499=DIRECTION('',(0.,0.447213595500878,-0.894427190999456));
#1500=DIRECTION('',(-1.,0.,0.));
#1501=DIRECTION('',(0.,0.447213595500878,-0.894427190999456));
#1502=DIRECTION('',(-1.,0.,0.));
#1503=DIRECTION('',(0.,-0.447213595500878,0.894427190999456));
#1504=DIRECTION('',(0.,-0.868243142124402,0.496138938356935));
#1505=DIRECTION('',(0.,-0.496138938356935,-0.868243142124402));
#1506=DIRECTION('',(-1.,0.,0.));
#1507=DIRECTION('',(0.,-0.496138938356935,-0.868243142124402));
#1508=DIRECTION('',(-1.,0.,0.));
#1509=DIRECTION('',(0.,0.496138938356935,0.868243142124402));
#1510=DIRECTION('',(0.,0.,-1.));
#1511=DIRECTION('',(-1.,0.,0.));
#1512=DIRECTION('',(0.,0.,1.));
#1513=DIRECTION('',(1.,0.,0.));
#1514=DIRECTION('',(0.,-1.,0.));
#1515=DIRECTION('',(-1.,0.,0.));
#1516=DIRECTION('',(-0.655610068107161,0.755099621637122,0.));
#1517=DIRECTION('',(0.655610068107161,0.755099621637122,0.));
#1518=DIRECTION('',(0.,-0.868243142124402,0.496138938356935));
#1519=DIRECTION('',(0.,-0.496138938356935,-0.868243142124402));
#1520=DIRECTION('',(0.,0.496138938356935,0.868243142124402));
#1521=DIRECTION('',(-1.,0.,0.));
#1522=DIRECTION('',(0.,-0.496138938356935,-0.868243142124402));
#1523=DIRECTION('',(-1.,0.,0.));
#1524=DIRECTION('',(0.,-1.,0.));
#1525=DIRECTION('',(0.,0.,-1.));
#1526=DIRECTION('',(-1.,0.,0.));
#1527=DIRECTION('',(0.,0.,1.));
#1528=DIRECTION('',(-1.,0.,0.));
#1529=DIRECTION('',(0.,0.,-1.));
#1530=DIRECTION('',(1.,0.,0.));
#1531=DIRECTION('',(0.,1.,0.));
#1532=DIRECTION('',(1.,0.,0.));
#1533=DIRECTION('',(0.,0.,-1.));
#1534=DIRECTION('',(0.,0.,1.));
#1535=DIRECTION('',(0.,1.,0.));
#1536=DIRECTION('',(1.,0.,0.));
#1537=DIRECTION('',(0.,1.,0.));
#1538=DIRECTION('',(0.,0.496138938356935,0.868243142124402));
#1539=DIRECTION('',(1.,0.,0.));
#1540=DIRECTION('',(0.,0.,-1.));
#1541=DIRECTION('',(0.,-0.496138938356935,-0.868243142124402));
#1542=DIRECTION('',(1.,0.,0.));
#1543=DIRECTION('',(0.,0.,-1.));
#1544=DIRECTION('',(0.,0.447213595500878,-0.894427190999456));
#1545=DIRECTION('',(1.,0.,0.));
#1546=DIRECTION('',(0.,0.,-1.));
#1547=DIRECTION('',(0.,1.,0.));
#1548=DIRECTION('',(1.,0.,0.));
#1549=DIRECTION('',(0.,0.,-1.));
#1550=DIRECTION('',(0.,0.496138938356935,0.868243142124402));
#1551=DIRECTION('',(0.,0.,-1.));
#1552=DIRECTION('',(1.,0.,0.));
#1553=DIRECTION('',(0.,0.,-1.));
#1554=DIRECTION('',(0.,-1.,0.));
#1555=DIRECTION('',(1.,0.,0.));
#1556=DIRECTION('',(0.,0.,-1.));
#1557=DIRECTION('',(0.,-0.496138938356935,-0.868243142124402));
#1558=DIRECTION('',(1.,0.,0.));
#1559=DIRECTION('',(0.,0.,-1.));
#1560=DIRECTION('',(0.,0.,-1.));
#1561=DIRECTION('',(0.,-0.447213595500878,0.894427190999456));
#1562=DIRECTION('',(1.,0.,0.));
#1563=DIRECTION('',(0.,0.,-1.));
#1564=DIRECTION('',(0.,0.,1.));
#1565=DIRECTION('',(1.,0.,0.));
#1566=DIRECTION('',(0.,0.,-1.));
#1567=DIRECTION('',(1.,0.,0.));
#1568=DIRECTION('',(0.,1.,0.));
#1569=DIRECTION('',(1.,0.,0.));
#1570=DIRECTION('',(0.,0.,-1.));
#1571=DIRECTION('',(1.,0.,0.));
#1572=DIRECTION('',(0.,0.,-1.));
#1573=DIRECTION('',(1.,0.,0.));
#1574=DIRECTION('',(0.,0.,-1.));
#1575=DIRECTION('',(1.,0.,0.));
#1576=DIRECTION('',(0.,0.,-1.));
#1577=DIRECTION('',(1.,0.,0.));
#1578=DIRECTION('',(0.,0.,-1.));
#1579=DIRECTION('',(1.,0.,0.));
#1580=DIRECTION('',(0.,0.,-1.));
#1581=DIRECTION('',(1.,0.,0.));
#1582=DIRECTION('',(0.,0.,-1.));
#1583=DIRECTION('',(1.,0.,0.));
#1584=DIRECTION('',(0.,0.,-1.));
#1585=DIRECTION('',(-1.,0.,0.));
#1586=DIRECTION('',(0.,0.,1.));
#1587=DIRECTION('',(1.,0.,0.));
#1588=DIRECTION('',(0.,0.,-1.));
#1589=DIRECTION('',(-1.,0.,0.));
#1590=DIRECTION('',(0.,0.,1.));
#1591=DIRECTION('',(1.,0.,0.));
#1592=DIRECTION('',(0.,0.,-1.));
#1593=DIRECTION('',(1.,0.,0.));
#1594=DIRECTION('',(0.,0.,-1.));
#1595=DIRECTION('',(1.,0.,0.));
#1596=DIRECTION('',(0.,0.,-1.));
#1597=DIRECTION('',(1.,0.,0.));
#1598=DIRECTION('',(0.,0.,-1.));
#1599=DIRECTION('',(1.,0.,0.));
#1600=DIRECTION('',(0.,0.,-1.));
#1601=DIRECTION('',(-1.,0.,0.));
#1602=DIRECTION('',(0.,0.,1.));
#1603=DIRECTION('',(1.,0.,0.));
#1604=DIRECTION('',(0.,0.,-1.));
#1605=DIRECTION('',(1.,0.,0.));
#1606=DIRECTION('',(0.,0.,-1.));
#1607=DIRECTION('',(-1.,0.,0.));
#1608=DIRECTION('',(0.,0.,1.));
#1609=DIRECTION('',(1.,0.,0.));
#1610=DIRECTION('',(0.,0.,-1.));
#1611=DIRECTION('',(-1.,0.,0.));
#1612=DIRECTION('',(0.,0.,1.));
#1613=DIRECTION('',(1.,0.,0.));
#1614=DIRECTION('',(0.,0.,-1.));
#1615=DIRECTION('',(1.,0.,0.));
#1616=DIRECTION('',(0.,0.,-1.));
#1617=DIRECTION('',(-1.,0.,0.));
#1618=DIRECTION('',(0.,0.,1.));
#1619=DIRECTION('',(1.,0.,0.));
#1620=DIRECTION('',(0.,0.,-1.));
#1621=DIRECTION('',(1.,0.,0.));
#1622=DIRECTION('',(0.,0.,-1.));
#1623=DIRECTION('',(0.707106781186547,0.,-0.707106781186548));
#1624=DIRECTION('',(0.,-1.,0.));
#1625=DIRECTION('',(-0.707106781186548,0.,-0.707106781186547));
#1626=DIRECTION('',(-1.,0.,0.));
#1627=DIRECTION('',(0.,0.,1.));
#1628=DIRECTION('',(-0.707106781186548,0.707106781186547,0.));
#1629=DIRECTION('',(0.707106781186547,0.707106781186548,0.));
#1630=DIRECTION('',(0.,0.,-1.));
#1631=DIRECTION('',(-0.707106781186548,0.61394061351488,-0.350823207722883));
#1632=DIRECTION('',(0.,0.496138938356935,0.868243142124402));
#1633=DIRECTION('',(-0.707106781186548,0.61394061351488,-0.350823207722883));
#1634=DIRECTION('',(0.707106781186548,0.61394061351488,-0.350823207722883));
#1635=DIRECTION('',(-0.707106781186547,-0.613940613514878,0.350823207722886));
#1636=DIRECTION('',(-1.,0.,0.));
#1637=DIRECTION('',(0.,0.,1.));
#1638=DIRECTION('',(-0.707106781186544,-0.707106781186551,0.));
#1639=DIRECTION('',(-0.707106781186545,0.70710678118655,0.));
#1640=DIRECTION('',(0.,0.,1.));
#1641=DIRECTION('',(-0.70710678118655,-0.707106781186545,0.));
#1642=DIRECTION('',(-1.,0.,0.));
#1643=DIRECTION('',(0.,0.,1.));
#1644=DIRECTION('',(-0.70710678118655,-0.632455532033348,-0.316227766017489));
#1645=DIRECTION('',(-0.707106781186546,0.632455532033352,0.316227766017489));
#1646=DIRECTION('',(0.,-0.447213595500878,0.894427190999456));
#1647=DIRECTION('',(-0.707106781186546,-0.632455532033352,-0.316227766017489));
#1648=DIRECTION('',(0.,0.447213595500878,-0.894427190999456));
#1649=DIRECTION('',(0.70710678118655,-0.632455532033348,-0.316227766017489));
#1650=DIRECTION('',(1.,0.,0.));
#1651=DIRECTION('',(0.,0.,-1.));
#1652=DIRECTION('',(0.70710678118655,-0.707106781186545,0.));
#1653=DIRECTION('',(-0.707106781186545,-0.70710678118655,0.));
#1654=DIRECTION('',(0.,0.,-1.));
#1655=DIRECTION('',(0.70710678118655,-0.707106781186545,0.));
#1656=DIRECTION('',(1.,0.,0.));
#1657=DIRECTION('',(0.,0.,-1.));
#1658=DIRECTION('',(0.707106781186548,-0.613940613514878,0.350823207722885));
#1659=DIRECTION('',(-0.707106781186548,-0.61394061351488,0.350823207722883));
#1660=DIRECTION('',(0.,-0.496138938356935,-0.868243142124402));
#1661=DIRECTION('',(-0.707106781186548,-0.61394061351488,0.350823207722883));
#1662=DIRECTION('',(0.707106781186548,-0.61394061351488,0.350823207722883));
#1663=DIRECTION('',(0.707106781186548,-0.707106781186547,0.));
#1664=DIRECTION('',(0.,0.,1.));
#1665=DIRECTION('',(0.707106781186547,0.707106781186548,0.));
#1666=DIRECTION('',(1.,0.,0.));
#1667=DIRECTION('',(0.,0.,-1.));
#1668=DIRECTION('',(0.707106781186547,0.,-0.707106781186548));
#1669=DIRECTION('',(0.707106781186548,0.,0.707106781186547));
#1670=DIRECTION('',(0.,1.,0.));
#1671=DIRECTION('',(0.707106781186547,0.,-0.707106781186548));
#1672=DIRECTION('',(-1.,0.,0.));
#1673=DIRECTION('',(0.,0.,1.));
#1674=DIRECTION('',(0.707106781186547,0.613940613514881,-0.350823207722882));
#1675=DIRECTION('',(0.707106781186547,-0.613940613514881,0.350823207722884));
#1676=DIRECTION('',(0.,0.496138938356935,0.868243142124402));
#1677=DIRECTION('',(0.707106781186548,0.613940613514879,-0.350823207722884));
#1678=DIRECTION('',(-1.,0.,0.));
#1679=DIRECTION('',(0.,0.,1.));
#1680=DIRECTION('',(0.707106781186547,0.707106781186548,0.));
#1681=DIRECTION('',(0.707106781186548,-0.707106781186547,0.));
#1682=DIRECTION('',(0.,0.,1.));
#1683=DIRECTION('',(0.707106781186548,0.707106781186547,0.));
#1684=DIRECTION('',(0.,0.,-1.));
#1685=DIRECTION('',(-0.707106781186547,0.707106781186548,0.));
#1686=DIRECTION('',(-1.,0.,0.));
#1687=DIRECTION('',(0.,0.,1.));
#1688=DIRECTION('',(-0.707106781186548,0.,0.707106781186548));
#1689=DIRECTION('',(-0.707106781186547,0.,-0.707106781186548));
#1690=DIRECTION('',(0.,1.,0.));
#1691=DIRECTION('',(-0.707106781186548,0.,0.707106781186547));
#1692=DIRECTION('',(1.,0.,0.));
#1693=DIRECTION('',(0.,0.,-1.));
#1694=DIRECTION('',(-0.707106781186548,0.632455532033351,0.316227766017487));
#1695=DIRECTION('',(0.707106781186547,0.632455532033351,0.316227766017488));
#1696=DIRECTION('',(0.,0.447213595500878,-0.894427190999456));
#1697=DIRECTION('',(-0.707106781186547,0.632455532033351,0.316227766017488));
#1698=DIRECTION('',(1.,0.,0.));
#1699=DIRECTION('',(0.,0.,-1.));
#1700=DIRECTION('',(-0.707106781186545,0.613940613514883,-0.350823207722883));
#1701=DIRECTION('',(0.707106781186548,0.613940613514879,-0.350823207722883));
#1702=DIRECTION('',(0.,-0.496138938356935,-0.868243142124402));
#1703=DIRECTION('',(0.707106781186548,-0.613940613514879,0.350823207722883));
#1704=DIRECTION('',(0.,0.496138938356935,0.868243142124402));
#1705=DIRECTION('',(0.707106781186548,0.613940613514879,-0.350823207722884));
#1706=DIRECTION('',(-1.,0.,0.));
#1707=DIRECTION('',(0.,0.,1.));
#1708=DIRECTION('',(0.707106781186544,0.632455532033354,0.316227766017489));
#1709=DIRECTION('',(0.707106781186547,-0.632455532033351,-0.316227766017488));
#1710=DIRECTION('',(0.,-0.447213595500878,0.894427190999456));
#1711=DIRECTION('',(0.707106781186548,0.632455532033351,0.316227766017488));
#1712=DIRECTION('',(-1.,0.,0.));
#1713=DIRECTION('',(0.,0.,1.));
#1714=DIRECTION('',(0.707106781186548,0.,0.707106781186547));
#1715=DIRECTION('',(-0.707106781186548,0.,0.707106781186547));
#1716=DIRECTION('',(0.,-1.,0.));
#1717=DIRECTION('',(0.707106781186547,0.,0.707106781186548));
#1718=DIRECTION('',(-1.,0.,0.));
#1719=DIRECTION('',(0.,0.,1.));
#1720=DIRECTION('',(0.707106781186545,-0.613940613514883,0.350823207722883));
#1721=DIRECTION('',(0.707106781186545,0.613940613514882,-0.350823207722885));
#1722=DIRECTION('',(0.,-0.496138938356935,-0.868243142124402));
#1723=DIRECTION('',(1.,0.,0.));
#1724=DIRECTION('',(0.,0.,-1.));
#1725=DIRECTION('',(0.,0.,1.));
#1726=DIRECTION('',(1.,0.,0.));
#1727=DIRECTION('',(0.,0.,1.));
#1728=DIRECTION('',(1.,0.,0.));
#1729=DIRECTION('',(0.,0.,1.));
#1730=DIRECTION('',(1.,0.,0.));
#1731=DIRECTION('',(0.,0.,1.));
#1732=DIRECTION('',(1.,0.,0.));
#1733=DIRECTION('',(0.,-1.21430643318376E-16,-1.));
#1734=DIRECTION('',(0.,1.,-1.21430643318376E-16));
#1735=DIRECTION('',(0.,-1.21430643318376E-16,-1.));
#1736=DIRECTION('',(0.,1.,-1.21430643318376E-16));
#1737=DIRECTION('',(0.,-1.21430643318376E-16,-1.));
#1738=DIRECTION('',(1.,0.,0.));
#1739=DIRECTION('',(0.,-1.21430643318376E-16,-1.));
#1740=DIRECTION('',(0.,1.,-1.21430643318376E-16));
#1741=DIRECTION('',(0.,-1.21430643318376E-16,-1.));
#1742=DIRECTION('',(0.,1.,-1.21430643318376E-16));
#1743=DIRECTION('',(0.,-1.21430643318376E-16,-1.));
#1744=DIRECTION('',(1.,0.,0.));
#1745=CARTESIAN_POINT('',(0.,0.,0.));
#1746=CARTESIAN_POINT('',(0.01525,-0.044233880341599,0.013));
#1747=CARTESIAN_POINT('',(0.01525,-0.0458188711258504,0.0265));
#1748=CARTESIAN_POINT('',(0.01525,-0.0448591431372207,0.0265));
#1749=CARTESIAN_POINT('',(0.01525,-0.0508393549290577,0.0265));
#1750=CARTESIAN_POINT('',(0.01525,-0.0508393549290577,0.0245));
#1751=CARTESIAN_POINT('',(0.01525,-0.0510874243982359,0.0264845557534273));
#1752=CARTESIAN_POINT('',(0.01525,-0.0552091298780787,0.0192715711637044));
#1753=CARTESIAN_POINT('',(0.01525,-0.0630418917705525,0.00556423785187891));
#1754=CARTESIAN_POINT('',(0.01525,-0.0620000000000032,0.00496887112585059));
#1755=CARTESIAN_POINT('',(0.01525,-0.0632000000000032,0.00496887112585059));
#1756=CARTESIAN_POINT('',(0.01525,-0.0632000000000032,0.013));
#1757=CARTESIAN_POINT('',(0.01525,-0.0632000000000032,0.00297213595500067));
#1758=CARTESIAN_POINT('',(0.01525,-0.0620000000000032,0.00297213595500067));
#1759=CARTESIAN_POINT('',(0.01525,-0.0630733126292025,0.00243547964039963));
#1760=CARTESIAN_POINT('',(0.01525,-0.063531234315513,0.00335132301301818));
#1761=CARTESIAN_POINT('',(0.01525,-0.0618555728089996,8.78132405739152E-19));
#1762=CARTESIAN_POINT('',(0.01525,-0.0484123825553987,-7.54282835006933E-19));
#1763=CARTESIAN_POINT('',(0.01525,-0.0348747651107975,-2.39816443030294E-18));
#1764=CARTESIAN_POINT('',(0.01525,-0.0348747651107975,0.000500000000000016));
#1765=CARTESIAN_POINT('',(0.01525,-0.0348747651107975,0.000500000000000016));
#1766=CARTESIAN_POINT('',(0.01525,-0.0360747651107975,0.000500000000000016));
#1767=CARTESIAN_POINT('',(0.01525,-0.0360747651107975,0.0017));
#1768=CARTESIAN_POINT('',(0.01525,-0.044233880341599,0.0017));
#1769=CARTESIAN_POINT('',(0.01525,-0.050965558146251,0.0017));
#1770=CARTESIAN_POINT('',(0.01525,-0.050965558146251,0.0055));
#1771=CARTESIAN_POINT('',(0.01525,-0.0543643814720489,0.00380058833709668));
#1772=CARTESIAN_POINT('',(0.01525,-0.0550722825049347,0.00521639040286475));
#1773=CARTESIAN_POINT('',(0.01525,-0.0550722825049347,0.00521639040286474));
#1774=CARTESIAN_POINT('',(0.01525,-0.0516734591791368,0.00691580206576808));
#1775=CARTESIAN_POINT('',(0.01525,-0.0549727831192095,0.00880113003152443));
#1776=CARTESIAN_POINT('',(0.01525,-0.0446323367654004,0.0268969111506855));
#1777=CARTESIAN_POINT('',(0.01525,-0.0409047813776098,0.00365));
#1778=CARTESIAN_POINT('',(0.01425,-0.0409047813776098,0.00365));
#1779=CARTESIAN_POINT('',(0.01425,-0.0399931260783792,0.00312905411472523));
#1780=CARTESIAN_POINT('',(0.01425,-0.0418164366768404,0.0041709458852748));
#1781=CARTESIAN_POINT('',(0.01525,-0.0399931260783792,0.00312905411472523));
#1782=CARTESIAN_POINT('',(0.01025,-0.0399931260783792,0.00312905411472523));
#1783=CARTESIAN_POINT('',(0.01025,-0.0409047813776098,0.00365));
#1784=CARTESIAN_POINT('',(0.01025,-0.0418164366768404,0.0041709458852748));
#1785=CARTESIAN_POINT('',(0.01525,-0.0418164366768404,0.0041709458852748));
#1786=CARTESIAN_POINT('',(0.01525,-0.0399264285434342,0.00747846011873472));
#1787=CARTESIAN_POINT('',(0.01425,-0.0399264285434342,0.00747846011873472));
#1788=CARTESIAN_POINT('',(0.01425,-0.038036420410028,0.0107859743521946));
#1789=CARTESIAN_POINT('',(0.01025,-0.0399264285434342,0.00747846011873472));
#1790=CARTESIAN_POINT('',(0.01025,-0.038036420410028,0.0107859743521946));
#1791=CARTESIAN_POINT('',(0.01525,-0.038036420410028,0.0107859743521946));
#1792=CARTESIAN_POINT('',(0.01525,-0.0371247651107975,0.0102650284669199));
#1793=CARTESIAN_POINT('',(0.01425,-0.0371247651107975,0.0102650284669199));
#1794=CARTESIAN_POINT('',(0.01425,-0.0362131098115668,0.00974408258164508));
#1795=CARTESIAN_POINT('',(0.01025,-0.0371247651107975,0.0102650284669199));
#1796=CARTESIAN_POINT('',(0.01025,-0.0362131098115668,0.00974408258164508));
#1797=CARTESIAN_POINT('',(0.01525,-0.0362131098115668,0.00974408258164508));
#1798=CARTESIAN_POINT('',(0.01525,-0.0312712628969961,0.018593871125849));
#1799=CARTESIAN_POINT('',(0.01025,-0.0336794945371706,0.0143794657555446));
#1800=CARTESIAN_POINT('',(0.01425,-0.0336794945371706,0.0143794657555446));
#1801=CARTESIAN_POINT('',(0.01105,-0.0336794945371706,0.0143794657555446));
#1802=CARTESIAN_POINT('',(0.01105,-0.0312712628969961,0.018593871125849));
#1803=CARTESIAN_POINT('',(0.01105,-0.0293315225031545,0.0219884168150708));
#1804=CARTESIAN_POINT('',(0.01425,-0.0293315225031545,0.0219884168150708));
#1805=CARTESIAN_POINT('',(0.01425,-0.0293315225031545,0.0219884168150708));
#1806=CARTESIAN_POINT('',(0.01425,-0.0312712628969961,0.018593871125849));
#1807=CARTESIAN_POINT('',(0.01525,-0.038103117944973,0.00643656834818516));
#1808=CARTESIAN_POINT('',(0.01425,-0.038103117944973,0.00643656834818516));
#1809=CARTESIAN_POINT('',(0.01025,-0.038103117944973,0.00643656834818516));
#1810=CARTESIAN_POINT('',(0.01525,-0.0633750000000016,0.00125));
#1811=CARTESIAN_POINT('',(0.01525,-0.06275,9.86743274943776E-19));
#1812=CARTESIAN_POINT('',(0.01445,-0.06275,9.86743274943776E-19));
#1813=CARTESIAN_POINT('',(0.01105,-0.06275,9.86743274943776E-19));
#1814=CARTESIAN_POINT('',(0.01445,-0.0633750000000016,0.00125));
#1815=CARTESIAN_POINT('',(0.01445,-0.0637888543820021,0.00207770876399892));
#1816=CARTESIAN_POINT('',(0.01525,-0.0637888543820021,0.00207770876399892));
#1817=CARTESIAN_POINT('',(0.01105,-0.0637888543820021,0.00207770876399892));
#1818=CARTESIAN_POINT('',(0.01105,-0.06275,1.98590259113529E-18));
#1819=CARTESIAN_POINT('',(0.01525,-0.0484123825553987,-7.54282835006933E-19));
#1820=CARTESIAN_POINT('',(0.01275,-0.037,-2.14009579050442E-18));
#1821=CARTESIAN_POINT('',(0.01275,-0.03595,-2.26759796598872E-18));
#1822=CARTESIAN_POINT('',(0.01275,-0.0595,5.92093684159052E-19));
#1823=CARTESIAN_POINT('',(0.01275,-0.05845,4.64591508674757E-19));
#1824=CARTESIAN_POINT('',(0.0219299749425583,-0.0543871337792179,-2.87649502313059E-20));
#1825=CARTESIAN_POINT('',(0.00579224727966262,-0.0568716537542176,2.72931908670255E-19));
#1826=CARTESIAN_POINT('',(0.01025,-0.0618555728089996,8.78132405739152E-19));
#1827=CARTESIAN_POINT('',(0.01025,-0.0484123825553987,-7.54282835006933E-19));
#1828=CARTESIAN_POINT('',(0.01025,-0.0348747651107975,-2.39816443030294E-18));
#1829=CARTESIAN_POINT('',(0.00598119127769936,-0.0391435738330981,-1.87980024095087E-18));
#1830=CARTESIAN_POINT('',(0.01105,-0.0340747651107975,0.));
#1831=CARTESIAN_POINT('',(0.01525,-0.0340747651107975,0.));
#1832=CARTESIAN_POINT('',(0.01445,-0.0340747651107975,0.));
#1833=CARTESIAN_POINT('',(0.0220188087223007,-0.0416435738330981,-1.57622363265493E-18));
#1834=CARTESIAN_POINT('',(0.01525,-0.0340747651107975,0.00684387112584895));
#1835=CARTESIAN_POINT('',(0.01105,-0.0340747651107975,0.00684387112584895));
#1836=CARTESIAN_POINT('',(0.01105,-0.0340747651107975,0.0128910489404738));
#1837=CARTESIAN_POINT('',(0.01425,-0.0340747651107975,0.0128910489404738));
#1838=CARTESIAN_POINT('',(0.01425,-0.0340747651107975,0.0128910489404738));
#1839=CARTESIAN_POINT('',(0.01425,-0.0340747651107975,0.00684387112584895));
#1840=CARTESIAN_POINT('',(0.01425,-0.0340747651107975,0.000500000000000016));
#1841=CARTESIAN_POINT('',(0.01525,-0.0340747651107975,0.000500000000000016));
#1842=CARTESIAN_POINT('',(0.01445,-0.0340747651107975,0.000500000000000016));
#1843=CARTESIAN_POINT('',(0.01445,-0.0340747651107975,0.));
#1844=CARTESIAN_POINT('',(0.01525,-0.0264677606831948,0.0235));
#1845=CARTESIAN_POINT('',(0.01525,-0.0264677606831948,0.0235));
#1846=CARTESIAN_POINT('',(0.01105,-0.0264677606831948,0.0235));
#1847=CARTESIAN_POINT('',(0.01445,-0.0264677606831948,0.0235));
#1848=CARTESIAN_POINT('',(0.01445,-0.0330747651107942,0.0235));
#1849=CARTESIAN_POINT('',(0.01445,-0.0330747651107942,0.0235));
#1850=CARTESIAN_POINT('',(0.01425,-0.0330747651107942,0.0235));
#1851=CARTESIAN_POINT('',(0.01425,-0.0330747651107942,0.0235));
#1852=CARTESIAN_POINT('',(0.01425,-0.0307712628969945,0.0235));
#1853=CARTESIAN_POINT('',(0.01425,-0.0267267930767813,0.0235));
#1854=CARTESIAN_POINT('',(0.01025,-0.0267267930767813,0.0235));
#1855=CARTESIAN_POINT('',(0.01105,-0.0267267930767813,0.0235));
#1856=CARTESIAN_POINT('',(0.01105,-0.0264677606831948,0.0235));
#1857=CARTESIAN_POINT('',(0.01525,-0.0244677606831947,0.025));
#1858=CARTESIAN_POINT('',(0.01525,-0.0244677606831947,0.0265));
#1859=CARTESIAN_POINT('',(0.01445,-0.0244677606831947,0.0265));
#1860=CARTESIAN_POINT('',(0.01105,-0.0244677606831947,0.0265));
#1861=CARTESIAN_POINT('',(0.01445,-0.0244677606831947,0.0255));
#1862=CARTESIAN_POINT('',(0.01445,-0.0244677606831947,0.0255));
#1863=CARTESIAN_POINT('',(0.01525,-0.0244677606831947,0.0255));
#1864=CARTESIAN_POINT('',(0.01105,-0.0244677606831947,0.0255));
#1865=CARTESIAN_POINT('',(0.01105,-0.0244677606831947,0.025));
#1866=CARTESIAN_POINT('',(0.01525,-0.0279141200398514,0.0265));
#1867=CARTESIAN_POINT('',(0.01275,-0.028,0.0265));
#1868=CARTESIAN_POINT('',(0.0138,-0.028,0.0265));
#1869=CARTESIAN_POINT('',(0.01525,-0.0279141200398514,0.0265));
#1870=CARTESIAN_POINT('',(0.01525,-0.0313604793965081,0.0265));
#1871=CARTESIAN_POINT('',(0.01525,-0.0252677606831948,0.0265));
#1872=CARTESIAN_POINT('',(0.0165731796783283,-0.0265909403615231,0.0265));
#1873=CARTESIAN_POINT('',(0.0114268203216717,-0.024090940361523,0.0265));
#1874=CARTESIAN_POINT('',(0.01025,-0.0252677606831948,0.0265));
#1875=CARTESIAN_POINT('',(0.01025,-0.0279141200398514,0.0265));
#1876=CARTESIAN_POINT('',(0.01025,-0.0304390785109882,0.0265));
#1877=CARTESIAN_POINT('',(0.0111491398071369,-0.0314746637791158,0.0265));
#1878=CARTESIAN_POINT('',(0.01105,-0.0313604793965081,0.0265));
#1879=CARTESIAN_POINT('',(0.01525,-0.0313604793965081,0.0265));
#1880=CARTESIAN_POINT('',(0.01525,-0.0382176222536528,0.0145));
#1881=CARTESIAN_POINT('',(0.0123968839783982,-0.0342479742659955,0.0214468839783983));
#1882=CARTESIAN_POINT('',(0.01525,-0.0326176222536513,0.0243));
#1883=CARTESIAN_POINT('',(0.01525,-0.0382176222536528,0.0145));
#1884=CARTESIAN_POINT('',(0.01105,-0.0382176222536528,0.0145));
#1885=CARTESIAN_POINT('',(0.01105,-0.0442110032908377,0.00401158318492921));
#1886=CARTESIAN_POINT('',(0.01525,-0.0442110032908377,0.00401158318492921));
#1887=CARTESIAN_POINT('',(0.01425,-0.0442110032908377,0.00401158318492921));
#1888=CARTESIAN_POINT('',(0.01425,-0.0382176222536528,0.0145));
#1889=CARTESIAN_POINT('',(0.01525,-0.048947212611648,0.0025));
#1890=CARTESIAN_POINT('',(0.01525,-0.050965558146251,0.0025));
#1891=CARTESIAN_POINT('',(0.01105,-0.050965558146251,0.0025));
#1892=CARTESIAN_POINT('',(0.01445,-0.050965558146251,0.0025));
#1893=CARTESIAN_POINT('',(0.01445,-0.048947212611648,0.0025));
#1894=CARTESIAN_POINT('',(0.01445,-0.0360747651107975,0.0025));
#1895=CARTESIAN_POINT('',(0.01425,-0.0360747651107975,0.0025));
#1896=CARTESIAN_POINT('',(0.01425,-0.0360747651107975,0.0025));
#1897=CARTESIAN_POINT('',(0.01425,-0.0395747651107975,0.0025));
#1898=CARTESIAN_POINT('',(0.01425,-0.0468157327172109,0.0025));
#1899=CARTESIAN_POINT('',(0.01525,-0.0468157327172109,0.0025));
#1900=CARTESIAN_POINT('',(0.01105,-0.0468157327172109,0.0025));
#1901=CARTESIAN_POINT('',(0.01105,-0.050965558146251,0.0025));
#1902=CARTESIAN_POINT('',(0.01525,-0.053947212611648,0.00475510499829313));
#1903=CARTESIAN_POINT('',(0.01525,-0.0543567407521352,0.00557416127926545));
#1904=CARTESIAN_POINT('',(0.01105,-0.0543567407521352,0.00557416127926545));
#1905=CARTESIAN_POINT('',(0.01445,-0.0543567407521352,0.00557416127926545));
#1906=CARTESIAN_POINT('',(0.01445,-0.0536488397192493,0.00415835921349739));
#1907=CARTESIAN_POINT('',(0.01445,-0.0536488397192493,0.00415835921349739));
#1908=CARTESIAN_POINT('',(0.01525,-0.0536488397192493,0.00415835921349739));
#1909=CARTESIAN_POINT('',(0.01105,-0.0536488397192493,0.00415835921349739));
#1910=CARTESIAN_POINT('',(0.01105,-0.053947212611648,0.00475510499829313));
#1911=CARTESIAN_POINT('',(0.01525,-0.0495062536812492,0.0167551049982931));
#1912=CARTESIAN_POINT('',(0.01525,-0.0439377422517008,0.0265));
#1913=CARTESIAN_POINT('',(0.01445,-0.0439377422517008,0.0265));
#1914=CARTESIAN_POINT('',(0.01105,-0.0439377422517008,0.0265));
#1915=CARTESIAN_POINT('',(0.01445,-0.05427818860551,0.00840421888083888));
#1916=CARTESIAN_POINT('',(0.01445,-0.05427818860551,0.00840421888083888));
#1917=CARTESIAN_POINT('',(0.01025,-0.05427818860551,0.00840421888083888));
#1918=CARTESIAN_POINT('',(0.01105,-0.05427818860551,0.00840421888083888));
#1919=CARTESIAN_POINT('',(0.01105,-0.0495062536812492,0.0167551049982931));
#1920=CARTESIAN_POINT('',(0.01525,-0.0458188711258504,0.0265));
#1921=CARTESIAN_POINT('',(0.01275,-0.049,0.0265));
#1922=CARTESIAN_POINT('',(0.0138,-0.049,0.0265));
#1923=CARTESIAN_POINT('',(0.01025,-0.0458188711258504,0.0265));
#1924=CARTESIAN_POINT('',(0.01025,-0.0448591431372207,0.0265));
#1925=CARTESIAN_POINT('',(0.01025,-0.0508393549290577,0.0265));
#1926=CARTESIAN_POINT('',(0.01445,-0.0508393549290577,0.0265));
#1927=CARTESIAN_POINT('',(0.0180527177681921,-0.0480871764290639,0.0265));
#1928=CARTESIAN_POINT('',(0.00829330332512675,-0.0471127706983733,0.0265));
#1929=CARTESIAN_POINT('',(0.01525,-0.0580000000000016,0.016));
#1930=CARTESIAN_POINT('',(0.01445,-0.0580000000000016,0.016));
#1931=CARTESIAN_POINT('',(0.01445,-0.063736486284252,0.00596114900256446));
#1932=CARTESIAN_POINT('',(0.01445,-0.0525758412133065,0.0254922778767139));
#1933=CARTESIAN_POINT('',(0.01105,-0.0525758412133065,0.0254922778767139));
#1934=CARTESIAN_POINT('',(0.01105,-0.0525758412133065,0.0254922778767139));
#1935=CARTESIAN_POINT('',(0.01105,-0.063736486284252,0.00596114900256446));
#1936=CARTESIAN_POINT('',(0.01105,-0.063736486284252,0.00596114900256446));
#1937=CARTESIAN_POINT('',(0.01525,-0.063736486284252,0.00596114900256446));
#1938=CARTESIAN_POINT('',(0.01525,-0.0640000000000032,0.004));
#1939=CARTESIAN_POINT('',(0.01525,-0.0640000000000032,0.00297213595500067));
#1940=CARTESIAN_POINT('',(0.01105,-0.0640000000000032,0.00297213595500067));
#1941=CARTESIAN_POINT('',(0.01445,-0.0640000000000032,0.00297213595500067));
#1942=CARTESIAN_POINT('',(0.01445,-0.0640000000000032,0.004));
#1943=CARTESIAN_POINT('',(0.01445,-0.0640000000000032,0.00496887112585059));
#1944=CARTESIAN_POINT('',(0.01525,-0.0640000000000032,0.00496887112585059));
#1945=CARTESIAN_POINT('',(0.01105,-0.0640000000000032,0.00496887112585059));
#1946=CARTESIAN_POINT('',(0.01105,-0.0640000000000032,0.00297213595500067));
#1947=CARTESIAN_POINT('',(0.01525,-0.044233880341599,0.013));
#1948=CARTESIAN_POINT('',(0.01525,-0.0264677606831948,0.0255));
#1949=CARTESIAN_POINT('',(0.01525,-0.0264677606831948,0.0243));
#1950=CARTESIAN_POINT('',(0.01525,-0.0252677606831948,0.0255));
#1951=CARTESIAN_POINT('',(0.01525,-0.0252677606831948,0.0265));
#1952=CARTESIAN_POINT('',(0.01525,-0.0264677606831948,0.0243));
#1953=CARTESIAN_POINT('',(0.01025,-0.044233880341599,0.013));
#1954=CARTESIAN_POINT('',(0.01025,-0.0513054054863004,0.0261030888493144));
#1955=CARTESIAN_POINT('',(0.01025,-0.0630418917705525,0.00556423785187891));
#1956=CARTESIAN_POINT('',(0.01025,-0.0510874243982359,0.0264845557534273));
#1957=CARTESIAN_POINT('',(0.01025,-0.0508393549290577,0.0245));
#1958=CARTESIAN_POINT('',(0.01025,-0.0505206169106069,0.016592420896577));
#1959=CARTESIAN_POINT('',(0.01025,-0.0549727831192095,0.00880113003152443));
#1960=CARTESIAN_POINT('',(0.01025,-0.0516734591791368,0.00691580206576808));
#1961=CARTESIAN_POINT('',(0.01025,-0.0550722825049347,0.00521639040286474));
#1962=CARTESIAN_POINT('',(0.01025,-0.0560180459111176,0.00710791721522555));
#1963=CARTESIAN_POINT('',(0.01025,-0.0543643814720489,0.00380058833709668));
#1964=CARTESIAN_POINT('',(0.01025,-0.050965558146251,0.0055));
#1965=CARTESIAN_POINT('',(0.01025,-0.050965558146251,0.0017));
#1966=CARTESIAN_POINT('',(0.01025,-0.0468157327172109,0.0017));
#1967=CARTESIAN_POINT('',(0.01025,-0.0468157327172109,0.0017));
#1968=CARTESIAN_POINT('',(0.01025,-0.0468157327172109,0.0055));
#1969=CARTESIAN_POINT('',(0.01025,-0.0435164087771382,0.00361467203424366));
#1970=CARTESIAN_POINT('',(0.01025,-0.0396501066539099,0.0103807007498913));
#1971=CARTESIAN_POINT('',(0.01025,-0.0252677606831948,0.013));
#1972=CARTESIAN_POINT('',(0.01025,-0.0252677606831948,0.0255));
#1973=CARTESIAN_POINT('',(0.01025,-0.0264677606831948,0.0255));
#1974=CARTESIAN_POINT('',(0.01025,-0.0264677606831948,0.0243));
#1975=CARTESIAN_POINT('',(0.01025,-0.044233880341599,0.0243));
#1976=CARTESIAN_POINT('',(0.01025,-0.0267267930767813,0.0243));
#1977=CARTESIAN_POINT('',(0.01025,-0.0267267930767813,0.0205));
#1978=CARTESIAN_POINT('',(0.01025,-0.030026117016854,0.0223853279657563));
#1979=CARTESIAN_POINT('',(0.01025,-0.0375663231128113,0.00918996729783461));
#1980=CARTESIAN_POINT('',(0.01025,-0.0343740890508701,0.0147763769062301));
#1981=CARTESIAN_POINT('',(0.01025,-0.0310747651107974,0.0128910489404738));
#1982=CARTESIAN_POINT('',(0.01025,-0.0348747651107975,0.0128910489404738));
#1983=CARTESIAN_POINT('',(0.01025,-0.0348747651107975,0.013));
#1984=CARTESIAN_POINT('',(0.01025,-0.0630733126292025,0.00243547964039963));
#1985=CARTESIAN_POINT('',(0.01025,-0.0630733126292025,0.00243547964039963));
#1986=CARTESIAN_POINT('',(0.01025,-0.0620000000000032,0.00297213595500067));
#1987=CARTESIAN_POINT('',(0.01025,-0.0632000000000032,0.00297213595500067));
#1988=CARTESIAN_POINT('',(0.01025,-0.0632000000000032,0.00496887112585059));
#1989=CARTESIAN_POINT('',(0.01025,-0.0632000000000032,0.00496887112585059));
#1990=CARTESIAN_POINT('',(0.01025,-0.0620000000000032,0.00496887112585059));
#1991=CARTESIAN_POINT('',(0.01425,-0.044233880341599,0.01325));
#1992=CARTESIAN_POINT('',(0.01425,-0.0468157327172109,0.0055));
#1993=CARTESIAN_POINT('',(0.01425,-0.0360747651107975,0.000500000000000016));
#1994=CARTESIAN_POINT('',(0.01425,-0.0310747651107974,0.0128910489404738));
#1995=CARTESIAN_POINT('',(0.01425,-0.0267267930767813,0.0205));
#1996=CARTESIAN_POINT('',(0.01525,-0.0267267930767813,0.0205));
#1997=CARTESIAN_POINT('',(0.0136489462676219,-0.0286313001246988,0.0228405436529526));
#1998=CARTESIAN_POINT('',(0.0139077332876071,-0.0280244524320688,0.0232618782499598));
#1999=CARTESIAN_POINT('',(0.0135718779859469,-0.0271495206085001,0.0234947374609316));
#2000=CARTESIAN_POINT('',(0.01265286825592,-0.0268185278562936,0.0234936503496034));
#2001=CARTESIAN_POINT('',(0.0118016352317919,-0.0272974539815287,0.0234791850059923));
#2002=CARTESIAN_POINT('',(0.011615000278381,-0.0281925195078871,0.02317521723315));
#2003=CARTESIAN_POINT('',(0.0119410617518364,-0.0287445837847188,0.0227403123693209));
#2004=CARTESIAN_POINT('',(0.0123865477177506,-0.0290158579133548,0.0224426403120994));
#2005=CARTESIAN_POINT('',(0.0128443290816114,-0.0290788749601092,0.0223620405137554));
#2006=CARTESIAN_POINT('',(0.0132587596300309,-0.0289469274018171,0.0225242075188214));
#2007=CARTESIAN_POINT('',(0.0136489462676219,-0.0286313001246988,0.0228405436529526));
#2008=CARTESIAN_POINT('',(0.0139077332876071,-0.0280244524320688,0.0232618782499598));
#2009=CARTESIAN_POINT('',(0.0135718779859469,-0.0271495206085001,0.0234947374609316));
#2010=CARTESIAN_POINT('',(0.0138,-0.028,0.0232164211990536));
#2011=CARTESIAN_POINT('',(0.01105,-0.0267267930767813,0.0205));
#2012=CARTESIAN_POINT('',(0.01525,-0.0310747651107974,0.0128910489404738));
#2013=CARTESIAN_POINT('',(0.01105,-0.0310747651107974,0.0128910489404738));
#2014=CARTESIAN_POINT('',(0.01525,-0.0468157327172109,0.0055));
#2015=CARTESIAN_POINT('',(0.01105,-0.0468157327172109,0.0055));
#2016=CARTESIAN_POINT('',(0.01525,-0.050965558146251,0.0055));
#2017=CARTESIAN_POINT('',(0.01445,-0.050965558146251,0.0055));
#2018=CARTESIAN_POINT('',(0.01105,-0.050965558146251,0.0055));
#2019=CARTESIAN_POINT('',(0.01525,-0.0516734591791368,0.00691580206576808));
#2020=CARTESIAN_POINT('',(0.01445,-0.0516734591791368,0.00691580206576808));
#2021=CARTESIAN_POINT('',(0.01105,-0.0516734591791368,0.00691580206576808));
#2022=CARTESIAN_POINT('',(0.01525,-0.0264677606831948,0.0255));
#2023=CARTESIAN_POINT('',(0.01445,-0.0264677606831948,0.0255));
#2024=CARTESIAN_POINT('',(0.01105,-0.0264677606831948,0.0255));
#2025=CARTESIAN_POINT('',(0.01525,-0.0360747651107975,0.000500000000000016));
#2026=CARTESIAN_POINT('',(0.01445,-0.0360747651107975,0.000500000000000016));
#2027=CARTESIAN_POINT('',(0.01525,-0.0620000000000032,0.00297213595500067));
#2028=CARTESIAN_POINT('',(0.01445,-0.0620000000000032,0.00297213595500067));
#2029=CARTESIAN_POINT('',(0.01105,-0.0620000000000032,0.00297213595500067));
#2030=CARTESIAN_POINT('',(0.01525,-0.0620000000000032,0.00496887112585059));
#2031=CARTESIAN_POINT('',(0.01445,-0.0620000000000032,0.00496887112585059));
#2032=CARTESIAN_POINT('',(0.01105,-0.0620000000000032,0.00496887112585059));
#2033=CARTESIAN_POINT('',(0.01525,-0.044233880341599,0.0243));
#2034=CARTESIAN_POINT('',(0.01525,-0.0264677606831948,0.0243));
#2035=CARTESIAN_POINT('',(0.01525,-0.0264677606831948,0.0255));
#2036=CARTESIAN_POINT('',(0.01525,-0.0252677606831948,0.0255));
#2037=CARTESIAN_POINT('',(0.01525,-0.0252677606831948,0.013));
#2038=CARTESIAN_POINT('',(0.01445,-0.0580000000000016,0.016));
#2039=CARTESIAN_POINT('',(0.01645,-0.0508393549290577,0.0245));
#2040=CARTESIAN_POINT('',(0.01525,-0.0630418917705525,0.00556423785187891));
#2041=CARTESIAN_POINT('',(0.01525,-0.0620000000000032,0.00496887112585059));
#2042=CARTESIAN_POINT('',(0.01525,-0.0632000000000032,0.00496887112585059));
#2043=CARTESIAN_POINT('',(0.01445,-0.0640000000000032,0.004));
#2044=CARTESIAN_POINT('',(0.01525,-0.0632000000000032,0.00297213595500067));
#2045=CARTESIAN_POINT('',(0.01525,-0.0620000000000032,0.00297213595500067));
#2046=CARTESIAN_POINT('',(0.01525,-0.0630733126292025,0.00243547964039963));
#2047=CARTESIAN_POINT('',(0.01445,-0.0633750000000016,0.00125));
#2048=CARTESIAN_POINT('',(0.01025,-0.063531234315513,0.00335132301301818));
#2049=CARTESIAN_POINT('',(0.01025,-0.0630733126292025,0.00243547964039963));
#2050=CARTESIAN_POINT('',(0.01025,-0.0620000000000032,0.00297213595500067));
#2051=CARTESIAN_POINT('',(0.01025,-0.0632000000000032,0.00297213595500067));
#2052=CARTESIAN_POINT('',(0.01025,-0.0632000000000032,0.013));
#2053=CARTESIAN_POINT('',(0.01025,-0.0632000000000032,0.00496887112585059));
#2054=CARTESIAN_POINT('',(0.01025,-0.0620000000000032,0.00496887112585059));
#2055=CARTESIAN_POINT('',(0.01025,-0.0630418917705525,0.00556423785187891));
#2056=CARTESIAN_POINT('',(0.01025,-0.0552091298780787,0.0192715711637044));
#2057=CARTESIAN_POINT('',(0.00905,-0.0508393549290577,0.0245));
#2058=CARTESIAN_POINT('',(0.01105,-0.0244677606831947,0.025));
#2059=CARTESIAN_POINT('',(0.01025,-0.0252677606831948,0.0255));
#2060=CARTESIAN_POINT('',(0.01025,-0.0264677606831948,0.0255));
#2061=CARTESIAN_POINT('',(0.01025,-0.0264677606831948,0.0243));
#2062=CARTESIAN_POINT('',(0.01105,-0.0264677606831948,0.0235));
#2063=CARTESIAN_POINT('',(0.01025,-0.0267267930767813,0.0243));
#2064=CARTESIAN_POINT('',(0.01025,-0.0267267930767813,0.0205));
#2065=CARTESIAN_POINT('',(0.01025,-0.030026117016854,0.0223853279657563));
#2066=CARTESIAN_POINT('',(0.01105,-0.0312712628969961,0.018593871125849));
#2067=CARTESIAN_POINT('',(0.01025,-0.0343740890508701,0.0147763769062301));
#2068=CARTESIAN_POINT('',(0.01025,-0.0310747651107974,0.0128910489404738));
#2069=CARTESIAN_POINT('',(0.01025,-0.0348747651107975,0.0128910489404738));
#2070=CARTESIAN_POINT('',(0.01105,-0.0340747651107975,0.00684387112584895));
#2071=CARTESIAN_POINT('',(0.01525,-0.0348747651107975,0.013));
#2072=CARTESIAN_POINT('',(0.01525,-0.0348747651107975,0.000500000000000016));
#2073=CARTESIAN_POINT('',(0.01525,-0.0360747651107975,0.000500000000000016));
#2074=CARTESIAN_POINT('',(0.01525,-0.0360747651107975,0.0017));
#2075=CARTESIAN_POINT('',(0.01445,-0.048947212611648,0.0025));
#2076=CARTESIAN_POINT('',(0.01525,-0.050965558146251,0.0017));
#2077=CARTESIAN_POINT('',(0.01525,-0.050965558146251,0.0055));
#2078=CARTESIAN_POINT('',(0.01525,-0.0543643814720489,0.00380058833709668));
#2079=CARTESIAN_POINT('',(0.01525,-0.0560180459111176,0.00710791721522555));
#2080=CARTESIAN_POINT('',(0.01525,-0.0550722825049347,0.00521639040286474));
#2081=CARTESIAN_POINT('',(0.01525,-0.0516734591791368,0.00691580206576808));
#2082=CARTESIAN_POINT('',(0.01525,-0.0549727831192095,0.00880113003152443));
#2083=CARTESIAN_POINT('',(0.01525,-0.0505206169106069,0.016592420896577));
#2084=CARTESIAN_POINT('',(0.01105,-0.0495062536812492,0.0167551049982931));
#2085=CARTESIAN_POINT('',(0.01025,-0.0549727831192095,0.00880113003152443));
#2086=CARTESIAN_POINT('',(0.01025,-0.0516734591791368,0.00691580206576808));
#2087=CARTESIAN_POINT('',(0.01025,-0.0550722825049347,0.00521639040286474));
#2088=CARTESIAN_POINT('',(0.01105,-0.053947212611648,0.00475510499829313));
#2089=CARTESIAN_POINT('',(0.01025,-0.0543643814720489,0.00380058833709668));
#2090=CARTESIAN_POINT('',(0.01025,-0.050965558146251,0.0055));
#2091=CARTESIAN_POINT('',(0.01025,-0.050965558146251,0.0017));
#2092=CARTESIAN_POINT('',(0.01025,-0.044233880341599,0.0017));
#2093=CARTESIAN_POINT('',(0.01025,-0.0468157327172109,0.0017));
#2094=CARTESIAN_POINT('',(0.01025,-0.0468157327172109,0.0055));
#2095=CARTESIAN_POINT('',(0.01025,-0.0435164087771382,0.00361467203424366));
#2096=CARTESIAN_POINT('',(0.01105,-0.0382176222536528,0.0145));
#2097=CARTESIAN_POINT('',(0.01525,-0.0508393549290577,0.0245));
#2098=CARTESIAN_POINT('',(0.01275,-0.028,0.0205));
#2099=CARTESIAN_POINT('',(0.01275,-0.049,0.0205));
#2100=CARTESIAN_POINT('',(0.01275,-0.049,0.0205));
#2101=CARTESIAN_POINT('',(0.0138,-0.049,0.0205));
#2102=CARTESIAN_POINT('',(0.01275,-0.0387696774645288,0.0205));
#2103=CARTESIAN_POINT('',(0.01275,-0.0595,0.006));
#2104=CARTESIAN_POINT('',(0.01275,-0.0595,0.006));
#2105=CARTESIAN_POINT('',(0.01275,-0.05845,0.006));
#2106=CARTESIAN_POINT('',(0.01275,-0.0484123825553987,0.006));
#2107=CARTESIAN_POINT('',(0.01275,-0.037,0.006));
#2108=CARTESIAN_POINT('',(0.01275,-0.037,0.006));
#2109=CARTESIAN_POINT('',(0.01275,-0.03595,0.006));
#2110=CARTESIAN_POINT('',(0.01275,-0.0484123825553987,0.006));
#2111=MECHANICAL_DESIGN_GEOMETRIC_PRESENTATION_REPRESENTATION('',(#1247),
#2112);
#2112=(
GEOMETRIC_REPRESENTATION_CONTEXT(3)
GLOBAL_UNCERTAINTY_ASSIGNED_CONTEXT((#2113))
GLOBAL_UNIT_ASSIGNED_CONTEXT((#2116,#2115,#2114))
REPRESENTATION_CONTEXT('Standoff-L','TOP_LEVEL_ASSEMBLY_PART')
);
#2113=UNCERTAINTY_MEASURE_WITH_UNIT(LENGTH_MEASURE(2.E-5),#2116,
'DISTANCE_ACCURACY_VALUE','Maximum Tolerance applied to model');
#2114=(
NAMED_UNIT(*)
SI_UNIT($,.STERADIAN.)
SOLID_ANGLE_UNIT()
);
#2115=(
NAMED_UNIT(*)
PLANE_ANGLE_UNIT()
SI_UNIT($,.RADIAN.)
);
#2116=(
LENGTH_UNIT()
NAMED_UNIT(*)
SI_UNIT($,.METRE.)
);
#2117=PRODUCT_DEFINITION_SHAPE('','',#2118);
#2118=PRODUCT_DEFINITION('','',#2120,#2119);
#2119=PRODUCT_DEFINITION_CONTEXT('',#2126,'design');
#2120=PRODUCT_DEFINITION_FORMATION_WITH_SPECIFIED_SOURCE('','',#2122,
 .NOT_KNOWN.);
#2121=PRODUCT_RELATED_PRODUCT_CATEGORY('','',(#2122));
#2122=PRODUCT('Standoff-L','Standoff-L','Standoff-L',(#2124));
#2123=PRODUCT_CATEGORY('','');
#2124=PRODUCT_CONTEXT('',#2126,'mechanical');
#2125=APPLICATION_PROTOCOL_DEFINITION('international standard',
'ap242_managed_model_based_3d_engineering',2020,#2126);
#2126=APPLICATION_CONTEXT('managed model based 3d engineering');
ENDSEC;
END-ISO-10303-21;
